<svg xmlns="http://www.w3.org/2000/svg" width="89" height="95"><defs><filter id="a" x="679" y="1173" width="89" height="95" filterUnits="userSpaceOnUse"><feOffset result="offset" in="SourceAlpha"/><feGaussianBlur result="blur" stdDeviation="5.657"/><feFlood result="flood" flood-opacity=".5"/><feComposite result="composite" operator="in" in2="blur"/><feBlend result="blend" in="SourceGraphic"/></filter></defs><path d="M723.054 1205.01a12.476 12.476 0 0 0-11.994 11.15 12.27 12.27 0 0 0 .167 3.55s.019.13.083.39a12.2 12.2 0 0 0 .842 2.45c1.253 2.94 4.15 7.85 10.652 13.19a1.1 1.1 0 0 0 1.388 0c6.5-5.33 9.4-10.25 10.658-13.2a11.635 11.635 0 0 0 .842-2.45c.057-.25.083-.39.083-.39a12.215 12.215 0 0 0 .225-2.34 12.427 12.427 0 0 0-12.946-12.35zm.444 17a4.505 4.505 0 1 1 4.507-4.51 4.508 4.508 0 0 1-4.505 4.51z" transform="translate(-679 -1173)" fill="#0180cd" fill-rule="evenodd" filter="url(#a)"/></svg>