<?xml version="1.0" encoding="utf-8"?>
<!-- Generator: Adobe Illustrator 17.1.0, SVG Export Plug-In . SVG Version: 6.00 Build 0)  -->
<!DOCTYPE svg PUBLIC "-//W3C//DTD SVG 1.1//EN" "http://www.w3.org/Graphics/SVG/1.1/DTD/svg11.dtd">
<svg version="1.1" id="Layer_1" xmlns="http://www.w3.org/2000/svg" xmlns:xlink="http://www.w3.org/1999/xlink" x="0px" y="0px"
	 viewBox="0 0 62.4 62.4" enable-background="new 0 0 62.4 62.4" xml:space="preserve">
<linearGradient id="SVGID_1_" gradientUnits="userSpaceOnUse" x1="9.1504" y1="53.2122" x2="53.2122" y2="9.1504">
	<stop  offset="0" style="stop-color:#0072FF"/>
	<stop  offset="1" style="stop-color:#00C6FF"/>
</linearGradient>
<path fill-rule="evenodd" clip-rule="evenodd" fill="url(#SVGID_1_)" d="M31.2,62.4c17.2,0,31.2-14,31.2-31.2S48.4,0,31.2,0
	S0,14,0,31.2S14,62.4,31.2,62.4z"/>
<linearGradient id="SVGID_2_" gradientUnits="userSpaceOnUse" x1="21.9767" y1="21.7024" x2="53.3654" y2="53.0912">
	<stop  offset="0.1411" style="stop-color:#6411BC"/>
	<stop  offset="1" style="stop-color:#6411BC;stop-opacity:0"/>
</linearGradient>
<path opacity="0.5" fill-rule="evenodd" clip-rule="evenodd" fill="url(#SVGID_2_)" d="M62.3,33.2c-1,15.4-13.2,27.8-28.6,29.1
	L16.3,44.9l3.3-1.2l-9.8-9.8l17.4-6.3l8.5-9.6l9.3,9.3l-0.2-4.7l5.7,5l-1.7-7.7L62.3,33.2z"/>
<linearGradient id="SVGID_3_" gradientUnits="userSpaceOnUse" x1="18.2254" y1="44.8742" x2="18.2254" y2="34.1884">
	<stop  offset="0.2918" style="stop-color:#FFFFFF"/>
	<stop  offset="1" style="stop-color:#D9D9D9"/>
</linearGradient>
<path fill-rule="evenodd" clip-rule="evenodd" fill="url(#SVGID_3_)" d="M15.6,34.2H18c0.8,0,1.2,0.7,1.5,1.5l2.2,7.5
	c0.9,0.1,0.9,1.7,0,1.7h-5.3c-1,0-1-1.6,0-1.7l-2.2-7.5C13.9,34.9,14.8,34.2,15.6,34.2z"/>
<linearGradient id="SVGID_4_" gradientUnits="userSpaceOnUse" x1="14.0886" y1="39.5313" x2="19.4241" y2="39.5313">
	<stop  offset="0" style="stop-color:#000000"/>
	<stop  offset="1" style="stop-color:#000000;stop-opacity:0"/>
</linearGradient>
<path opacity="0.15" fill-rule="evenodd" clip-rule="evenodd" fill="url(#SVGID_4_)" d="M15.6,34.2h1.2l2.6,10.7h-3.1
	c-1,0-1-1.6,0-1.7l-2.2-7.5C13.9,34.9,14.8,34.2,15.6,34.2z"/>
<linearGradient id="SVGID_5_" gradientUnits="userSpaceOnUse" x1="46.508" y1="19.7811" x2="46.508" y2="42.3298">
	<stop  offset="0.2918" style="stop-color:#FFFFFF"/>
	<stop  offset="1" style="stop-color:#D9D9D9"/>
</linearGradient>
<path fill-rule="evenodd" clip-rule="evenodd" fill="url(#SVGID_5_)" d="M47,21.7c1.5,1.3,2.6,3.1,3.2,4.6c1.2,2.9,1.4,6.3,0.3,9.3
	c-0.7,2-1.3,3-2.9,4.8l1.9,1.8c3.9-3.6,4.9-9.6,4-14.2c-0.2-0.9-0.5-1.9-0.9-2.8c-0.9-2.1-1.9-3.7-3.8-5.5L47,21.7L47,21.7z
	 M39.2,27.3c2.4,2.5,2.2,6.3,0.2,8l1.9,1.9c3-2.7,3.2-8.6-0.4-11.9L39.2,27.3L39.2,27.3z M43.1,24.5l1.8-2c2.5,1.9,3.7,5.7,3.9,8.5
	c0.1,2.8-1.2,7-3.3,8.7L43.5,38C47.1,33.8,46.9,28.1,43.1,24.5z"/>
<linearGradient id="SVGID_6_" gradientUnits="userSpaceOnUse" x1="22.3688" y1="38.8253" x2="38.4187" y2="22.7754">
	<stop  offset="0" style="stop-color:#9733EE"/>
	<stop  offset="1" style="stop-color:#FF6287"/>
</linearGradient>
<path fill-rule="evenodd" clip-rule="evenodd" fill="url(#SVGID_6_)" d="M33.3,19c0.5-0.5,1.5-0.3,1.5,0.4v22.7c0,0.7-1,0.9-1.5,0.4
	C27,36.5,22.1,34.9,18.5,35v-8.4C22.1,26.7,27,25.1,33.3,19z"/>
<linearGradient id="SVGID_7_" gradientUnits="userSpaceOnUse" x1="25.8752" y1="41.5729" x2="27.7585" y2="29.6824">
	<stop  offset="0" style="stop-color:#6411BC"/>
	<stop  offset="0.7883" style="stop-color:#6411BC;stop-opacity:0"/>
</linearGradient>
<path fill-rule="evenodd" clip-rule="evenodd" fill="url(#SVGID_7_)" d="M34.8,30.8v11.4c0,0.7-1,0.9-1.5,0.4
	C27,36.5,22.1,34.9,18.5,35v-4.2H34.8z"/>
<linearGradient id="SVGID_8_" gradientUnits="userSpaceOnUse" x1="8.5161" y1="30.8003" x2="10.1098" y2="30.8003">
	<stop  offset="0" style="stop-color:#3B3B3B"/>
	<stop  offset="1" style="stop-color:#303030"/>
</linearGradient>
<path fill-rule="evenodd" clip-rule="evenodd" fill="url(#SVGID_8_)" d="M8.8,28.8h1.3v4.1H8.8c-0.2,0-0.3-0.1-0.3-0.3v-3.5
	C8.5,28.9,8.7,28.8,8.8,28.8z"/>
<linearGradient id="SVGID_9_" gradientUnits="userSpaceOnUse" x1="9.313" y1="32.8377" x2="9.313" y2="30.8005">
	<stop  offset="0" style="stop-color:#000000"/>
	<stop  offset="1" style="stop-color:#000000;stop-opacity:0"/>
</linearGradient>
<path opacity="0.5" fill-rule="evenodd" clip-rule="evenodd" fill="url(#SVGID_9_)" d="M10.1,30.8v2H8.8c-0.2,0-0.3-0.1-0.3-0.3
	v-1.7H10.1z"/>
<linearGradient id="SVGID_10_" gradientUnits="userSpaceOnUse" x1="11.3574" y1="33.9072" x2="11.3574" y2="27.6934">
	<stop  offset="0" style="stop-color:#FFFFFF"/>
	<stop  offset="1" style="stop-color:#D9D9D9"/>
</linearGradient>
<path fill-rule="evenodd" clip-rule="evenodd" fill="url(#SVGID_10_)" d="M10.1,27.7h3.2v6.2h-3.2c-0.4,0-0.7-0.3-0.7-0.7v-4.7
	C9.4,28,9.7,27.7,10.1,27.7z"/>
<linearGradient id="SVGID_11_" gradientUnits="userSpaceOnUse" x1="11.3574" y1="33.9072" x2="11.3574" y2="30.8005">
	<stop  offset="0" style="stop-color:#000000"/>
	<stop  offset="1" style="stop-color:#000000;stop-opacity:0"/>
</linearGradient>
<path opacity="0.15" fill-rule="evenodd" clip-rule="evenodd" fill="url(#SVGID_11_)" d="M13.3,30.8v3.1h-3.2
	c-0.4,0-0.7-0.3-0.7-0.7v-2.4H13.3z"/>
<linearGradient id="SVGID_12_" gradientUnits="userSpaceOnUse" x1="17.0857" y1="26.2185" x2="17.0857" y2="35.3821">
	<stop  offset="0" style="stop-color:#FFFFFF"/>
	<stop  offset="1" style="stop-color:#D9D9D9"/>
</linearGradient>
<path fill-rule="evenodd" clip-rule="evenodd" fill="url(#SVGID_12_)" d="M14.3,26.2h7.2v9.2h-7.2c-0.9,0-1.7-0.8-1.7-1.7v-5.8
	C12.6,27,13.4,26.2,14.3,26.2z"/>
<linearGradient id="SVGID_13_" gradientUnits="userSpaceOnUse" x1="17.0857" y1="35.3821" x2="17.0857" y2="30.8005">
	<stop  offset="0" style="stop-color:#000000"/>
	<stop  offset="1" style="stop-color:#000000;stop-opacity:0"/>
</linearGradient>
<path opacity="0.15" fill-rule="evenodd" clip-rule="evenodd" fill="url(#SVGID_13_)" d="M21.6,30.8v4.6h-7.2
	c-0.9,0-1.7-0.8-1.7-1.7v-2.9H21.6z"/>
<path fill-rule="evenodd" clip-rule="evenodd" fill="#FFFFFF" d="M34.7,17.5L34.7,17.5c0.8,0,1.5,0.7,1.5,1.5v23.5
	c0,0.8-0.7,1.5-1.5,1.5l0,0c-0.8,0-1.5-0.7-1.5-1.5V19C33.2,18.2,33.9,17.5,34.7,17.5z"/>
<linearGradient id="SVGID_14_" gradientUnits="userSpaceOnUse" x1="34.7063" y1="30.8003" x2="36.2449" y2="30.8003">
	<stop  offset="0" style="stop-color:#FFFFFF"/>
	<stop  offset="1" style="stop-color:#B3B3B3"/>
</linearGradient>
<path fill-rule="evenodd" clip-rule="evenodd" fill="url(#SVGID_14_)" d="M34.7,17.5c0.8,0,1.5,0.7,1.5,1.5v23.5
	c0,0.8-0.7,1.5-1.5,1.5V17.5z"/>
<linearGradient id="SVGID_15_" gradientUnits="userSpaceOnUse" x1="9.9355" y1="30.8003" x2="12.2582" y2="30.8003">
	<stop  offset="0" style="stop-color:#A8A8A8"/>
	<stop  offset="1" style="stop-color:#EBEBEB"/>
</linearGradient>
<path fill-rule="evenodd" clip-rule="evenodd" fill="url(#SVGID_15_)" d="M10.3,28.1h2v0.7h-2c-0.2,0-0.4-0.2-0.4-0.4v0
	C9.9,28.2,10.1,28.1,10.3,28.1L10.3,28.1z M10.3,30.4h2v0.7h-2c-0.2,0-0.4-0.2-0.4-0.4v0C9.9,30.6,10.1,30.4,10.3,30.4L10.3,30.4z
	 M10.3,31.6h2v0.7h-2c-0.2,0-0.4-0.2-0.4-0.4v0C9.9,31.8,10.1,31.6,10.3,31.6L10.3,31.6z M10.3,32.8h2v0.7h-2
	c-0.2,0-0.4-0.2-0.4-0.4v0C9.9,33,10.1,32.8,10.3,32.8L10.3,32.8z M10.3,29.3h2V30h-2c-0.2,0-0.4-0.2-0.4-0.4v0
	C9.9,29.4,10.1,29.3,10.3,29.3z"/>
<linearGradient id="SVGID_16_" gradientUnits="userSpaceOnUse" x1="15.4307" y1="39.5424" x2="20.8639" y2="39.5424">
	<stop  offset="0" style="stop-color:#A8A8A8"/>
	<stop  offset="1" style="stop-color:#EBEBEB"/>
</linearGradient>
<path fill-rule="evenodd" clip-rule="evenodd" fill="url(#SVGID_16_)" d="M16,35.9h2.2c0.4,0,0.8,0.3,0.9,0.7l0,0
	c0.1,0.4-0.1,0.7-0.5,0.7h-2.2c-0.4,0-0.8-0.3-0.9-0.7l0,0C15.4,36.2,15.6,35.9,16,35.9L16,35.9z M17.8,41.8H20
	c0.4,0,0.8,0.3,0.9,0.7l0,0c0.1,0.4-0.1,0.7-0.5,0.7h-2.2c-0.4,0-0.8-0.3-0.9-0.7l0,0C17.1,42.1,17.4,41.8,17.8,41.8L17.8,41.8z
	 M16.9,38.8h2.2c0.4,0,0.8,0.3,0.9,0.7l0,0c0.1,0.4-0.1,0.7-0.5,0.7h-2.2c-0.4,0-0.8-0.3-0.9-0.7l0,0C16.3,39.2,16.5,38.8,16.9,38.8
	z"/>
</svg>
