<?xml version="1.0" encoding="utf-8"?>
<!-- Generator: Adobe Illustrator 17.1.0, SVG Export Plug-In . SVG Version: 6.00 Build 0)  -->
<!DOCTYPE svg PUBLIC "-//W3C//DTD SVG 1.1//EN" "http://www.w3.org/Graphics/SVG/1.1/DTD/svg11.dtd">
<svg version="1.1" xmlns="http://www.w3.org/2000/svg" xmlns:xlink="http://www.w3.org/1999/xlink" x="0px" y="0px"
	 viewBox="0 0 27.8 249.6" enable-background="new 0 0 27.8 249.6" xml:space="preserve">
<g id="Line_Jack" display="none">
	<g display="inline">
		<g>
			<g>
				<path fill="#C6C8C9" d="M7.1,22.8l-5.7-9.9c-0.2-0.4-0.2-0.9,0-1.3l5.7-9.9c0.2-0.4,0.7-0.7,1.1-0.7h11.4c0.5,0,0.9,0.3,1.1,0.7
					l5.7,9.9c0.2,0.4,0.2,0.9,0,1.3l-5.7,9.9c-0.2,0.4-0.7,0.7-1.1,0.7H8.3C7.8,23.4,7.4,23.2,7.1,22.8z"/>
			</g>
			<g>
				<path fill="#F2F2F2" d="M4.7,18.6l-0.9-1.5c-1.7-3-1.7-6.7,0-9.7l0.9-1.5c1.7-3,4.9-4.9,8.4-4.9h1.7c3.5,0,6.7,1.8,8.4,4.9
					l0.9,1.5c1.7,3,1.7,6.7,0,9.7l-0.9,1.5c-1.7,3-4.9,4.9-8.4,4.9h-1.7C9.6,23.4,6.4,21.6,4.7,18.6z"/>
			</g>
			<circle fill="#D2D3D5" cx="14" cy="12.2" r="7.4"/>
			<g>
				<circle fill="#2C2C2C" cx="14" cy="12.2" r="6.2"/>
			</g>
		</g>
		<g>
			<path fill="#F1E285" d="M19.5,67.7l-1.1-1.1c-0.8-0.8-0.9-2-0.3-2.9l1.3-1.8c0.4-0.8,0.3-1.8-0.2-2.6l-2.8-4.2
				C15.8,54.4,14.9,54,14,54c-0.9,0-1.7,0.4-2.2,1.2l-2.9,4.2c-0.6,0.8-0.6,1.8-0.2,2.7l1.2,1.6c0.7,0.9,0.6,2.2-0.3,3l-1.1,1
				c-0.3,0.5-0.5,1-0.5,1.6c0,0.2,0.1,0.3,0.3,0.3h11.4c0.2,0,0.3-0.1,0.3-0.3v-0.1C20,68.6,19.8,68.1,19.5,67.7z"/>
			<path fill="none" stroke="#000000" stroke-width="3" stroke-linecap="round" stroke-miterlimit="10" d="M9.1,68.3"/>
			<rect x="8" y="86.7" fill="#F1E285" width="12" height="28.7"/>
			<rect x="8" y="74.8" fill="#F1E285" width="12" height="8.3"/>
			<rect x="8" y="221.6" fill="#1C75BD" width="12" height="27.5"/>
			<path fill="#949599" d="M25.9,163.5v11.4c0,0.6-0.4,1-1,1H3c-0.6,0-1-0.4-1-1v-11.4c0-0.6,0.4-1,1-1h21.9
				C25.5,162.5,25.9,162.9,25.9,163.5z"/>
			<path fill="#6D6E72" d="M24.7,175.9l-2.9,43.8c-0.1,1.1-0.9,1.9-2,1.9H8c-1.1,0-1.9-0.8-2-1.9l-2.9-43.8H24.7z"/>
			<path fill="#949599" d="M25.9,118.6v7.7c0,0.6-0.4,1-1,1H3c-0.6,0-1-0.4-1-1v-7.7c0-0.6,0.4-1,1-1h21.9
				C25.5,117.6,25.9,118.1,25.9,118.6z"/>
			<g>
				<path fill="#949599" d="M25.9,131v2.2c0,0.6-0.4,1-1,1H3c-0.6,0-1-0.4-1-1V131c0-0.6,0.4-1,1-1h21.9
					C25.5,130,25.9,130.5,25.9,131z"/>
				<path fill="#949599" d="M25.9,137.2v2.2c0,0.6-0.4,1-1,1H3c-0.6,0-1-0.4-1-1v-2.2c0-0.6,0.4-1,1-1h21.9
					C25.5,136.2,25.9,136.7,25.9,137.2z"/>
				<path fill="#949599" d="M25.9,143.4v2.2c0,0.6-0.4,1-1,1H3c-0.6,0-1-0.4-1-1v-2.2c0-0.6,0.4-1,1-1h21.9
					C25.5,142.4,25.9,142.8,25.9,143.4z"/>
				<path fill="#949599" d="M25.9,149.6v2.2c0,0.6-0.4,1-1,1H3c-0.6,0-1-0.4-1-1v-2.2c0-0.6,0.4-1,1-1h21.9
					C25.5,148.6,25.9,149,25.9,149.6z"/>
				<path fill="#949599" d="M25.9,155.7v2.2c0,0.6-0.4,1-1,1H3c-0.6,0-1-0.4-1-1v-2.2c0-0.6,0.4-1,1-1h21.9
					C25.5,154.7,25.9,155.2,25.9,155.7z"/>
			</g>
			<rect x="3.2" y="158.9" fill="#6D6E72" width="21.6" height="3.6"/>
			<rect x="3.2" y="152.8" fill="#6D6E72" width="21.6" height="2"/>
			<rect x="3.2" y="146.6" fill="#6D6E72" width="21.6" height="2"/>
			<rect x="3.2" y="140.4" fill="#6D6E72" width="21.6" height="2"/>
			<rect x="3.2" y="134.2" fill="#6D6E72" width="21.6" height="2"/>
			<rect x="3.2" y="127.4" fill="#6D6E72" width="21.6" height="2.6"/>
			<rect x="5.8" y="115.4" fill="#E7D65B" width="16.3" height="2.2"/>
			<rect x="8.5" y="69.5" width="10.9" height="5.2"/>
			<rect x="8.5" y="83.1" width="10.9" height="3.6"/>
		</g>
	</g>
</g>
<g id="Line_Jack_copy">
	<g>
		<path d="M19.7,1.1c0.5,0,0.9,0.3,1.1,0.7l5.7,9.9c0.2,0.4,0.2,0.9,0,1.3l-5.7,9.9c-0.2,0.4-0.7,0.7-1.1,0.7H8.3
			c-0.5,0-0.9-0.3-1.1-0.7l-5.7-9.9c-0.2-0.4-0.2-0.9,0-1.3l5.7-9.9c0.2-0.4,0.7-0.7,1.1-0.7H19.7 M19.7,0.1H8.3
			c-0.8,0-1.6,0.4-2,1.2l-5.7,9.9c-0.4,0.7-0.4,1.6,0,2.3l5.7,9.9c0.4,0.7,1.2,1.2,2,1.2h11.4c0.8,0,1.6-0.4,2-1.2l5.7-9.9
			c0.4-0.7,0.4-1.6,0-2.3l-5.7-9.9C21.2,0.5,20.5,0.1,19.7,0.1L19.7,0.1z"/>
	</g>
	<g>
		<g>
			<path d="M14.8,2.1c3.1,0,6,1.7,7.5,4.4l0.9,1.5c1.5,2.7,1.5,6,0,8.7l-0.9,1.5c-1.5,2.7-4.4,4.4-7.5,4.4h-1.7
				c-3.1,0-6-1.7-7.5-4.4l-0.9-1.5c-1.5-2.7-1.5-6,0-8.7l0.9-1.5c1.5-2.7,4.4-4.4,7.5-4.4H14.8 M14.8,1.1h-1.7
				c-3.5,0-6.7,1.8-8.4,4.9L3.8,7.4c-1.7,3-1.7,6.7,0,9.7l0.9,1.5c1.7,3,4.9,4.9,8.4,4.9h1.7c3.5,0,6.7-1.8,8.4-4.9l0.9-1.5
				c1.7-3,1.7-6.7,0-9.7l-0.9-1.5C21.5,2.9,18.3,1.1,14.8,1.1L14.8,1.1z"/>
		</g>
	</g>
	<circle cx="14" cy="12.2" r="7.4"/>
	<g>
		<path fill="#F1E285" stroke="#000000" stroke-miterlimit="10" d="M19.5,67.7l-1.1-1.1c-0.8-0.8-0.9-2-0.3-2.9l1.3-1.8
			c0.4-0.8,0.3-1.8-0.2-2.6l-2.8-4.2C15.8,54.4,14.9,54,14,54c-0.9,0-1.7,0.4-2.2,1.2l-2.9,4.2c-0.6,0.8-0.6,1.8-0.2,2.7l1.2,1.6
			c0.7,0.9,0.6,2.2-0.3,3l-1.1,1c-0.3,0.5-0.5,1-0.5,1.6c0,0.2,0.1,0.3,0.3,0.3h11.4c0.2,0,0.3-0.1,0.3-0.3v-0.1
			C20,68.6,19.8,68.1,19.5,67.7z"/>
		<path fill="none" stroke="#000000" stroke-linecap="round" stroke-miterlimit="10" d="M9.1,68.3"/>
		<rect x="8" y="86.7" fill="#F1E285" stroke="#000000" stroke-miterlimit="10" width="12" height="28.7"/>
		<rect x="8" y="74.8" fill="#F1E285" stroke="#000000" stroke-miterlimit="10" width="12" height="8.3"/>
		<rect x="8" y="221.6" fill="#1C75BD" stroke="#000000" stroke-miterlimit="10" width="12" height="27.5"/>
		<path fill="#949599" stroke="#000000" stroke-miterlimit="10" d="M25.9,163.5v11.4c0,0.6-0.4,1-1,1H3c-0.6,0-1-0.4-1-1v-11.4
			c0-0.6,0.4-1,1-1h21.9C25.5,162.5,25.9,162.9,25.9,163.5z"/>
		<path fill="#6D6E72" stroke="#000000" stroke-miterlimit="10" d="M24.7,175.9l-2.9,43.8c-0.1,1.1-0.9,1.9-2,1.9H8
			c-1.1,0-1.9-0.8-2-1.9l-2.9-43.8H24.7z"/>
		<path fill="#949599" stroke="#000000" stroke-miterlimit="10" d="M25.9,118.6v7.7c0,0.6-0.4,1-1,1H3c-0.6,0-1-0.4-1-1v-7.7
			c0-0.6,0.4-1,1-1h21.9C25.5,117.6,25.9,118.1,25.9,118.6z"/>
		<g>
			<path fill="#949599" stroke="#000000" stroke-miterlimit="10" d="M25.9,131v2.2c0,0.6-0.4,1-1,1H3c-0.6,0-1-0.4-1-1V131
				c0-0.6,0.4-1,1-1h21.9C25.5,130,25.9,130.5,25.9,131z"/>
			<path fill="#949599" stroke="#000000" stroke-miterlimit="10" d="M25.9,137.2v2.2c0,0.6-0.4,1-1,1H3c-0.6,0-1-0.4-1-1v-2.2
				c0-0.6,0.4-1,1-1h21.9C25.5,136.2,25.9,136.7,25.9,137.2z"/>
			<path fill="#949599" stroke="#000000" stroke-miterlimit="10" d="M25.9,143.4v2.2c0,0.6-0.4,1-1,1H3c-0.6,0-1-0.4-1-1v-2.2
				c0-0.6,0.4-1,1-1h21.9C25.5,142.4,25.9,142.8,25.9,143.4z"/>
			<path fill="#949599" stroke="#000000" stroke-miterlimit="10" d="M25.9,149.6v2.2c0,0.6-0.4,1-1,1H3c-0.6,0-1-0.4-1-1v-2.2
				c0-0.6,0.4-1,1-1h21.9C25.5,148.6,25.9,149,25.9,149.6z"/>
			<path fill="#949599" stroke="#000000" stroke-miterlimit="10" d="M25.9,155.7v2.2c0,0.6-0.4,1-1,1H3c-0.6,0-1-0.4-1-1v-2.2
				c0-0.6,0.4-1,1-1h21.9C25.5,154.7,25.9,155.2,25.9,155.7z"/>
		</g>
		<rect x="3.2" y="158.9" fill="#6D6E72" stroke="#000000" stroke-miterlimit="10" width="21.6" height="3.6"/>
		<rect x="3.2" y="152.8" fill="#6D6E72" stroke="#000000" stroke-miterlimit="10" width="21.6" height="2"/>
		<rect x="3.2" y="146.6" fill="#6D6E72" stroke="#000000" stroke-miterlimit="10" width="21.6" height="2"/>
		<rect x="3.2" y="140.4" fill="#6D6E72" stroke="#000000" stroke-miterlimit="10" width="21.6" height="2"/>
		<rect x="3.2" y="134.2" fill="#6D6E72" stroke="#000000" stroke-miterlimit="10" width="21.6" height="2"/>
		<rect x="3.2" y="127.4" fill="#6D6E72" stroke="#000000" stroke-miterlimit="10" width="21.6" height="2.6"/>
		<rect x="5.8" y="115.4" fill="#E7D65B" stroke="#000000" stroke-miterlimit="10" width="16.3" height="2.2"/>
		<rect x="8.5" y="69.5" stroke="#000000" stroke-miterlimit="10" width="10.9" height="5.2"/>
		<rect x="8.5" y="83.1" stroke="#000000" stroke-miterlimit="10" width="10.9" height="3.6"/>
	</g>
</g>
</svg>
