<?xml version="1.0" encoding="utf-8"?>
<!-- Generator: Adobe Illustrator 17.1.0, SVG Export Plug-In . SVG Version: 6.00 Build 0)  -->
<!DOCTYPE svg PUBLIC "-//W3C//DTD SVG 1.1//EN" "http://www.w3.org/Graphics/SVG/1.1/DTD/svg11.dtd">
<svg version="1.1" xmlns="http://www.w3.org/2000/svg" xmlns:xlink="http://www.w3.org/1999/xlink" x="0px" y="0px"
	 viewBox="0 0 27.7 192.5" enable-background="new 0 0 27.7 192.5" xml:space="preserve">
<g id="Line_Jack" display="none">
	<g display="inline">
		<g>
			<g>
				<path fill="#C6C8C9" d="M7,22.9l-5.7-9.9c-0.2-0.4-0.2-0.9,0-1.3L7,1.9c0.2-0.4,0.7-0.7,1.1-0.7h11.4c0.5,0,0.9,0.3,1.1,0.7
					l5.7,9.9c0.2,0.4,0.2,0.9,0,1.3l-5.7,9.9c-0.2,0.4-0.7,0.7-1.1,0.7H8.2C7.7,23.6,7.3,23.3,7,22.9z"/>
			</g>
			<g>
				<path fill="#F2F2F2" d="M4.6,18.7l-0.9-1.5c-1.7-3-1.7-6.7,0-9.7l0.9-1.5c1.7-3,4.9-4.9,8.4-4.9h1.7c3.5,0,6.7,1.8,8.4,4.9
					L24,7.6c1.7,3,1.7,6.7,0,9.7l-0.9,1.5c-1.7,3-4.9,4.9-8.4,4.9H13C9.5,23.6,6.3,21.7,4.6,18.7z"/>
			</g>
			<circle fill="#D2D3D5" cx="13.9" cy="12.4" r="7.4"/>
			<g>
				<circle fill="#2C2C2C" cx="13.9" cy="12.4" r="6.2"/>
			</g>
		</g>
		<g>
			<path fill="#F1E285" d="M19.4,67.8l-1.1-1.1c-0.8-0.8-0.9-2-0.3-2.9l1.3-1.8c0.4-0.8,0.3-1.8-0.2-2.6l-2.8-4.2
				c-0.5-0.7-1.3-1.2-2.2-1.2c-0.9,0-1.7,0.4-2.2,1.2l-2.9,4.2c-0.6,0.8-0.6,1.8-0.2,2.7l1.2,1.6c0.7,0.9,0.6,2.2-0.3,3l-1.1,1
				c-0.3,0.5-0.5,1-0.5,1.6c0,0.2,0.1,0.3,0.3,0.3h11.4c0.2,0,0.3-0.1,0.3-0.3v-0.1C19.9,68.8,19.7,68.3,19.4,67.8z"/>
			<path fill="none" stroke="#000000" stroke-width="3" stroke-linecap="round" stroke-miterlimit="10" d="M9,68.5"/>
			<rect x="7.9" y="86.9" fill="#F1E285" width="12" height="28.7"/>
			<rect x="7.9" y="75" fill="#F1E285" width="12" height="8.3"/>
			<rect x="7.9" y="221.8" fill="#1C75BD" width="12" height="27.5"/>
			<path fill="#949599" d="M25.8,163.7v11.4c0,0.6-0.4,1-1,1H2.9c-0.6,0-1-0.4-1-1v-11.4c0-0.6,0.4-1,1-1h21.9
				C25.4,162.7,25.8,163.1,25.8,163.7z"/>
			<path fill="#6D6E72" d="M24.7,176.1l-2.9,43.8c-0.1,1.1-0.9,1.9-2,1.9H7.9c-1.1,0-1.9-0.8-2-1.9l-2.9-43.8H24.7z"/>
			<path fill="#949599" d="M25.8,118.8v7.8c0,0.6-0.4,1-1,1H2.9c-0.6,0-1-0.4-1-1v-7.8c0-0.6,0.4-1,1-1h21.9
				C25.4,117.8,25.8,118.3,25.8,118.8z"/>
			<g>
				<path fill="#949599" d="M25.8,131.2v2.2c0,0.6-0.4,1-1,1H2.9c-0.6,0-1-0.4-1-1v-2.2c0-0.6,0.4-1,1-1h21.9
					C25.4,130.2,25.8,130.7,25.8,131.2z"/>
				<path fill="#949599" d="M25.8,137.4v2.2c0,0.6-0.4,1-1,1H2.9c-0.6,0-1-0.4-1-1v-2.2c0-0.6,0.4-1,1-1h21.9
					C25.4,136.4,25.8,136.8,25.8,137.4z"/>
				<path fill="#949599" d="M25.8,143.6v2.2c0,0.6-0.4,1-1,1H2.9c-0.6,0-1-0.4-1-1v-2.2c0-0.6,0.4-1,1-1h21.9
					C25.4,142.6,25.8,143,25.8,143.6z"/>
				<path fill="#949599" d="M25.8,149.7v2.2c0,0.6-0.4,1-1,1H2.9c-0.6,0-1-0.4-1-1v-2.2c0-0.6,0.4-1,1-1h21.9
					C25.4,148.7,25.8,149.2,25.8,149.7z"/>
				<path fill="#949599" d="M25.8,155.9v2.2c0,0.6-0.4,1-1,1H2.9c-0.6,0-1-0.4-1-1v-2.2c0-0.6,0.4-1,1-1h21.9
					C25.4,154.9,25.8,155.3,25.8,155.9z"/>
			</g>
			<rect x="3.1" y="159.1" fill="#6D6E72" width="21.6" height="3.6"/>
			<rect x="3.1" y="152.9" fill="#6D6E72" width="21.6" height="2"/>
			<rect x="3.1" y="146.8" fill="#6D6E72" width="21.6" height="2"/>
			<rect x="3.1" y="140.6" fill="#6D6E72" width="21.6" height="2"/>
			<rect x="3.1" y="134.4" fill="#6D6E72" width="21.6" height="2"/>
			<rect x="3.1" y="127.6" fill="#6D6E72" width="21.6" height="2.6"/>
			<rect x="5.7" y="115.6" fill="#E7D65B" width="16.3" height="2.2"/>
			<rect x="8.4" y="69.7" width="10.9" height="5.2"/>
			<rect x="8.4" y="83.3" width="10.9" height="3.6"/>
		</g>
	</g>
</g>
<g id="Line_Jack_copy">
	<g>
		<path d="M19.6,1.2c0.5,0,0.9,0.3,1.1,0.7l5.7,9.9c0.2,0.4,0.2,0.9,0,1.3l-5.7,9.9c-0.2,0.4-0.7,0.7-1.1,0.7H8.2
			c-0.5,0-0.9-0.3-1.1-0.7l-5.7-9.9c-0.2-0.4-0.2-0.9,0-1.3L7,1.9c0.2-0.4,0.7-0.7,1.1-0.7H19.6 M19.6,0.2H8.2c-0.8,0-1.6,0.4-2,1.2
			l-5.7,9.9c-0.4,0.7-0.4,1.6,0,2.3l5.7,9.9c0.4,0.7,1.2,1.2,2,1.2h11.4c0.8,0,1.6-0.4,2-1.2l5.7-9.9c0.4-0.7,0.4-1.6,0-2.3
			l-5.7-9.9C21.2,0.7,20.4,0.2,19.6,0.2L19.6,0.2z"/>
	</g>
	<g>
		<g>
			<path d="M14.7,2.2c3.1,0,6,1.7,7.5,4.4l0.9,1.5c1.5,2.7,1.5,6,0,8.7l-0.9,1.5c-1.5,2.7-4.4,4.4-7.5,4.4H13c-3.1,0-6-1.7-7.5-4.4
				l-0.9-1.5c-1.5-2.7-1.5-6,0-8.7l0.9-1.5C7,3.9,9.9,2.2,13,2.2H14.7 M14.7,1.2H13c-3.5,0-6.7,1.8-8.4,4.9L3.8,7.6
				c-1.7,3-1.7,6.7,0,9.7l0.9,1.5c1.7,3,4.9,4.9,8.4,4.9h1.7c3.5,0,6.7-1.8,8.4-4.9l0.9-1.5c1.7-3,1.7-6.7,0-9.7l-0.9-1.5
				C21.4,3.1,18.2,1.2,14.7,1.2L14.7,1.2z"/>
		</g>
	</g>
	<circle cx="13.9" cy="12.4" r="7.4"/>
	<path fill="#F1E285" stroke="#000000" stroke-miterlimit="10" d="M19.4,67.8l-1.1-1.1c-0.8-0.8-0.9-2-0.3-2.9l1.3-1.8
		c0.4-0.8,0.3-1.8-0.2-2.6l-2.8-4.2c-0.5-0.7-1.3-1.2-2.2-1.2c-0.9,0-1.7,0.4-2.2,1.2l-2.9,4.2c-0.6,0.8-0.6,1.8-0.2,2.7l1.2,1.6
		c0.7,0.9,0.6,2.2-0.3,3l-1.1,1c-0.3,0.5-0.5,1-0.5,1.6c0,0.2,0.1,0.3,0.3,0.3h11.4c0.2,0,0.3-0.1,0.3-0.3v-0.1
		C19.9,68.8,19.7,68.3,19.4,67.8z"/>
	<path fill="none" stroke="#000000" stroke-linecap="round" stroke-miterlimit="10" d="M9,68.5"/>
	<rect x="7.9" y="86.9" fill="#F1E285" stroke="#000000" stroke-miterlimit="10" width="12" height="18.7"/>
	<rect x="7.9" y="75" fill="#F1E285" stroke="#000000" stroke-miterlimit="10" width="12" height="8.3"/>
	<path fill="#949599" stroke="#000000" stroke-miterlimit="10" d="M25.8,153.6v11.4c0,0.6-0.4,1-1,1H2.9c-0.6,0-1-0.4-1-1v-11.4
		c0-0.6,0.4-1,1-1h21.9C25.4,152.6,25.8,153.1,25.8,153.6z"/>
	<path fill="#6D6E72" stroke="#000000" stroke-miterlimit="10" d="M24.7,166.1l-2.9,23.8c-0.1,1.1-0.9,1.9-2,1.9H7.9
		c-1.1,0-1.9-0.8-2-1.9l-2.9-23.8H24.7z"/>
	<path fill="#949599" stroke="#000000" stroke-miterlimit="10" d="M25.8,108.8v7.8c0,0.6-0.4,1-1,1H2.9c-0.6,0-1-0.4-1-1v-7.8
		c0-0.6,0.4-1,1-1h21.9C25.4,107.8,25.8,108.3,25.8,108.8z"/>
	<g>
		<path fill="#949599" stroke="#000000" stroke-miterlimit="10" d="M25.8,121.2v2.2c0,0.6-0.4,1-1,1H2.9c-0.6,0-1-0.4-1-1v-2.2
			c0-0.6,0.4-1,1-1h21.9C25.4,120.2,25.8,120.6,25.8,121.2z"/>
		<path fill="#949599" stroke="#000000" stroke-miterlimit="10" d="M25.8,127.4v2.2c0,0.6-0.4,1-1,1H2.9c-0.6,0-1-0.4-1-1v-2.2
			c0-0.6,0.4-1,1-1h21.9C25.4,126.4,25.8,126.8,25.8,127.4z"/>
		<path fill="#949599" stroke="#000000" stroke-miterlimit="10" d="M25.8,133.5v2.2c0,0.6-0.4,1-1,1H2.9c-0.6,0-1-0.4-1-1v-2.2
			c0-0.6,0.4-1,1-1h21.9C25.4,132.5,25.8,133,25.8,133.5z"/>
		<path fill="#949599" stroke="#000000" stroke-miterlimit="10" d="M25.8,139.7v2.2c0,0.6-0.4,1-1,1H2.9c-0.6,0-1-0.4-1-1v-2.2
			c0-0.6,0.4-1,1-1h21.9C25.4,138.7,25.8,139.2,25.8,139.7z"/>
		<path fill="#949599" stroke="#000000" stroke-miterlimit="10" d="M25.8,145.9v2.2c0,0.6-0.4,1-1,1H2.9c-0.6,0-1-0.4-1-1v-2.2
			c0-0.6,0.4-1,1-1h21.9C25.4,144.9,25.8,145.3,25.8,145.9z"/>
	</g>
	<rect x="3.1" y="149.1" fill="#6D6E72" stroke="#000000" stroke-miterlimit="10" width="21.6" height="3.6"/>
	<rect x="3.1" y="142.9" fill="#6D6E72" stroke="#000000" stroke-miterlimit="10" width="21.6" height="2"/>
	<rect x="3.1" y="136.7" fill="#6D6E72" stroke="#000000" stroke-miterlimit="10" width="21.6" height="2"/>
	<rect x="3.1" y="130.6" fill="#6D6E72" stroke="#000000" stroke-miterlimit="10" width="21.6" height="2"/>
	<rect x="3.1" y="124.4" fill="#6D6E72" stroke="#000000" stroke-miterlimit="10" width="21.6" height="2"/>
	<rect x="3.1" y="117.6" fill="#6D6E72" stroke="#000000" stroke-miterlimit="10" width="21.6" height="2.6"/>
	<rect x="5.7" y="105.6" fill="#E7D65B" stroke="#000000" stroke-miterlimit="10" width="16.3" height="2.2"/>
	<rect x="8.4" y="69.7" stroke="#000000" stroke-miterlimit="10" width="10.9" height="5.2"/>
	<rect x="8.4" y="83.3" stroke="#000000" stroke-miterlimit="10" width="10.9" height="3.6"/>
</g>
</svg>
