<?xml version="1.0" encoding="utf-8"?>
<!-- Generator: Adobe Illustrator 17.1.0, SVG Export Plug-In . SVG Version: 6.00 Build 0)  -->
<!DOCTYPE svg PUBLIC "-//W3C//DTD SVG 1.1//EN" "http://www.w3.org/Graphics/SVG/1.1/DTD/svg11.dtd">
<svg version="1.1" xmlns="http://www.w3.org/2000/svg" xmlns:xlink="http://www.w3.org/1999/xlink" x="0px" y="0px"
	 viewBox="0 0 15 244" enable-background="new 0 0 15 244" xml:space="preserve">
<g id="_x33_.5mm_Jack" display="none">
	<g display="inline">
		<g>
			<circle fill="#414143" cx="7.5" cy="6.7" r="6.1"/>
			<circle fill="#D2D3D5" cx="7.5" cy="6.7" r="4.6"/>
			<ellipse fill="#2C2C2C" cx="7.5" cy="6.7" rx="2.9" ry="2.9"/>
		</g>
		<g>
			<path fill="#F2F2F2" d="M10.1,54.8l-0.5-0.5C9.2,54,9.2,53.4,9.5,53l0.6-0.8c0.2-0.4,0.1-0.9-0.1-1.2l-1.3-2
				c-0.2-0.4-0.6-0.6-1.1-0.6c-0.4,0-0.8,0.2-1,0.5l-1.4,2c-0.3,0.4-0.3,0.9-0.1,1.3l0.6,0.8c0.3,0.4,0.3,1.1-0.1,1.4L5,54.8
				c-0.2,0.2-0.3,0.5-0.3,0.8c0,0.1,0.1,0.1,0.1,0.1h5.3c0.1,0,0.1-0.1,0.1-0.1v0C10.3,55.3,10.2,55,10.1,54.8z"/>
			<path fill="none" stroke="#000000" stroke-width="0.7" stroke-miterlimit="10" d="M5.2,55.1"/>
			<rect x="4.7" y="62.3" fill="#F2F2F2" width="5.6" height="12.1"/>
			<rect x="4.7" y="56.8" fill="#F2F2F2" width="5.6" height="4.3"/>
			<rect x="4" y="136.6" fill="#1C75BD" width="7" height="107"/>
			<path fill="#949599" d="M14.5,102.4v6.9c0,0.3-0.2,0.5-0.5,0.5H1c-0.3,0-0.5-0.2-0.5-0.5v-6.9c0-0.3,0.2-0.5,0.5-0.5h13
				C14.3,101.9,14.5,102.2,14.5,102.4z"/>
			<path fill="#6D6E72" d="M13.8,109.8l-1.7,25.7c0,0.6-0.6,1.1-1.2,1.1H4c-0.6,0-1.1-0.5-1.2-1.1l-1.7-25.7H13.8z"/>
			<path fill="#949599" d="M14.5,76.5v4.4c0,0.3-0.2,0.5-0.5,0.5H1c-0.3,0-0.5-0.2-0.5-0.5v-4.4C0.5,76.2,0.7,76,1,76h13
				C14.3,76,14.5,76.2,14.5,76.5z"/>
			<rect x="1.2" y="81.4" fill="#6D6E72" width="12.7" height="20.6"/>
			<g>
				<path fill="#949599" d="M14.5,83.4v1.5c0,0.3-0.2,0.5-0.5,0.5H1c-0.3,0-0.5-0.2-0.5-0.5v-1.5c0-0.3,0.2-0.5,0.5-0.5h13
					C14.3,82.9,14.5,83.1,14.5,83.4z"/>
				<path fill="#949599" d="M14.5,87v1.5c0,0.3-0.2,0.5-0.5,0.5H1c-0.3,0-0.5-0.2-0.5-0.5V87c0-0.3,0.2-0.5,0.5-0.5h13
					C14.3,86.5,14.5,86.8,14.5,87z"/>
				<path fill="#949599" d="M14.5,90.7v1.5c0,0.3-0.2,0.5-0.5,0.5H1c-0.3,0-0.5-0.2-0.5-0.5v-1.5c0-0.3,0.2-0.5,0.5-0.5h13
					C14.3,90.2,14.5,90.4,14.5,90.7z"/>
				<path fill="#949599" d="M14.5,94.3v1.5c0,0.3-0.2,0.5-0.5,0.5H1c-0.3,0-0.5-0.2-0.5-0.5v-1.5c0-0.3,0.2-0.5,0.5-0.5h13
					C14.3,93.8,14.5,94,14.5,94.3z"/>
				<path fill="#949599" d="M14.5,97.9v1.5c0,0.3-0.2,0.5-0.5,0.5H1c-0.3,0-0.5-0.2-0.5-0.5v-1.5c0-0.3,0.2-0.5,0.5-0.5h13
					C14.3,97.4,14.5,97.6,14.5,97.9z"/>
			</g>
			<rect x="1.5" y="74.4" fill="#C6C8C9" width="12" height="1.6"/>
			<rect x="4.9" y="55.7" width="5.2" height="1.1"/>
			<rect x="4.9" y="61.1" width="5.2" height="1.1"/>
		</g>
	</g>
</g>
<g id="_x33_.5mm_Jack_copy">
	<circle fill="none" stroke="#000000" stroke-miterlimit="10" cx="7.5" cy="6.7" r="6.1"/>
	<ellipse cx="7.5" cy="6.7" rx="3.6" ry="3.7"/>
	<g>
		<path fill="#F2F2F2" stroke="#000000" stroke-miterlimit="10" d="M10.1,54.8l-0.5-0.5C9.2,54,9.2,53.4,9.5,53l0.6-0.8
			c0.2-0.4,0.1-0.9-0.1-1.2l-1.3-2c-0.2-0.4-0.6-0.6-1.1-0.6c-0.4,0-0.8,0.2-1,0.5l-1.4,2c-0.3,0.4-0.3,0.9-0.1,1.3l0.6,0.8
			c0.3,0.4,0.3,1.1-0.1,1.4L5,54.8c-0.2,0.2-0.3,0.5-0.3,0.8c0,0.1,0.1,0.1,0.1,0.1h5.3c0.1,0,0.1-0.1,0.1-0.1v0
			C10.3,55.3,10.2,55,10.1,54.8z"/>
		<path fill="none" stroke="#000000" stroke-width="0.7" stroke-miterlimit="10" d="M5.2,55.1"/>
		<rect x="4.7" y="62.3" fill="#F2F2F2" stroke="#000000" stroke-miterlimit="10" width="5.6" height="12.1"/>
		<rect x="4.7" y="56.8" fill="#F2F2F2" stroke="#000000" stroke-miterlimit="10" width="5.6" height="4.3"/>
		<rect x="4" y="136.6" fill="#1C75BD" stroke="#000000" stroke-miterlimit="10" width="7" height="107"/>
		<path fill="#949599" stroke="#000000" stroke-miterlimit="10" d="M14.5,102.4v6.9c0,0.3-0.2,0.5-0.5,0.5H1c-0.3,0-0.5-0.2-0.5-0.5
			v-6.9c0-0.3,0.2-0.5,0.5-0.5h13C14.3,101.9,14.5,102.2,14.5,102.4z"/>
		<path fill="#6D6E72" stroke="#000000" stroke-miterlimit="10" d="M13.8,109.8l-1.7,25.7c0,0.6-0.6,1.1-1.2,1.1H4
			c-0.6,0-1.1-0.5-1.2-1.1l-1.7-25.7H13.8z"/>
		<path fill="#949599" stroke="#000000" stroke-miterlimit="10" d="M14.5,76.5v4.4c0,0.3-0.2,0.5-0.5,0.5H1c-0.3,0-0.5-0.2-0.5-0.5
			v-4.4C0.5,76.2,0.7,76,1,76h13C14.3,76,14.5,76.2,14.5,76.5z"/>
		<rect x="1.2" y="81.4" fill="#6D6E72" stroke="#000000" stroke-miterlimit="10" width="12.7" height="20.6"/>
		<g>
			<path fill="#949599" stroke="#000000" stroke-miterlimit="10" d="M14.5,83.4v1.5c0,0.3-0.2,0.5-0.5,0.5H1c-0.3,0-0.5-0.2-0.5-0.5
				v-1.5c0-0.3,0.2-0.5,0.5-0.5h13C14.3,82.9,14.5,83.1,14.5,83.4z"/>
			<path fill="#949599" stroke="#000000" stroke-miterlimit="10" d="M14.5,87v1.5c0,0.3-0.2,0.5-0.5,0.5H1c-0.3,0-0.5-0.2-0.5-0.5
				V87c0-0.3,0.2-0.5,0.5-0.5h13C14.3,86.5,14.5,86.8,14.5,87z"/>
			<path fill="#949599" stroke="#000000" stroke-miterlimit="10" d="M14.5,90.7v1.5c0,0.3-0.2,0.5-0.5,0.5H1c-0.3,0-0.5-0.2-0.5-0.5
				v-1.5c0-0.3,0.2-0.5,0.5-0.5h13C14.3,90.2,14.5,90.4,14.5,90.7z"/>
			<path fill="#949599" stroke="#000000" stroke-miterlimit="10" d="M14.5,94.3v1.5c0,0.3-0.2,0.5-0.5,0.5H1c-0.3,0-0.5-0.2-0.5-0.5
				v-1.5c0-0.3,0.2-0.5,0.5-0.5h13C14.3,93.8,14.5,94,14.5,94.3z"/>
			<path fill="#949599" stroke="#000000" stroke-miterlimit="10" d="M14.5,97.9v1.5c0,0.3-0.2,0.5-0.5,0.5H1c-0.3,0-0.5-0.2-0.5-0.5
				v-1.5c0-0.3,0.2-0.5,0.5-0.5h13C14.3,97.4,14.5,97.6,14.5,97.9z"/>
		</g>
		<rect x="1.5" y="74.4" fill="#C6C8C9" stroke="#000000" stroke-miterlimit="10" width="12" height="1.6"/>
		<rect x="4.9" y="55.7" stroke="#000000" stroke-miterlimit="10" width="5.2" height="1.1"/>
		<rect x="4.9" y="61.1" stroke="#000000" stroke-miterlimit="10" width="5.2" height="1.1"/>
	</g>
</g>
</svg>
