<?xml version="1.0" encoding="utf-8"?>
<!-- Generator: Adobe Illustrator 17.1.0, SVG Export Plug-In . SVG Version: 6.00 Build 0)  -->
<!DOCTYPE svg PUBLIC "-//W3C//DTD SVG 1.1//EN" "http://www.w3.org/Graphics/SVG/1.1/DTD/svg11.dtd">
<svg version="1.1" xmlns="http://www.w3.org/2000/svg" xmlns:xlink="http://www.w3.org/1999/xlink" x="0px" y="0px"
	 viewBox="0 0 15.5 186.7" enable-background="new 0 0 15.5 186.7" xml:space="preserve">
<g id="_x33_.5mm_Jack" display="none">
	<g display="inline">
		<circle fill="#414143" cx="7.8" cy="6.7" r="6.1"/>
		<circle fill="#D2D3D5" cx="7.8" cy="6.7" r="4.6"/>
		<ellipse fill="#2C2C2C" cx="7.8" cy="6.7" rx="2.9" ry="2.9"/>
	</g>
	<path display="inline" fill="#F2F2F2" d="M10.4,54.9l-0.5-0.5C9.5,54,9.4,53.4,9.7,53l0.6-0.8c0.2-0.4,0.1-0.9-0.1-1.2l-1.3-2
		c-0.2-0.4-0.6-0.6-1.1-0.6c-0.4,0-0.8,0.2-1,0.5l-1.4,2c-0.3,0.4-0.3,0.9-0.1,1.3L5.9,53c0.3,0.4,0.3,1.1-0.1,1.4l-0.5,0.4
		C5.1,55.1,5,55.3,5,55.6c0,0.1,0.1,0.1,0.1,0.1h5.3c0.1,0,0.1-0.1,0.1-0.1v0C10.6,55.3,10.5,55.1,10.4,54.9z"/>
	<path display="inline" fill="none" stroke="#000000" stroke-width="0.7" stroke-miterlimit="10" d="M5.5,55.2"/>
	<rect x="5" y="62.3" display="inline" fill="#F2F2F2" width="5.6" height="12.1"/>
	<rect x="5" y="56.9" display="inline" fill="#F2F2F2" width="5.6" height="4.3"/>
	<rect x="4.3" y="136.6" display="inline" fill="#1C75BD" width="7" height="107"/>
	<path display="inline" fill="#949599" d="M14.8,102.5v6.9c0,0.3-0.2,0.5-0.5,0.5h-13c-0.3,0-0.5-0.2-0.5-0.5v-6.9
		c0-0.3,0.2-0.5,0.5-0.5h13C14.6,102,14.8,102.2,14.8,102.5z"/>
	<path display="inline" fill="#6D6E72" d="M14.1,109.9l-1.7,25.7c0,0.6-0.6,1.1-1.2,1.1H4.3c-0.6,0-1.1-0.5-1.2-1.1l-1.7-25.7H14.1z
		"/>
	<path display="inline" fill="#949599" d="M14.8,76.5v4.4c0,0.3-0.2,0.5-0.5,0.5h-13c-0.3,0-0.5-0.2-0.5-0.5v-4.4
		C0.8,76.2,1,76,1.3,76h13C14.6,76,14.8,76.2,14.8,76.5z"/>
	<rect x="1.5" y="81.4" display="inline" fill="#6D6E72" width="12.7" height="20.6"/>
	<g display="inline">
		<path fill="#949599" d="M14.8,83.5v1.5c0,0.3-0.2,0.5-0.5,0.5h-13c-0.3,0-0.5-0.2-0.5-0.5v-1.5C0.8,83.2,1,83,1.3,83h13
			C14.6,83,14.8,83.2,14.8,83.5z"/>
		<path fill="#949599" d="M14.8,87.1v1.5c0,0.3-0.2,0.5-0.5,0.5h-13c-0.3,0-0.5-0.2-0.5-0.5v-1.5c0-0.3,0.2-0.5,0.5-0.5h13
			C14.6,86.6,14.8,86.8,14.8,87.1z"/>
		<path fill="#949599" d="M14.8,90.7v1.5c0,0.3-0.2,0.5-0.5,0.5h-13c-0.3,0-0.5-0.2-0.5-0.5v-1.5c0-0.3,0.2-0.5,0.5-0.5h13
			C14.6,90.2,14.8,90.4,14.8,90.7z"/>
		<path fill="#949599" d="M14.8,94.3v1.5c0,0.3-0.2,0.5-0.5,0.5h-13c-0.3,0-0.5-0.2-0.5-0.5v-1.5c0-0.3,0.2-0.5,0.5-0.5h13
			C14.6,93.8,14.8,94,14.8,94.3z"/>
		<path fill="#949599" d="M14.8,97.9v1.5c0,0.3-0.2,0.5-0.5,0.5h-13c-0.3,0-0.5-0.2-0.5-0.5v-1.5c0-0.3,0.2-0.5,0.5-0.5h13
			C14.6,97.4,14.8,97.7,14.8,97.9z"/>
	</g>
	<rect x="1.8" y="74.4" display="inline" fill="#C6C8C9" width="12" height="1.6"/>
	<rect x="5.2" y="55.7" display="inline" width="5.2" height="1.1"/>
	<rect x="5.2" y="61.2" display="inline" width="5.2" height="1.1"/>
</g>
<g id="_x33_.5mm_Jack_copy">
	<circle fill="none" stroke="#000000" stroke-miterlimit="10" cx="7.8" cy="6.7" r="6.1"/>
	<ellipse cx="7.8" cy="6.7" rx="3.6" ry="3.7"/>
	<g>
		<path fill="#F2F2F2" stroke="#000000" stroke-miterlimit="10" d="M10.4,54.9l-0.5-0.5C9.5,54,9.4,53.4,9.7,53l0.6-0.8
			c0.2-0.4,0.1-0.9-0.1-1.2l-1.3-2c-0.2-0.4-0.6-0.6-1.1-0.6c-0.4,0-0.8,0.2-1,0.5l-1.4,2c-0.3,0.4-0.3,0.9-0.1,1.3L5.9,53
			c0.3,0.4,0.3,1.1-0.1,1.4l-0.5,0.4C5.1,55.1,5,55.3,5,55.6c0,0.1,0.1,0.1,0.1,0.1h5.3c0.1,0,0.1-0.1,0.1-0.1v0
			C10.6,55.3,10.5,55.1,10.4,54.9z"/>
		<path fill="none" stroke="#000000" stroke-width="0.7" stroke-miterlimit="10" d="M5.5,55.2"/>
		<rect x="5" y="62.3" fill="#F2F2F2" stroke="#000000" stroke-miterlimit="10" width="5.6" height="12.1"/>
		<rect x="5" y="56.9" fill="#F2F2F2" stroke="#000000" stroke-miterlimit="10" width="5.6" height="4.3"/>
		<path fill="#949599" stroke="#000000" stroke-miterlimit="10" d="M14.8,102.5v6.9c0,0.3-0.2,0.5-0.5,0.5h-13
			c-0.3,0-0.5-0.2-0.5-0.5v-6.9c0-0.3,0.2-0.5,0.5-0.5h13C14.6,102,14.8,102.2,14.8,102.5z"/>
		<path fill="#6D6E72" stroke="#000000" stroke-miterlimit="10" d="M14.1,109.9l-1.7,25.7c0,0.6-0.6,1.1-1.2,1.1H4.3
			c-0.6,0-1.1-0.5-1.2-1.1l-1.7-25.7H14.1z"/>
		<path fill="#949599" stroke="#000000" stroke-miterlimit="10" d="M14.8,76.5v4.4c0,0.3-0.2,0.5-0.5,0.5h-13
			c-0.3,0-0.5-0.2-0.5-0.5v-4.4C0.8,76.2,1,76,1.3,76h13C14.6,76,14.8,76.2,14.8,76.5z"/>
		<rect x="1.5" y="81.4" fill="#6D6E72" stroke="#000000" stroke-miterlimit="10" width="12.7" height="20.6"/>
		<g>
			<path fill="#949599" stroke="#000000" stroke-miterlimit="10" d="M14.8,83.5v1.5c0,0.3-0.2,0.5-0.5,0.5h-13
				c-0.3,0-0.5-0.2-0.5-0.5v-1.5C0.8,83.2,1,83,1.3,83h13C14.6,83,14.8,83.2,14.8,83.5z"/>
			<path fill="#949599" stroke="#000000" stroke-miterlimit="10" d="M14.8,87.1v1.5c0,0.3-0.2,0.5-0.5,0.5h-13
				c-0.3,0-0.5-0.2-0.5-0.5v-1.5c0-0.3,0.2-0.5,0.5-0.5h13C14.6,86.6,14.8,86.8,14.8,87.1z"/>
			<path fill="#949599" stroke="#000000" stroke-miterlimit="10" d="M14.8,90.7v1.5c0,0.3-0.2,0.5-0.5,0.5h-13
				c-0.3,0-0.5-0.2-0.5-0.5v-1.5c0-0.3,0.2-0.5,0.5-0.5h13C14.6,90.2,14.8,90.4,14.8,90.7z"/>
			<path fill="#949599" stroke="#000000" stroke-miterlimit="10" d="M14.8,94.3v1.5c0,0.3-0.2,0.5-0.5,0.5h-13
				c-0.3,0-0.5-0.2-0.5-0.5v-1.5c0-0.3,0.2-0.5,0.5-0.5h13C14.6,93.8,14.8,94,14.8,94.3z"/>
			<path fill="#949599" stroke="#000000" stroke-miterlimit="10" d="M14.8,97.9v1.5c0,0.3-0.2,0.5-0.5,0.5h-13
				c-0.3,0-0.5-0.2-0.5-0.5v-1.5c0-0.3,0.2-0.5,0.5-0.5h13C14.6,97.4,14.8,97.7,14.8,97.9z"/>
		</g>
		<rect x="1.8" y="74.4" fill="#C6C8C9" stroke="#000000" stroke-miterlimit="10" width="12" height="1.6"/>
		<rect x="5.2" y="55.7" stroke="#000000" stroke-miterlimit="10" width="5.2" height="1.1"/>
		<rect x="5.2" y="61.2" stroke="#000000" stroke-miterlimit="10" width="5.2" height="1.1"/>
	</g>
	<rect x="4.3" y="136.6" fill="#1C75BD" stroke="#000000" stroke-miterlimit="10" width="7" height="49.4"/>
</g>
</svg>
