<svg xmlns="http://www.w3.org/2000/svg" xmlns:xlink="http://www.w3.org/1999/xlink" preserveAspectRatio="xMidYMid" width="31.969" height="26.9" viewBox="0 0 31.969 26.9">
  <defs>
    <style>
      .cls-1 {
        fill: #0072ff;
        fill-rule: evenodd;
      }
    </style>
  </defs>
  <path d="M27.694,22.600 C27.497,22.814 27.228,22.922 26.958,22.922 C26.716,22.922 26.473,22.835 26.281,22.659 C25.874,22.286 25.847,21.656 26.221,21.251 C31.203,15.854 31.203,7.072 26.221,1.675 C25.847,1.270 25.874,0.639 26.281,0.267 C26.687,-0.105 27.320,-0.080 27.694,0.326 C33.362,6.467 33.362,16.459 27.694,22.600 ZM24.699,20.103 C24.501,20.321 24.230,20.431 23.957,20.431 C23.717,20.431 23.478,20.346 23.286,20.173 C22.876,19.804 22.845,19.173 23.216,18.766 C26.874,14.739 26.874,8.188 23.216,4.160 C22.845,3.752 22.876,3.122 23.286,2.753 C23.696,2.383 24.328,2.415 24.699,2.823 C29.028,7.587 29.028,15.340 24.699,20.103 ZM21.676,17.137 C21.480,17.339 21.219,17.442 20.956,17.442 C20.706,17.442 20.456,17.349 20.262,17.162 C19.865,16.780 19.853,16.149 20.237,15.753 C22.529,13.388 22.529,9.538 20.237,7.173 C19.853,6.778 19.865,6.146 20.262,5.763 C20.659,5.382 21.292,5.392 21.676,5.789 C24.708,8.917 24.708,14.008 21.676,17.137 ZM16.956,24.915 L17.956,24.915 C18.508,24.915 18.956,25.362 18.956,25.911 C18.956,26.462 18.508,26.908 17.956,26.908 L13.955,26.908 C13.403,26.908 12.955,26.462 12.955,25.911 C12.955,25.362 13.403,24.915 13.955,24.915 L14.956,24.915 L14.956,14.452 C14.956,14.395 14.963,14.339 14.972,14.284 C13.800,13.877 12.955,12.768 12.955,11.463 C12.955,9.814 14.301,8.474 15.956,8.474 C17.610,8.474 18.956,9.814 18.956,11.463 C18.956,12.768 18.112,13.877 16.938,14.284 C16.948,14.339 16.956,14.395 16.956,14.452 L16.956,24.915 ZM16.956,11.463 C16.956,10.913 16.507,10.466 15.956,10.466 C15.404,10.466 14.956,10.913 14.956,11.463 C14.956,12.013 15.404,12.459 15.956,12.459 C16.507,12.459 16.956,12.013 16.956,11.463 ZM11.649,17.162 C11.455,17.348 11.205,17.442 10.955,17.442 C10.693,17.442 10.431,17.339 10.235,17.137 C7.203,14.008 7.203,8.917 10.235,5.789 C10.619,5.392 11.252,5.382 11.649,5.763 C12.047,6.146 12.057,6.776 11.674,7.173 C9.382,9.538 9.382,13.388 11.674,15.753 C12.057,16.148 12.047,16.780 11.649,17.162 ZM8.696,18.766 C9.066,19.173 9.034,19.804 8.625,20.173 C8.434,20.345 8.193,20.431 7.954,20.431 C7.682,20.431 7.410,20.320 7.212,20.103 C2.884,15.339 2.884,7.586 7.212,2.823 C7.584,2.414 8.216,2.384 8.625,2.753 C9.034,3.122 9.066,3.752 8.696,4.160 C5.037,8.186 5.037,14.738 8.696,18.766 ZM5.690,21.251 C6.063,21.656 6.037,22.286 5.630,22.659 C5.438,22.835 5.196,22.922 4.954,22.922 C4.683,22.922 4.414,22.814 4.217,22.600 C-1.451,16.459 -1.451,6.467 4.217,0.326 C4.591,-0.080 5.224,-0.105 5.630,0.267 C6.037,0.639 6.063,1.270 5.690,1.675 C0.708,7.071 0.708,15.853 5.690,21.251 Z" class="cls-1"/>
</svg>
