<svg xmlns="http://www.w3.org/2000/svg" xmlns:xlink="http://www.w3.org/1999/xlink" preserveAspectRatio="xMidYMid" width="28.093" height="42.34" viewBox="0 0 28.093 42.34">
  <defs>
    <style>
      .cls-1 {
        fill: #34e5a7;
        fill-rule: evenodd;
      }
    </style>
  </defs>
  <path d="M28.056,0.963 C27.852,0.260 27.113,-0.149 26.401,0.054 L17.039,2.698 C16.950,2.722 16.864,2.756 16.783,2.797 C16.762,2.809 16.745,2.823 16.724,2.835 C16.670,2.867 16.615,2.898 16.567,2.937 C16.537,2.960 16.512,2.988 16.485,3.014 C16.449,3.047 16.413,3.078 16.381,3.115 C16.357,3.142 16.339,3.173 16.317,3.203 C16.288,3.243 16.258,3.281 16.234,3.324 C16.213,3.360 16.199,3.400 16.182,3.438 C16.164,3.478 16.143,3.515 16.129,3.558 C16.102,3.641 16.082,3.726 16.071,3.814 L16.071,3.814 L15.409,9.263 L1.338,9.263 C0.953,9.263 0.587,9.427 0.333,9.713 C0.078,10.000 -0.038,10.380 0.012,10.758 L4.027,41.185 C4.114,41.844 4.682,42.337 5.354,42.337 L21.415,42.337 C22.087,42.337 22.655,41.844 22.743,41.185 L26.758,10.758 C26.808,10.380 26.690,10.000 26.436,9.713 C26.182,9.427 25.815,9.263 25.430,9.263 L18.105,9.263 L18.623,5.002 L27.136,2.598 C27.847,2.397 28.258,1.665 28.056,0.963 ZM15.088,11.909 L14.366,17.862 L3.649,17.862 L2.863,11.909 L15.088,11.909 ZM20.240,39.691 L6.529,39.691 L3.998,20.509 L14.044,20.509 L12.056,36.888 C11.967,37.613 12.491,38.271 13.225,38.359 C13.280,38.366 13.333,38.368 13.386,38.368 C14.054,38.368 14.632,37.875 14.713,37.203 L16.741,20.509 L22.771,20.509 L20.240,39.691 ZM23.906,11.909 L23.120,17.862 L17.062,17.862 L17.784,11.909 L23.906,11.909 Z" class="cls-1"/>
</svg>
