<svg xmlns="http://www.w3.org/2000/svg" xmlns:xlink="http://www.w3.org/1999/xlink" preserveAspectRatio="xMidYMid" width="31.63" height="29.82" viewBox="0 0 31.63 29.82">
  <defs>
    <style>
      .cls-1 {
        fill: #0072ff;
        fill-rule: evenodd;
      }
    </style>
  </defs>
  <path d="M28.660,5.963 C28.470,5.963 28.285,5.943 28.104,5.908 L24.006,13.980 C24.443,14.499 24.707,15.169 24.707,15.901 C24.707,17.545 23.377,18.882 21.742,18.882 C20.107,18.882 18.778,17.545 18.778,15.901 C18.778,15.212 19.014,14.578 19.406,14.072 L15.491,8.865 C15.276,8.915 15.054,8.944 14.825,8.944 C14.744,8.944 14.664,8.938 14.585,8.932 L10.954,21.712 C11.512,22.254 11.860,23.013 11.860,23.852 C11.860,25.496 10.530,26.834 8.895,26.834 C7.260,26.834 5.930,25.496 5.930,23.852 C5.930,23.151 6.173,22.508 6.577,21.999 L3.606,17.818 C3.400,17.863 3.186,17.889 2.965,17.889 C1.331,17.889 0.001,16.552 0.001,14.908 C0.001,13.264 1.331,11.926 2.965,11.926 C4.600,11.926 5.930,13.264 5.930,14.908 C5.930,15.608 5.688,16.251 5.285,16.761 L8.255,20.943 C8.462,20.897 8.675,20.871 8.895,20.871 C8.976,20.871 9.055,20.877 9.134,20.882 L12.765,8.102 C12.208,7.561 11.860,6.802 11.860,5.963 C11.860,4.319 13.190,2.981 14.825,2.981 C16.459,2.981 17.789,4.319 17.789,5.963 C17.789,6.653 17.554,7.285 17.162,7.791 L21.076,12.998 C21.291,12.948 21.514,12.919 21.742,12.919 C21.932,12.919 22.118,12.939 22.298,12.973 L26.396,4.902 C25.960,4.383 25.695,3.713 25.695,2.981 C25.695,1.337 27.025,-0.000 28.660,-0.000 C30.295,-0.000 31.625,1.337 31.625,2.981 C31.625,4.625 30.295,5.963 28.660,5.963 ZM2.965,13.914 C2.421,13.914 1.977,14.359 1.977,14.908 C1.977,15.455 2.421,15.902 2.965,15.902 C3.090,15.902 3.208,15.875 3.317,15.834 L3.716,15.546 C3.862,15.374 3.954,15.153 3.954,14.908 C3.954,14.359 3.511,13.914 2.965,13.914 ZM8.895,22.858 C8.771,22.858 8.654,22.884 8.544,22.926 L8.145,23.213 C7.998,23.386 7.907,23.608 7.907,23.852 C7.907,24.399 8.350,24.846 8.895,24.846 C9.440,24.846 9.883,24.399 9.883,23.852 C9.883,23.304 9.440,22.858 8.895,22.858 ZM14.825,4.969 C14.280,4.969 13.836,5.415 13.836,5.963 C13.836,6.511 14.280,6.956 14.825,6.956 C15.370,6.956 15.813,6.511 15.813,5.963 C15.813,5.415 15.370,4.969 14.825,4.969 ZM21.742,14.907 C21.197,14.907 20.754,15.353 20.754,15.901 C20.754,16.449 21.197,16.895 21.742,16.895 C22.288,16.895 22.731,16.449 22.731,15.901 C22.731,15.353 22.288,14.907 21.742,14.907 ZM28.660,1.987 C28.115,1.987 27.672,2.434 27.672,2.981 C27.672,3.529 28.115,3.975 28.660,3.975 C29.205,3.975 29.648,3.529 29.648,2.981 C29.648,2.434 29.205,1.987 28.660,1.987 ZM0.989,27.826 L30.637,27.826 C31.183,27.826 31.625,28.272 31.625,28.820 C31.625,29.370 31.183,29.814 30.637,29.814 L0.989,29.814 C0.444,29.814 0.001,29.370 0.001,28.820 C0.001,28.272 0.444,27.826 0.989,27.826 Z" class="cls-1"/>
</svg>
