<svg xmlns="http://www.w3.org/2000/svg" width="63.719" height="64" viewBox="0 0 63.719 64">
  <defs>
    <style>
      .cls-1 {
        fill: #00c6ff;
        fill-rule: evenodd;
      }
    </style>
  </defs>
  <path id="chat_icon.svg" class="cls-1" d="M988.081,788.1a20.947,20.947,0,1,0-37.433-17.019c-0.535-.042-1.071-0.083-1.617-0.083a21.1,21.1,0,0,0-17.152,33.1l-3.667,12.325a1.992,1.992,0,0,0,2.948,2.278l10.963-6.754a20.66,20.66,0,0,0,6.908,1.182,20.956,20.956,0,0,0,20.286-16.08c0.533,0.046,1.067.08,1.612,0.08a20.665,20.665,0,0,0,6.908-1.182l10.963,6.754a1.993,1.993,0,0,0,2.947-2.278Zm-39.05,21.031a16.7,16.7,0,0,1-6.365-1.253,1.988,1.988,0,0,0-1.792.147l-7.356,4.533,2.459-8.265a2.007,2.007,0,0,0-.331-1.794A16.889,16.889,0,1,1,949.031,809.133ZM983.983,788.3l2.459,8.265-7.356-4.533a1.984,1.984,0,0,0-1.793-.147,16.7,16.7,0,0,1-6.364,1.253c-0.354,0-.7-0.029-1.046-0.052,0.015-.339.05-0.672,0.05-1.015a21.059,21.059,0,0,0-15.35-20.288,16.921,16.921,0,1,1,29.73,14.723A2.01,2.01,0,0,0,983.983,788.3Z" transform="translate(-928.125 -755)"/>
</svg>
