<svg xmlns="http://www.w3.org/2000/svg" xmlns:xlink="http://www.w3.org/1999/xlink" preserveAspectRatio="xMidYMid" width="26" height="37" viewBox="0 0 26 37">
  <defs>
    <style>
      .cls-1 {
        fill: #0072ff;
        fill-rule: evenodd;
      }
    </style>
  </defs>
  <path d="M22.595,37.000 L3.389,37.000 C1.524,37.000 -0.001,35.440 -0.001,33.532 L-0.001,5.787 C-0.001,3.880 1.524,2.319 3.389,2.319 L6.213,2.319 L6.213,1.162 C6.213,0.524 6.719,0.006 7.343,0.006 L18.641,0.006 C19.265,0.006 19.771,0.524 19.771,1.162 L19.771,2.319 L22.595,2.319 C24.459,2.319 25.985,3.880 25.985,5.787 L25.985,33.532 C25.985,35.440 24.459,37.000 22.595,37.000 ZM17.511,2.319 L8.473,2.319 L8.473,4.630 L17.511,4.630 L17.511,2.319 ZM23.725,5.787 C23.725,5.151 23.217,4.630 22.595,4.630 L19.771,4.630 L19.771,5.787 C19.771,6.425 19.265,6.943 18.641,6.943 L7.343,6.943 C6.719,6.943 6.213,6.425 6.213,5.787 L6.213,4.630 L3.389,4.630 C2.767,4.630 2.259,5.151 2.259,5.787 L2.259,33.532 C2.259,34.168 2.767,34.688 3.389,34.688 L22.595,34.688 C23.217,34.688 23.725,34.168 23.725,33.532 L23.725,5.787 ZM19.206,26.595 L6.778,26.595 C6.154,26.595 5.648,26.078 5.648,25.440 C5.648,24.801 6.154,24.283 6.778,24.283 L19.206,24.283 C19.830,24.283 20.336,24.801 20.336,25.440 C20.336,26.078 19.830,26.595 19.206,26.595 ZM19.206,20.815 L6.778,20.815 C6.154,20.815 5.648,20.298 5.648,19.659 C5.648,19.021 6.154,18.503 6.778,18.503 L19.206,18.503 C19.830,18.503 20.336,19.021 20.336,19.659 C20.336,20.298 19.830,20.815 19.206,20.815 ZM19.206,15.035 L6.778,15.035 C6.154,15.035 5.648,14.517 5.648,13.879 C5.648,13.241 6.154,12.723 6.778,12.723 L19.206,12.723 C19.830,12.723 20.336,13.241 20.336,13.879 C20.336,14.517 19.830,15.035 19.206,15.035 Z" class="cls-1"/>
</svg>
