<svg xmlns="http://www.w3.org/2000/svg" xmlns:xlink="http://www.w3.org/1999/xlink" preserveAspectRatio="xMidYMid" width="25.813" height="32" viewBox="0 0 25.813 32">
  <defs>
    <style>
      .cls-1 {
        fill: #0072ff;
        fill-rule: evenodd;
      }
    </style>
  </defs>
  <path d="M24.816,32.000 L0.997,32.000 C0.449,32.000 0.005,31.552 0.005,31.000 L0.005,17.003 C0.005,16.451 0.449,16.003 0.997,16.003 L3.975,16.003 L3.975,9.004 C3.975,4.042 7.982,0.005 12.907,0.005 C17.832,0.005 21.839,4.042 21.839,9.004 L21.839,16.003 L24.816,16.003 C25.364,16.003 25.809,16.451 25.809,17.003 L25.809,31.000 C25.809,31.552 25.364,32.000 24.816,32.000 ZM19.854,9.004 C19.854,5.145 16.737,2.005 12.907,2.005 C9.076,2.005 5.960,5.145 5.960,9.004 L5.960,16.003 L19.854,16.003 L19.854,9.004 ZM23.824,18.003 L1.990,18.003 L1.990,30.000 L23.824,30.000 L23.824,18.003 ZM12.907,20.002 C14.549,20.002 15.884,21.348 15.884,23.002 C15.884,24.304 15.053,25.413 13.899,25.826 L13.899,27.001 C13.899,27.553 13.455,28.001 12.907,28.001 C12.359,28.001 11.914,27.553 11.914,27.001 L11.914,25.826 C10.760,25.413 9.929,24.304 9.929,23.002 C9.929,21.348 11.265,20.002 12.907,20.002 ZM12.907,24.001 C13.454,24.001 13.899,23.553 13.899,23.002 C13.899,22.450 13.454,22.002 12.907,22.002 C12.360,22.002 11.914,22.450 11.914,23.002 C11.914,23.553 12.360,24.001 12.907,24.001 Z" class="cls-1"/>
</svg>
