<?xml version="1.0" encoding="utf-8"?>
<!-- Generator: Adobe Illustrator 17.1.0, SVG Export Plug-In . SVG Version: 6.00 Build 0)  -->
<!DOCTYPE svg PUBLIC "-//W3C//DTD SVG 1.1//EN" "http://www.w3.org/Graphics/SVG/1.1/DTD/svg11.dtd">
<svg version="1.1" id="White" xmlns="http://www.w3.org/2000/svg" xmlns:xlink="http://www.w3.org/1999/xlink" x="0px" y="0px"
	 viewBox="0 0 297.3 260" enable-background="new 0 0 297.3 260" xml:space="preserve">
<g id="Icon_6_">
	<g id="Icon_Flattened_6_">
		<g>
			<g>
				<circle fill="#FFFFFF" cx="28" cy="130" r="28"/>
			</g>
			<g>
				<circle fill="#FFFFFF" cx="269.3" cy="130" r="28"/>
			</g>
			<circle fill="#FFFFFF" cx="148.7" cy="28" r="28"/>
			<path fill="#FFFFFF" d="M158,181L158,181c0-11.9,4-23.7,11.8-32.6c4.8-5.6,7.5-13.1,6.7-21.2c-1.3-13.5-12.5-24.3-26-25.1
				c-16.3-1-29.8,11.9-29.8,27.9c0,6.9,2.5,13.3,6.7,18.2c7.8,9.1,12,20.8,12,32.8v0c0,11.9-4,23.6-11.8,32.6
				c-4.8,5.6-7.5,13.1-6.7,21.2c1.3,13.5,12.5,24.3,26,25.1c16.3,1,29.8-11.9,29.8-27.9c0-6.9-2.5-13.3-6.7-18.2
				C162.2,204.7,158,193,158,181z"/>
			<path fill="#FFFFFF" d="M218.3,130L218.3,130c0-11.9,4-23.6,11.8-32.6c4.8-5.6,7.5-13.1,6.7-21.2c-1.3-13.5-12.5-24.3-26-25.1
				C194.5,50,181,62.9,181,79c0,6.9,2.5,13.3,6.7,18.2c7.8,9.1,12,20.8,12,32.8v0c0,11.9-4,23.6-11.8,32.6
				c-4.8,5.6-7.5,13.1-6.7,21.2c1.3,13.5,12.5,24.3,26,25.1c16.3,1,29.8-11.9,29.8-27.9c0-6.9-2.5-13.3-6.7-18.2
				C222.5,153.7,218.3,142,218.3,130z"/>
			<path fill="#FFFFFF" d="M97.6,130L97.6,130c0-11.9,4-23.6,11.8-32.6c4.8-5.6,7.5-13.1,6.7-21.2c-1.3-13.5-12.5-24.3-26-25.1
				C73.9,50,60.3,62.9,60.3,79c0,6.9,2.5,13.3,6.7,18.2c7.8,9.1,12,20.8,12,32.8v0c0,11.9-4,23.6-11.8,32.6
				c-4.8,5.6-7.5,13.1-6.7,21.2c1.3,13.5,12.5,24.3,26,25.1c16.3,1,29.8-11.9,29.8-27.9c0-6.9-2.5-13.3-6.7-18.2
				C101.8,153.7,97.6,142,97.6,130z"/>
		</g>
	</g>
</g>
</svg>
