<svg xmlns="http://www.w3.org/2000/svg" xmlns:xlink="http://www.w3.org/1999/xlink" preserveAspectRatio="xMidYMid" width="32" height="32" viewBox="0 0 32 32">
  <defs>
    <style>
      .cls-1 {
        fill: #0072ff;
        fill-rule: evenodd;
      }
    </style>
  </defs>
  <path d="M31.695,31.700 C31.304,32.090 30.672,32.090 30.281,31.700 C30.280,31.699 30.280,31.699 30.279,31.698 L21.446,22.862 C16.339,27.248 8.640,27.025 3.804,22.185 C-1.274,17.110 -1.271,8.875 3.802,3.802 C8.877,-1.274 17.110,-1.277 22.184,3.802 C27.023,8.639 27.242,16.341 22.859,21.448 L31.695,30.286 C32.085,30.677 32.085,31.310 31.695,31.700 ZM20.766,5.213 C16.472,0.918 9.510,0.916 5.215,5.214 C0.921,9.512 0.922,16.473 5.215,20.769 C9.511,25.064 16.471,25.066 20.767,20.769 C25.062,16.472 25.055,9.505 20.766,5.213 ZM19.991,12.993 C19.991,9.133 16.851,5.993 12.993,5.993 C12.440,5.993 11.993,5.546 11.993,4.993 C11.993,4.441 12.440,3.993 12.993,3.993 C17.953,3.993 21.990,8.031 21.990,12.993 C21.990,13.545 21.542,13.993 20.991,13.993 C20.438,13.993 19.991,13.545 19.991,12.993 Z" class="cls-1"/>
</svg>
