<svg xmlns="http://www.w3.org/2000/svg" xmlns:xlink="http://www.w3.org/1999/xlink" preserveAspectRatio="xMidYMid" width="32" height="23.28" viewBox="0 0 32 23.28">
  <defs>
    <style>
      .cls-1 {
        fill: #0072ff;
        fill-rule: evenodd;
      }
    </style>
  </defs>
  <path d="M27.739,22.946 C27.542,23.164 27.269,23.274 26.995,23.274 C26.756,23.274 26.517,23.190 26.326,23.019 C25.916,22.653 25.883,22.025 26.252,21.618 C31.245,16.116 31.245,7.164 26.252,1.662 C25.883,1.255 25.916,0.627 26.326,0.261 C26.736,-0.107 27.369,-0.073 27.739,0.334 C33.396,6.568 33.396,16.712 27.739,22.946 ZM25.737,20.245 C25.539,20.461 25.267,20.572 24.995,20.572 C24.755,20.572 24.515,20.487 24.323,20.315 C23.914,19.947 23.883,19.320 24.253,18.913 C27.913,14.903 27.913,8.377 24.253,4.367 C23.883,3.960 23.914,3.333 24.323,2.965 C24.733,2.597 25.365,2.628 25.737,3.035 C30.065,7.780 30.065,15.501 25.737,20.245 ZM19.978,22.863 C19.606,22.863 19.225,22.758 18.875,22.526 L11.486,16.644 L8.986,16.644 L8.986,19.853 C8.986,20.950 8.091,21.838 6.986,21.838 L5.237,21.838 C4.133,21.838 3.237,20.950 3.237,19.853 L3.237,16.644 L1.998,16.644 C0.894,16.644 -0.002,15.756 -0.002,14.660 L-0.002,8.209 C-0.002,7.113 0.894,6.224 1.998,6.224 L11.486,6.224 L18.875,0.342 C19.225,0.111 19.606,0.005 19.978,0.005 C21.018,0.005 21.983,0.826 21.983,1.994 L21.983,20.875 C21.983,22.042 21.018,22.863 19.978,22.863 ZM5.237,19.853 L6.986,19.853 L6.986,16.644 L5.237,16.644 L5.237,19.853 ZM1.998,8.209 L1.998,14.660 L3.237,14.660 L8.986,14.660 L11.486,14.660 L11.486,8.209 L1.998,8.209 ZM19.984,2.003 L13.496,7.168 L13.496,15.700 L19.984,20.865 L19.984,2.003 Z" class="cls-1"/>
</svg>
