<svg xmlns="http://www.w3.org/2000/svg" xmlns:xlink="http://www.w3.org/1999/xlink" preserveAspectRatio="xMidYMid" width="43" height="39.75" viewBox="0 0 43 39.75">
  <defs>
    <style>
      .cls-1 {
        fill: #9733ee;
        fill-rule: evenodd;
      }
    </style>
  </defs>
  <path d="M41.654,14.575 C41.650,14.575 41.646,14.575 41.641,14.575 L34.924,14.575 L34.924,33.132 L38.283,33.132 C39.025,33.132 39.626,33.726 39.626,34.458 C39.626,35.190 39.025,35.783 38.283,35.783 L4.702,35.783 C3.961,35.783 3.359,35.190 3.359,34.458 C3.359,33.726 3.961,33.132 4.702,33.132 L8.060,33.132 L8.060,14.575 L1.344,14.575 C0.741,14.575 0.211,14.178 0.049,13.604 C-0.112,13.030 0.136,12.420 0.653,12.113 L20.801,0.184 C21.226,-0.069 21.759,-0.069 22.183,0.184 L42.222,12.048 C42.681,12.260 42.997,12.719 42.997,13.250 C42.997,13.982 42.396,14.575 41.654,14.575 ZM26.865,33.132 L32.238,33.132 L32.238,14.575 L26.865,14.575 L26.865,33.132 ZM18.806,33.132 L24.179,33.132 L24.179,14.575 L18.806,14.575 L18.806,33.132 ZM10.746,33.132 L16.119,33.132 L16.119,14.575 L10.746,14.575 L10.746,33.132 ZM21.492,2.866 L6.193,11.924 L36.791,11.924 L21.492,2.866 ZM21.492,5.960 C22.605,5.960 23.507,6.850 23.507,7.948 C23.507,9.045 22.605,9.936 21.492,9.936 C20.380,9.936 19.477,9.045 19.477,7.948 C19.477,6.850 20.380,5.960 21.492,5.960 ZM1.344,37.109 L41.641,37.109 C42.383,37.109 42.984,37.703 42.984,38.434 C42.984,39.167 42.383,39.760 41.641,39.760 L1.344,39.760 C0.603,39.760 0.001,39.167 0.001,38.434 C0.001,37.703 0.603,37.109 1.344,37.109 Z" class="cls-1"/>
</svg>
