<?xml version="1.0" encoding="utf-8"?>
<!-- Generator: Adobe Illustrator 17.1.0, SVG Export Plug-In . SVG Version: 6.00 Build 0)  -->
<!DOCTYPE svg PUBLIC "-//W3C//DTD SVG 1.1//EN" "http://www.w3.org/Graphics/SVG/1.1/DTD/svg11.dtd">
<svg version="1.1" xmlns="http://www.w3.org/2000/svg" xmlns:xlink="http://www.w3.org/1999/xlink" x="0px" y="0px"
	 viewBox="0 0 24.7 190" enable-background="new 0 0 24.7 190" xml:space="preserve">
<g id="RCA_Input_2" display="none">
	<g display="inline">
		<circle fill="#2C2C2C" cx="12.4" cy="12.5" r="11.7"/>
		<circle fill="#D2D3D5" cx="12.4" cy="12.5" r="8.8"/>
		<circle fill="#EB2325" cx="12.4" cy="12.5" r="6.3"/>
		<circle fill="#151515" cx="12.4" cy="12.5" r="3.6"/>
	</g>
	<path display="inline" fill="#B44043" d="M20,115.5l0.1-1.6h-1.1v0H5.8v0H4.7l0.1,1.6h1.1l0.1,2.2H4.8l0.1,1.9h1.1L6,122H5l0.1,1.9
		h1l0.1,2.2h-1l0.1,1.9h1l0.1,2.2h-1l0.1,1.9h1l0.2,5.9c0,0.8,0.7,1.5,1.5,1.5h8.6c0.8,0,1.5-0.6,1.5-1.5l0.2-5.9h1l0.1-1.9h-1
		l0.1-2.2h1l0.1-1.9h-1l0.1-2.2h1l0.1-1.9h-1.1l0.1-2.2h1.1l0.1-1.9h-1.1l0.1-2.2H20z"/>
	<path display="inline" fill="#F2F2F2" d="M14.8,115.5h2.5l-0.1,2.2h-2.4V115.5z M9.9,115.5H7.5l0.1,2.2h2.4V115.5z M14.8,134.5h2
		l0.1-2.2h-2.1V134.5z M14.8,130.3h2.1l0.1-2.2h-2.2V130.3z M14.8,122h2.3l0.1-2.2h-2.4V122z M14.8,126.1H17l0.1-2.2h-2.3V126.1z
		 M9.9,132.3H7.9l0.1,2.2h2V132.3z M9.9,123.9H7.7l0.1,2.2h2.2V123.9z M9.9,119.7H7.6l0.1,2.2h2.3V119.7z M9.9,128.1H7.8l0.1,2.2
		h2.1V128.1z"/>
	<path display="inline" fill="#FFEF8C" d="M14.4,56.2v19.5h-4V56.2c0-1.1,0.9-2,2-2h0C13.5,54.2,14.4,55.1,14.4,56.2z"/>
	<g display="inline">
		<path fill="#E8D759" d="M9.1,67.5v8.2H16v-8.2c0-1.1-0.9-2-2-2h-2.9C10,65.5,9.1,66.4,9.1,67.5z"/>
		<path fill="#E8D759" d="M5.5,65.5v10.2h2.4v-8.2c0-1.1-0.9-2-2-2H5.5z"/>
		<path fill="#E8D759" d="M16.9,67.5v8.2h2.4V65.5h-0.4C17.8,65.5,16.9,66.4,16.9,67.5z"/>
	</g>
	<rect x="9.6" y="139.6" display="inline" fill="#F2F2F2" width="5.6" height="109.8"/>
	<path display="inline" fill="#ED4951" d="M2.9,76.7c0-0.6,0.4-1,1-1h16.9c0.6,0,1,0.4,1,1v36.3c0,0.6-0.4,1-1,1H3.9
		c-0.6,0-1-0.4-1-1V76.7z"/>
	<path display="inline" fill="#B44043" d="M12.4,106.8L12.4,106.8c-2,0-3.6-1.6-3.6-3.6V84.7c0-2,1.6-3.6,3.6-3.6h0
		c2,0,3.6,1.6,3.6,3.6v18.5C16,105.1,14.4,106.8,12.4,106.8z"/>
	<path display="inline" fill="#B44043" d="M21.8,81c-1,0-1.8,1.6-1.8,3.6v18.5c0,2,0.8,3.6,1.8,3.6c1,0,1.8-1.6,1.8-3.6V84.7
		C23.7,82.7,22.8,81,21.8,81z"/>
	<path display="inline" fill="#B44043" d="M2.9,81c-1,0-1.8,1.6-1.8,3.6v18.5c0,2,0.8,3.6,1.8,3.6c1,0,1.8-1.6,1.8-3.6V84.7
		C4.7,82.7,3.9,81,2.9,81z"/>
</g>
<g id="RCA_Input_2_copy">
	<circle fill="none" stroke="#000000" stroke-miterlimit="10" cx="12.4" cy="12.5" r="11.7"/>
	<circle fill="none" stroke="#000000" stroke-miterlimit="10" cx="12.4" cy="12.5" r="8.8"/>
	<circle cx="12.4" cy="12.5" r="3.6"/>
	<g>
		<path fill="#B44043" stroke="#000000" stroke-miterlimit="10" d="M20,115.5l0.1-1.6h-1.1v0H5.8v0H4.7l0.1,1.6h1.1l0.1,2.2H4.8
			l0.1,1.9h1.1L6,122H5l0.1,1.9h1l0.1,2.2h-1l0.1,1.9h1l0.1,2.2h-1l0.1,1.9h1l0.2,5.9c0,0.8,0.7,1.5,1.5,1.5h8.6
			c0.8,0,1.5-0.6,1.5-1.5l0.2-5.9h1l0.1-1.9h-1l0.1-2.2h1l0.1-1.9h-1l0.1-2.2h1l0.1-1.9h-1.1l0.1-2.2h1.1l0.1-1.9h-1.1l0.1-2.2H20z"
			/>
		<path fill="#F2F2F2" stroke="#000000" stroke-miterlimit="10" d="M14.8,115.5h2.5l-0.1,2.2h-2.4V115.5z M9.9,115.5H7.5l0.1,2.2
			h2.4V115.5z M14.8,134.5h2l0.1-2.2h-2.1V134.5z M14.8,130.3h2.1l0.1-2.2h-2.2V130.3z M14.8,122h2.3l0.1-2.2h-2.4V122z M14.8,126.1
			H17l0.1-2.2h-2.3V126.1z M9.9,132.3H7.9l0.1,2.2h2V132.3z M9.9,123.9H7.7l0.1,2.2h2.2V123.9z M9.9,119.7H7.6l0.1,2.2h2.3V119.7z
			 M9.9,128.1H7.8l0.1,2.2h2.1V128.1z"/>
		<path fill="#FFEF8C" stroke="#000000" stroke-miterlimit="10" d="M14.4,56.2v19.5h-4V56.2c0-1.1,0.9-2,2-2h0
			C13.5,54.2,14.4,55.1,14.4,56.2z"/>
		<g>
			<path fill="#E8D759" stroke="#000000" stroke-miterlimit="10" d="M9.1,67.5v8.2H16v-8.2c0-1.1-0.9-2-2-2h-2.9
				C10,65.5,9.1,66.4,9.1,67.5z"/>
			<path fill="#E8D759" stroke="#000000" stroke-miterlimit="10" d="M5.5,65.5v10.2h2.4v-8.2c0-1.1-0.9-2-2-2H5.5z"/>
			<path fill="#E8D759" stroke="#000000" stroke-miterlimit="10" d="M16.9,67.5v8.2h2.4V65.5h-0.4C17.8,65.5,16.9,66.4,16.9,67.5z"
				/>
		</g>
		<path fill="#ED4951" stroke="#000000" stroke-miterlimit="10" d="M2.9,76.7c0-0.6,0.4-1,1-1h16.9c0.6,0,1,0.4,1,1v36.3
			c0,0.6-0.4,1-1,1H3.9c-0.6,0-1-0.4-1-1V76.7z"/>
		<path fill="#B44043" stroke="#000000" stroke-miterlimit="10" d="M12.4,106.8L12.4,106.8c-2,0-3.6-1.6-3.6-3.6V84.7
			c0-2,1.6-3.6,3.6-3.6h0c2,0,3.6,1.6,3.6,3.6v18.5C16,105.1,14.4,106.8,12.4,106.8z"/>
		<path fill="#B44043" stroke="#000000" stroke-miterlimit="10" d="M21.8,81c-1,0-1.8,1.6-1.8,3.6v18.5c0,2,0.8,3.6,1.8,3.6
			c1,0,1.8-1.6,1.8-3.6V84.7C23.7,82.7,22.8,81,21.8,81z"/>
		<path fill="#B44043" stroke="#000000" stroke-miterlimit="10" d="M2.9,81c-1,0-1.8,1.6-1.8,3.6v18.5c0,2,0.8,3.6,1.8,3.6
			c1,0,1.8-1.6,1.8-3.6V84.7C4.7,82.7,3.9,81,2.9,81z"/>
	</g>
	<rect x="9.6" y="139.6" fill="#F2F2F2" stroke="#000000" stroke-miterlimit="10" width="5.6" height="49.8"/>
</g>
</svg>
