<?xml version="1.0" encoding="utf-8"?>
<!-- Generator: Adobe Illustrator 17.1.0, SVG Export Plug-In . SVG Version: 6.00 Build 0)  -->
<!DOCTYPE svg PUBLIC "-//W3C//DTD SVG 1.1//EN" "http://www.w3.org/Graphics/SVG/1.1/DTD/svg11.dtd">
<svg version="1.1" xmlns="http://www.w3.org/2000/svg" xmlns:xlink="http://www.w3.org/1999/xlink" x="0px" y="0px"
	 viewBox="0 0 24.7 249.6" enable-background="new 0 0 24.7 249.6" xml:space="preserve">
<g id="RCA_Input_2" display="none">
	<g display="inline">
		<g>
			<circle fill="#2C2C2C" cx="12.4" cy="12.3" r="11.7"/>
			<circle fill="#D2D3D5" cx="12.4" cy="12.3" r="8.8"/>
			<circle fill="#EB2325" cx="12.4" cy="12.3" r="6.3"/>
			<circle fill="#151515" cx="12.4" cy="12.3" r="3.6"/>
		</g>
		<g>
			<path fill="#B44043" d="M20,115.3l0.1-1.6h-1.1v0H5.8v0H4.7l0.1,1.6h1.1l0.1,2.2H4.8l0.1,1.9h1.1l0.1,2.2H5l0.1,1.9h1l0.1,2.2h-1
				l0.1,1.9h1l0.1,2.2h-1l0.1,1.9h1l0.2,5.9c0,0.8,0.7,1.5,1.5,1.5h8.6c0.8,0,1.5-0.6,1.5-1.5l0.2-5.9h1l0.1-1.9h-1l0.1-2.2h1
				l0.1-1.9h-1l0.1-2.2h1l0.1-1.9h-1.1l0.1-2.2h1.1l0.1-1.9h-1.1l0.1-2.2H20z"/>
			<path fill="#F2F2F2" d="M14.8,115.3h2.5l-0.1,2.2h-2.4V115.3z M9.9,115.3H7.5l0.1,2.2h2.4V115.3z M14.8,134.3h2l0.1-2.2h-2.1
				V134.3z M14.8,130.1h2.1l0.1-2.2h-2.2V130.1z M14.8,121.7h2.3l0.1-2.2h-2.4V121.7z M14.8,125.9H17l0.1-2.2h-2.3V125.9z
				 M9.9,132.1H7.9l0.1,2.2h2V132.1z M9.9,123.7H7.7l0.1,2.2h2.2V123.7z M9.9,119.5H7.6l0.1,2.2h2.3V119.5z M9.9,127.9H7.8l0.1,2.2
				h2.1V127.9z"/>
			<path fill="#FFEF8C" d="M14.4,56v19.5h-4V56c0-1.1,0.9-2,2-2h0C13.5,54,14.4,54.9,14.4,56z"/>
			<g>
				<path fill="#E8D759" d="M9.1,67.3v8.2H16v-8.2c0-1.1-0.9-2-2-2h-2.9C10,65.3,9.1,66.2,9.1,67.3z"/>
				<path fill="#E8D759" d="M5.5,65.3v10.2h2.4v-8.2c0-1.1-0.9-2-2-2H5.5z"/>
				<path fill="#E8D759" d="M16.9,67.3v8.2h2.4V65.3h-0.4C17.8,65.3,16.9,66.2,16.9,67.3z"/>
			</g>
			<rect x="9.6" y="139.4" fill="#F2F2F2" width="5.6" height="109.8"/>
			<path fill="#ED4951" d="M2.9,76.5c0-0.6,0.4-1,1-1h16.9c0.6,0,1,0.4,1,1v36.3c0,0.6-0.4,1-1,1H3.9c-0.6,0-1-0.4-1-1V76.5z"/>
			<path fill="#B44043" d="M12.4,106.6L12.4,106.6c-2,0-3.6-1.6-3.6-3.6V84.5c0-2,1.6-3.6,3.6-3.6h0c2,0,3.6,1.6,3.6,3.6v18.5
				C16,104.9,14.4,106.6,12.4,106.6z"/>
			<path fill="#B44043" d="M21.8,80.8c-1,0-1.8,1.6-1.8,3.6v18.5c0,2,0.8,3.6,1.8,3.6c1,0,1.8-1.6,1.8-3.6V84.5
				C23.7,82.4,22.8,80.8,21.8,80.8z"/>
			<path fill="#B44043" d="M2.9,80.8c-1,0-1.8,1.6-1.8,3.6v18.5c0,2,0.8,3.6,1.8,3.6c1,0,1.8-1.6,1.8-3.6V84.5
				C4.7,82.4,3.9,80.8,2.9,80.8z"/>
		</g>
	</g>
</g>
<g id="RCA_Input_2_copy">
	<circle fill="none" stroke="#000000" stroke-miterlimit="10" cx="12.4" cy="12.3" r="11.7"/>
	<circle fill="none" stroke="#000000" stroke-miterlimit="10" cx="12.4" cy="12.3" r="8.8"/>
	<circle cx="12.4" cy="12.3" r="3.6"/>
	<g>
		<path fill="#B44043" stroke="#000000" stroke-miterlimit="10" d="M20,115.3l0.1-1.6h-1.1v0H5.8v0H4.7l0.1,1.6h1.1l0.1,2.2H4.8
			l0.1,1.9h1.1l0.1,2.2H5l0.1,1.9h1l0.1,2.2h-1l0.1,1.9h1l0.1,2.2h-1l0.1,1.9h1l0.2,5.9c0,0.8,0.7,1.5,1.5,1.5h8.6
			c0.8,0,1.5-0.6,1.5-1.5l0.2-5.9h1l0.1-1.9h-1l0.1-2.2h1l0.1-1.9h-1l0.1-2.2h1l0.1-1.9h-1.1l0.1-2.2h1.1l0.1-1.9h-1.1l0.1-2.2H20z"
			/>
		<path fill="#F2F2F2" stroke="#000000" stroke-miterlimit="10" d="M14.8,115.3h2.5l-0.1,2.2h-2.4V115.3z M9.9,115.3H7.5l0.1,2.2
			h2.4V115.3z M14.8,134.3h2l0.1-2.2h-2.1V134.3z M14.8,130.1h2.1l0.1-2.2h-2.2V130.1z M14.8,121.7h2.3l0.1-2.2h-2.4V121.7z
			 M14.8,125.9H17l0.1-2.2h-2.3V125.9z M9.9,132.1H7.9l0.1,2.2h2V132.1z M9.9,123.7H7.7l0.1,2.2h2.2V123.7z M9.9,119.5H7.6l0.1,2.2
			h2.3V119.5z M9.9,127.9H7.8l0.1,2.2h2.1V127.9z"/>
		<path fill="#FFEF8C" stroke="#000000" stroke-miterlimit="10" d="M14.4,56v19.5h-4V56c0-1.1,0.9-2,2-2h0
			C13.5,54,14.4,54.9,14.4,56z"/>
		<g>
			<path fill="#E8D759" stroke="#000000" stroke-miterlimit="10" d="M9.1,67.3v8.2H16v-8.2c0-1.1-0.9-2-2-2h-2.9
				C10,65.3,9.1,66.2,9.1,67.3z"/>
			<path fill="#E8D759" stroke="#000000" stroke-miterlimit="10" d="M5.5,65.3v10.2h2.4v-8.2c0-1.1-0.9-2-2-2H5.5z"/>
			<path fill="#E8D759" stroke="#000000" stroke-miterlimit="10" d="M16.9,67.3v8.2h2.4V65.3h-0.4C17.8,65.3,16.9,66.2,16.9,67.3z"
				/>
		</g>
		<rect x="9.6" y="139.4" fill="#F2F2F2" stroke="#000000" stroke-miterlimit="10" width="5.6" height="109.8"/>
		<path fill="#ED4951" stroke="#000000" stroke-miterlimit="10" d="M2.9,76.5c0-0.6,0.4-1,1-1h16.9c0.6,0,1,0.4,1,1v36.3
			c0,0.6-0.4,1-1,1H3.9c-0.6,0-1-0.4-1-1V76.5z"/>
		<path fill="#B44043" stroke="#000000" stroke-miterlimit="10" d="M12.4,106.6L12.4,106.6c-2,0-3.6-1.6-3.6-3.6V84.5
			c0-2,1.6-3.6,3.6-3.6h0c2,0,3.6,1.6,3.6,3.6v18.5C16,104.9,14.4,106.6,12.4,106.6z"/>
		<path fill="#B44043" stroke="#000000" stroke-miterlimit="10" d="M21.8,80.8c-1,0-1.8,1.6-1.8,3.6v18.5c0,2,0.8,3.6,1.8,3.6
			c1,0,1.8-1.6,1.8-3.6V84.5C23.7,82.4,22.8,80.8,21.8,80.8z"/>
		<path fill="#B44043" stroke="#000000" stroke-miterlimit="10" d="M2.9,80.8c-1,0-1.8,1.6-1.8,3.6v18.5c0,2,0.8,3.6,1.8,3.6
			c1,0,1.8-1.6,1.8-3.6V84.5C4.7,82.4,3.9,80.8,2.9,80.8z"/>
	</g>
</g>
</svg>
