<?xml version="1.0" encoding="utf-8"?>
<!-- Generator: Adobe Illustrator 17.1.0, SVG Export Plug-In . SVG Version: 6.00 Build 0)  -->
<!DOCTYPE svg PUBLIC "-//W3C//DTD SVG 1.1//EN" "http://www.w3.org/Graphics/SVG/1.1/DTD/svg11.dtd">
<svg version="1.1" id="Layer_2" xmlns="http://www.w3.org/2000/svg" xmlns:xlink="http://www.w3.org/1999/xlink" x="0px" y="0px"
	 viewBox="0 0 62.4 62.4" enable-background="new 0 0 62.4 62.4" xml:space="preserve">
<linearGradient id="SVGID_1_" gradientUnits="userSpaceOnUse" x1="9.1504" y1="53.2122" x2="53.2122" y2="9.1505">
	<stop  offset="0" style="stop-color:#0072FF"/>
	<stop  offset="1" style="stop-color:#00C6FF"/>
</linearGradient>
<path fill-rule="evenodd" clip-rule="evenodd" fill="url(#SVGID_1_)" d="M31.2,62.4c17.2,0,31.2-14,31.2-31.2S48.4,0,31.2,0
	C14,0,0,14,0,31.2S14,62.4,31.2,62.4z"/>
<linearGradient id="SVGID_2_" gradientUnits="userSpaceOnUse" x1="18.6339" y1="20.9074" x2="52.0923" y2="54.3657">
	<stop  offset="0.1411" style="stop-color:#6411BC"/>
	<stop  offset="1" style="stop-color:#6411BC;stop-opacity:0"/>
</linearGradient>
<path opacity="0.5" fill-rule="evenodd" clip-rule="evenodd" fill="url(#SVGID_2_)" d="M62.3,33.5L43.6,14.8l-10,10l-4.9-4.9
	l-16.5,7.5l9.4,9.4l-2,2l4.4,4.4l-9.8,4.4l14.7,14.7c0.8,0.1,1.5,0.1,2.3,0.1C47.6,62.4,61.1,49.6,62.3,33.5z"/>
<linearGradient id="SVGID_3_" gradientUnits="userSpaceOnUse" x1="31.0259" y1="47.5917" x2="31.0259" y2="25.3678">
	<stop  offset="0.6428" style="stop-color:#FFFFFF"/>
	<stop  offset="1" style="stop-color:#D9D9D9"/>
</linearGradient>
<polygon fill-rule="evenodd" clip-rule="evenodd" fill="url(#SVGID_3_)" points="15.6,25.4 46.8,25.4 46.8,45.9 47.8,45.9
	47.8,47.6 46.8,47.6 15.6,47.6 14.2,47.6 14.2,45.9 15.6,45.9 "/>
<linearGradient id="SVGID_4_" gradientUnits="userSpaceOnUse" x1="18.5546" y1="43.8876" x2="33.8502" y2="28.5921">
	<stop  offset="0" style="stop-color:#7FBDFF"/>
	<stop  offset="1" style="stop-color:#15A0FF"/>
</linearGradient>
<rect x="18.2" y="29" fill-rule="evenodd" clip-rule="evenodd" fill="url(#SVGID_4_)" width="16" height="14.5"/>
<linearGradient id="SVGID_5_" gradientUnits="userSpaceOnUse" x1="34.7132" y1="41.9657" x2="45.6852" y2="30.9936">
	<stop  offset="0" style="stop-color:#7FBDFF"/>
	<stop  offset="1" style="stop-color:#15A0FF"/>
</linearGradient>
<rect x="36.3" y="29.4" fill-rule="evenodd" clip-rule="evenodd" fill="url(#SVGID_5_)" width="7.7" height="14.2"/>
<linearGradient id="SVGID_6_" gradientUnits="userSpaceOnUse" x1="31.3955" y1="45.1735" x2="31.3955" y2="47.0721">
	<stop  offset="0" style="stop-color:#BFDCFF"/>
	<stop  offset="1" style="stop-color:#AAD3FF"/>
</linearGradient>
<polygon fill-rule="evenodd" clip-rule="evenodd" fill="url(#SVGID_6_)" points="16,45.2 36.3,45.2 36.3,46.1 44.4,46.1 44.4,45.2
	46.8,45.2 46.8,46.2 44.8,46.2 44.8,47.1 35.9,47.1 35.9,46.2 16,46.2 "/>
<path fill-rule="evenodd" clip-rule="evenodd" fill="#DD2476" d="M11.5,22.9h4.4v2.8c0,1.2-1,2.2-2.2,2.2l0,0c-1.2,0-2.2-1-2.2-2.2
	V22.9z"/>
<path fill-rule="evenodd" clip-rule="evenodd" fill="#FFFFFF" d="M15.9,22.9h4.4v2.8c0,1.2-1,2.2-2.2,2.2l0,0c-1.2,0-2.2-1-2.2-2.2
	V22.9z"/>
<path fill-rule="evenodd" clip-rule="evenodd" fill="#DD2476" d="M20.2,22.9h4.4v2.8c0,1.2-1,2.2-2.2,2.2l0,0c-1.2,0-2.2-1-2.2-2.2
	V22.9z"/>
<path fill-rule="evenodd" clip-rule="evenodd" fill="#FFFFFF" d="M24.6,22.9H29v2.8c0,1.2-1,2.2-2.2,2.2l0,0c-1.2,0-2.2-1-2.2-2.2
	V22.9z"/>
<path fill-rule="evenodd" clip-rule="evenodd" fill="#DD2476" d="M29,22.9h4.4v2.8c0,1.2-1,2.2-2.2,2.2l0,0c-1.2,0-2.2-1-2.2-2.2
	V22.9z"/>
<path fill-rule="evenodd" clip-rule="evenodd" fill="#FFFFFF" d="M33.4,22.9h4.4v2.8c0,1.2-1,2.2-2.2,2.2l0,0c-1.2,0-2.2-1-2.2-2.2
	V22.9z"/>
<path fill-rule="evenodd" clip-rule="evenodd" fill="#DD2476" d="M37.7,22.9h4.4v2.8c0,1.2-1,2.2-2.2,2.2l0,0c-1.2,0-2.2-1-2.2-2.2
	V22.9z"/>
<path fill-rule="evenodd" clip-rule="evenodd" fill="#FFFFFF" d="M42.1,22.9h4.4v2.8c0,1.2-1,2.2-2.2,2.2l0,0c-1.2,0-2.2-1-2.2-2.2
	V22.9z"/>
<path fill-rule="evenodd" clip-rule="evenodd" fill="#DD2476" d="M46.5,22.9h4.4v2.8c0,1.2-1,2.2-2.2,2.2l0,0c-1.2,0-2.2-1-2.2-2.2
	V22.9z"/>
<linearGradient id="SVGID_7_" gradientUnits="userSpaceOnUse" x1="17.1544" y1="22.9743" x2="17.1544" y2="15.1747">
	<stop  offset="0" style="stop-color:#DD2476"/>
	<stop  offset="1" style="stop-color:#FF8008"/>
</linearGradient>
<path fill-rule="evenodd" clip-rule="evenodd" fill="url(#SVGID_7_)" d="M20.2,15.2c0.9,0,1.7,0,2.6,0c-0.5,1.3-1.8,2.6-3.5,3.9
	c-1.7,1.3-2.9,2.6-3.5,3.9c-1.5,0-2.9,0-4.4,0c0.7-1.3,2.3-2.6,4.4-3.9C18,17.8,19.6,16.5,20.2,15.2z"/>
<linearGradient id="SVGID_8_" gradientUnits="userSpaceOnUse" x1="20.6241" y1="22.9743" x2="20.6241" y2="15.1747">
	<stop  offset="0" style="stop-color:#FFFFFF"/>
	<stop  offset="1" style="stop-color:#D9D9D9"/>
</linearGradient>
<path fill-rule="evenodd" clip-rule="evenodd" fill="url(#SVGID_8_)" d="M22.8,15.2c0.9,0,1.7,0,2.6,0c-0.4,1.3-1.3,2.6-2.6,3.9
	c-1.2,1.3-2.2,2.6-2.6,3.9c-1.5,0-2.9,0-4.4,0c0.5-1.3,1.8-2.6,3.5-3.9C21,17.8,22.3,16.5,22.8,15.2z"/>
<linearGradient id="SVGID_9_" gradientUnits="userSpaceOnUse" x1="24.0938" y1="22.9743" x2="24.0938" y2="15.1747">
	<stop  offset="0" style="stop-color:#DD2476"/>
	<stop  offset="1" style="stop-color:#FF8008"/>
</linearGradient>
<path fill-rule="evenodd" clip-rule="evenodd" fill="url(#SVGID_9_)" d="M25.4,15.2c0.9,0,1.7,0,2.6,0c-0.2,1.3-0.9,2.6-1.7,3.9
	c-0.8,1.3-1.4,2.6-1.7,3.9c-1.5,0-2.9,0-4.4,0c0.4-1.3,1.3-2.6,2.6-3.9C24,17.8,25,16.5,25.4,15.2z"/>
<linearGradient id="SVGID_10_" gradientUnits="userSpaceOnUse" x1="27.5656" y1="22.9743" x2="27.5656" y2="15.1747">
	<stop  offset="0" style="stop-color:#FFFFFF"/>
	<stop  offset="1" style="stop-color:#D9D9D9"/>
</linearGradient>
<path fill-rule="evenodd" clip-rule="evenodd" fill="url(#SVGID_10_)" d="M27.9,15.2c0.9,0,1.7,0,2.6,0c-0.1,1.3-0.4,2.6-0.8,3.9
	c-0.4,1.3-0.6,2.6-0.8,3.9c-1.5,0-2.9,0-4.4,0c0.3-1.3,0.9-2.6,1.7-3.9C27.1,17.8,27.7,16.5,27.9,15.2z"/>
<linearGradient id="SVGID_11_" gradientUnits="userSpaceOnUse" x1="31.179" y1="22.9743" x2="31.179" y2="15.1747">
	<stop  offset="0" style="stop-color:#DD2476"/>
	<stop  offset="1" style="stop-color:#FF8008"/>
</linearGradient>
<path fill-rule="evenodd" clip-rule="evenodd" fill="url(#SVGID_11_)" d="M30.5,15.2c0.9,0,1.7,0,2.6,0c0,1.3,0.1,2.6,0.1,3.9
	c0.1,1.3,0.1,2.6,0.1,3.9c-1.5,0-2.9,0-4.4,0c0.1-1.3,0.4-2.6,0.8-3.9C30.1,17.8,30.4,16.5,30.5,15.2z"/>
<linearGradient id="SVGID_12_" gradientUnits="userSpaceOnUse" x1="35.4085" y1="22.9743" x2="35.4085" y2="15.1747">
	<stop  offset="0" style="stop-color:#FFFFFF"/>
	<stop  offset="1" style="stop-color:#D9D9D9"/>
</linearGradient>
<path fill-rule="evenodd" clip-rule="evenodd" fill="url(#SVGID_12_)" d="M33.1,15.2c0.9,0,1.7,0,2.6,0c0.2,1.3,0.5,2.6,1,3.9
	c0.5,1.3,0.9,2.6,1,3.9c-1.5,0-2.9,0-4.4,0c0-1.3-0.1-2.6-0.1-3.9C33.2,17.8,33.1,16.5,33.1,15.2z"/>
<linearGradient id="SVGID_13_" gradientUnits="userSpaceOnUse" x1="38.8781" y1="22.9743" x2="38.8781" y2="15.1747">
	<stop  offset="0" style="stop-color:#DD2476"/>
	<stop  offset="1" style="stop-color:#FF8008"/>
</linearGradient>
<path fill-rule="evenodd" clip-rule="evenodd" fill="url(#SVGID_13_)" d="M35.6,15.2c0.9,0,1.7,0,2.6,0c0.3,1.3,1,2.6,2,3.9
	c0.9,1.3,1.6,2.6,1.9,3.9c-1.5,0-2.9,0-4.4,0c-0.2-1.3-0.5-2.6-1-3.9C36.2,17.8,35.8,16.5,35.6,15.2z"/>
<linearGradient id="SVGID_14_" gradientUnits="userSpaceOnUse" x1="42.3479" y1="22.9743" x2="42.3479" y2="15.1747">
	<stop  offset="0" style="stop-color:#FFFFFF"/>
	<stop  offset="1" style="stop-color:#D9D9D9"/>
</linearGradient>
<path fill-rule="evenodd" clip-rule="evenodd" fill="url(#SVGID_14_)" d="M38.2,15.2c0.9,0,1.7,0,2.6,0c0.4,1.3,1.5,2.6,2.9,3.9
	c1.4,1.3,2.4,2.6,2.8,3.9c-1.5,0-2.9,0-4.4,0c-0.3-1.3-1-2.6-1.9-3.9C39.2,17.8,38.5,16.5,38.2,15.2z"/>
<linearGradient id="SVGID_15_" gradientUnits="userSpaceOnUse" x1="45.8214" y1="22.9743" x2="45.8214" y2="15.1747">
	<stop  offset="0" style="stop-color:#DD2476"/>
	<stop  offset="1" style="stop-color:#FF8008"/>
</linearGradient>
<path fill-rule="evenodd" clip-rule="evenodd" fill="url(#SVGID_15_)" d="M40.8,15.2c0.9,0,1.7,0,2.6,0c0.6,1.3,2,2.6,3.8,3.9
	c1.8,1.3,3.2,2.6,3.8,3.9c-1.5,0-2.9,0-4.4,0c-0.4-1.3-1.5-2.6-2.8-3.9C42.3,17.8,41.2,16.5,40.8,15.2z"/>
<linearGradient id="SVGID_16_" gradientUnits="userSpaceOnUse" x1="19.5366" y1="15.1551" x2="43.5982" y2="15.1551">
	<stop  offset="0" style="stop-color:#DD2476"/>
	<stop  offset="1" style="stop-color:#FF8008"/>
</linearGradient>
<rect x="19.5" y="14.8" fill-rule="evenodd" clip-rule="evenodd" fill="url(#SVGID_16_)" width="24.1" height="0.8"/>
<polygon fill-rule="evenodd" clip-rule="evenodd" fill="#FFFFFF" points="18.2,33.3 22.6,29 24.2,29 18.2,35 "/>
<polygon fill-rule="evenodd" clip-rule="evenodd" fill="#FFFFFF" points="18.2,36.9 26.2,29 27.8,29 18.2,38.6 "/>
<polygon fill-rule="evenodd" clip-rule="evenodd" fill="#FFFFFF" points="36.3,31.5 38.5,29.4 39.3,29.4 36.3,32.3 "/>
<polygon fill-rule="evenodd" clip-rule="evenodd" fill="#FFFFFF" points="36.3,33.3 40.3,29.4 41.1,29.4 36.3,34.1 "/>
</svg>
