<svg xmlns="http://www.w3.org/2000/svg" xmlns:xlink="http://www.w3.org/1999/xlink" preserveAspectRatio="xMidYMid" width="29.4" height="42.47" viewBox="0 0 29.4 42.47">
  <defs>
    <style>
      .cls-1 {
        fill: #ff8008;
        fill-rule: evenodd;
      }
    </style>
  </defs>
  <path d="M29.323,40.701 L24.103,14.778 L25.531,11.940 C25.749,11.880 25.954,11.771 26.121,11.605 L28.114,9.626 C28.418,9.325 28.557,8.896 28.488,8.475 C28.420,8.054 28.151,7.691 27.767,7.500 L29.245,4.565 C29.574,3.909 29.307,3.112 28.647,2.784 C27.986,2.456 27.184,2.722 26.853,3.378 L25.376,6.313 C24.991,6.123 24.538,6.127 24.157,6.324 C23.777,6.522 23.516,6.890 23.455,7.312 L23.098,9.788 L21.340,1.055 C21.215,0.435 20.667,-0.011 20.030,-0.011 L9.337,-0.011 C8.700,-0.011 8.151,0.435 8.027,1.055 L0.008,40.882 C-0.071,41.272 0.030,41.677 0.284,41.984 C0.538,42.292 0.917,42.470 1.318,42.470 L28.049,42.470 C28.053,42.470 28.057,42.470 28.062,42.470 C28.800,42.470 29.399,41.876 29.399,41.143 C29.399,40.988 29.372,40.839 29.323,40.701 ZM24.279,29.195 L16.846,29.195 L22.156,18.646 L24.279,29.195 ZM10.432,2.644 L18.933,2.644 L21.302,14.405 L13.857,29.195 L5.086,29.195 L10.432,2.644 ZM2.948,39.815 L4.552,31.850 L24.815,31.850 L26.419,39.815 L2.948,39.815 Z" class="cls-1"/>
</svg>
