<?xml version="1.0" encoding="utf-8"?>
<!-- Generator: Adobe Illustrator 17.1.0, SVG Export Plug-In . SVG Version: 6.00 Build 0)  -->
<!DOCTYPE svg PUBLIC "-//W3C//DTD SVG 1.1//EN" "http://www.w3.org/Graphics/SVG/1.1/DTD/svg11.dtd">
<svg version="1.1" id="ON_DARK_BLUE" xmlns="http://www.w3.org/2000/svg" xmlns:xlink="http://www.w3.org/1999/xlink" x="0px"
	 y="0px" viewBox="0 0 1179.4 260" enable-background="new 0 0 1179.4 260" xml:space="preserve">
<g id="Gradient_1_">
	<g id="Blue_Icon_x5F_Dark_Blue_x5F_Name_3_">
		<g id="Icon_v1_2_" display="none">
			<g id="Clipping_Mask_2_" display="inline">
				<defs>
					<path id="Icon_Compound_Shape_3_" d="M56,130c0,15.5-12.5,28-28,28S0,145.5,0,130s12.5-28,28-28S56,114.5,56,130z M269.3,102
						c-15.5,0-28,12.5-28,28s12.5,28,28,28s28-12.5,28-28S284.8,102,269.3,102z M148.7,0c-15.5,0-28,12.5-28,28s12.5,28,28,28
						s28-12.5,28-28S164.1,0,148.7,0z M158,181L158,181c0-11.9,4-23.7,11.8-32.6c4.8-5.6,7.5-13.1,6.7-21.2
						c-1.3-13.5-12.5-24.3-26-25.1c-16.3-1-29.8,11.9-29.8,27.9c0,6.9,2.5,13.3,6.7,18.2c7.8,9.1,12,20.8,12,32.8v0
						c0,11.9-4,23.6-11.8,32.6c-4.8,5.6-7.5,13.1-6.7,21.2c1.3,13.5,12.5,24.3,26,25.1c16.3,1,29.8-11.9,29.8-27.9
						c0-6.9-2.5-13.3-6.7-18.2C162.2,204.7,158,193,158,181z M218.3,130L218.3,130c0-11.9,4-23.6,11.8-32.6
						c4.8-5.6,7.5-13.1,6.7-21.2c-1.3-13.5-12.5-24.3-26-25.1C194.5,50,181,62.9,181,79c0,6.9,2.5,13.3,6.7,18.2
						c7.8,9.1,12,20.8,12,32.8v0c0,11.9-4,23.6-11.8,32.6c-4.8,5.6-7.5,13.1-6.7,21.2c1.3,13.5,12.5,24.3,26,25.1
						c16.3,1,29.8-11.9,29.8-27.9c0-6.9-2.5-13.3-6.7-18.2C222.5,153.7,218.3,142,218.3,130z M97.6,130L97.6,130
						c0-11.9,4-23.6,11.8-32.6c4.8-5.6,7.5-13.1,6.7-21.2c-1.3-13.5-12.5-24.3-26-25.1C73.9,50,60.3,62.9,60.3,79
						c0,6.9,2.5,13.3,6.7,18.2c7.8,9.1,12,20.8,12,32.8v0c0,11.9-4,23.6-11.8,32.6c-4.8,5.6-7.5,13.1-6.7,21.2
						c1.3,13.5,12.5,24.3,26,25.1c16.3,1,29.8-11.9,29.8-27.9c0-6.9-2.5-13.3-6.7-18.2C101.8,153.7,97.6,142,97.6,130z"/>
				</defs>
				<clipPath id="Icon_Compound_Shape_1_">
					<use xlink:href="#Icon_Compound_Shape_3_"  overflow="visible"/>
				</clipPath>
				<linearGradient id="XMLID_2_" gradientUnits="userSpaceOnUse" x1="55.1972" y1="-31.8681" x2="242.1153" y2="291.8837">
					<stop  offset="0" style="stop-color:#00C6FF"/>
					<stop  offset="1" style="stop-color:#0072FF"/>
				</linearGradient>
				<rect id="XMLID_3_" y="0" clip-path="url(#Icon_Compound_Shape_1_)" fill="url(#XMLID_2_)" width="297.3" height="260"/>
			</g>
		</g>
		<g id="Icon_v2_2_" display="none">
			<g id="Divided_2_" display="inline">
				<linearGradient id="SVGID_1_" gradientUnits="userSpaceOnUse" x1="-35.295" y1="20.3776" x2="151.6232" y2="344.1294">
					<stop  offset="0" style="stop-color:#00C6FF"/>
					<stop  offset="1" style="stop-color:#0072FF"/>
				</linearGradient>
				<circle fill="url(#SVGID_1_)" cx="28" cy="130" r="28"/>
				<linearGradient id="SVGID_2_" gradientUnits="userSpaceOnUse" x1="99.3678" y1="-57.37" x2="286.286" y2="266.3817">
					<stop  offset="0" style="stop-color:#00C6FF"/>
					<stop  offset="1" style="stop-color:#0072FF"/>
				</linearGradient>
				<circle fill="url(#SVGID_2_)" cx="148.7" cy="28" r="28"/>
				<linearGradient id="SVGID_3_" gradientUnits="userSpaceOnUse" x1="145.6893" y1="-84.1138" x2="332.6075" y2="239.638">
					<stop  offset="0" style="stop-color:#00C6FF"/>
					<stop  offset="1" style="stop-color:#0072FF"/>
				</linearGradient>
				<circle fill="url(#SVGID_3_)" cx="269.3" cy="130" r="28"/>
				<linearGradient id="SVGID_4_" gradientUnits="userSpaceOnUse" x1="100.4472" y1="-57.9932" x2="287.3653" y2="265.7586">
					<stop  offset="0" style="stop-color:#00C6FF"/>
					<stop  offset="1" style="stop-color:#0072FF"/>
				</linearGradient>
				<path fill="url(#SVGID_4_)" d="M218.3,130L218.3,130c0-11.9,4-23.6,11.8-32.6c4.8-5.6,7.5-13.1,6.7-21.2
					c-1.3-13.5-12.5-24.3-26-25.1C194.5,50,181,62.9,181,79c0,6.9,2.5,13.3,6.7,18.2c7.8,9.1,12,20.8,12,32.8v0
					c0,11.9-4,23.6-11.8,32.6c-4.8,5.6-7.5,13.1-6.7,21.2c1.3,13.5,12.5,24.3,26,25.1c16.3,1,29.8-11.9,29.8-27.9
					c0-6.9-2.5-13.3-6.7-18.2C222.5,153.7,218.3,142,218.3,130z"/>
				<linearGradient id="SVGID_5_" gradientUnits="userSpaceOnUse" x1="9.9472" y1="-5.743" x2="196.8653" y2="318.0088">
					<stop  offset="0" style="stop-color:#00C6FF"/>
					<stop  offset="1" style="stop-color:#0072FF"/>
				</linearGradient>
				<path fill="url(#SVGID_5_)" d="M97.6,130L97.6,130c0-11.9,4-23.6,11.8-32.6c4.8-5.6,7.5-13.1,6.7-21.2
					c-1.3-13.5-12.5-24.3-26-25.1C73.9,50,60.3,62.9,60.3,79c0,6.9,2.5,13.3,6.7,18.2c7.8,9.1,12,20.8,12,32.8v0
					c0,11.9-4,23.6-11.8,32.6c-4.8,5.6-7.5,13.1-6.7,21.2c1.3,13.5,12.5,24.3,26,25.1c16.3,1,29.8-11.9,29.8-27.9
					c0-6.9-2.5-13.3-6.7-18.2C101.8,153.7,97.6,142,97.6,130z"/>
				<linearGradient id="SVGID_6_" gradientUnits="userSpaceOnUse" x1="33.1118" y1="-19.1171" x2="220.03" y2="304.6347">
					<stop  offset="0" style="stop-color:#00C6FF"/>
					<stop  offset="1" style="stop-color:#0072FF"/>
				</linearGradient>
				<path fill="url(#SVGID_6_)" d="M158,181L158,181c0-11.9,4-23.7,11.8-32.6c4.8-5.6,7.5-13.1,6.7-21.2
					c-1.3-13.5-12.5-24.3-26-25.1c-16.3-1-29.8,11.9-29.8,27.9c0,6.9,2.5,13.3,6.7,18.2c7.8,9.1,12,20.8,12,32.8v0
					c0,11.9-4,23.6-11.8,32.6c-4.8,5.6-7.5,13.1-6.7,21.2c1.3,13.5,12.5,24.3,26,25.1c16.3,1,29.8-11.9,29.8-27.9
					c0-6.9-2.5-13.3-6.7-18.2C162.2,204.7,158,193,158,181z"/>
			</g>
		</g>
		<g id="Icon_v3_2_">
			<g id="Intersect_2_">
				<path fill="#3488FA" d="M218.3,130L218.3,130c0-11.9,4-23.6,11.8-32.6c4.8-5.6,7.5-13.1,6.7-21.2c-1.3-13.5-12.5-24.3-26-25.1
					C194.5,50,181,62.9,181,79c0,6.9,2.5,13.3,6.7,18.2c7.8,9.1,12,20.8,12,32.8v0c0,11.9-4,23.6-11.8,32.6
					c-4.8,5.6-7.5,13.1-6.7,21.2c1.3,13.5,12.5,24.3,26,25.1c16.3,1,29.8-11.9,29.8-27.9c0-6.9-2.5-13.3-6.7-18.2
					C222.5,153.7,218.3,142,218.3,130z"/>
				<path fill="#3488FA" d="M169.8,148.4c4.8-5.6,7.5-13.1,6.7-21.2c-1.3-13.5-12.5-24.3-26-25.1c-16.3-1-29.8,11.9-29.8,27.9
					c0,6.9,2.5,13.3,6.7,18.2c7.8,9.1,12,20.8,12,32.8v0c0,11.9-4,23.6-11.8,32.6c-4.8,5.6-7.5,13.1-6.7,21.2
					c1.3,13.5,12.5,24.3,26,25.1c16.3,1,29.8-11.9,29.8-27.9c0-6.9-2.5-13.3-6.7-18.2c-7.8-9.1-12-20.8-12-32.8v0
					C158,169.1,162,157.4,169.8,148.4z"/>
				<path fill="#3488FA" d="M79,130L79,130c0,11.9-4,23.6-11.8,32.6c-4.8,5.6-7.5,13.1-6.7,21.2c1.3,13.5,12.5,24.3,26,25.1
					c16.3,1,29.8-11.9,29.8-27.9c0-6.9-2.5-13.3-6.7-18.2c-7.8-9.1-12-20.8-12-32.8v0c0-11.9,4-23.6,11.8-32.6
					c4.8-5.6,7.5-13.1,6.7-21.2c-1.3-13.5-12.5-24.3-26-25.1C73.9,50,60.3,62.9,60.3,79c0,6.9,2.5,13.3,6.7,18.2
					C74.8,106.3,79,118,79,130z"/>
				<circle fill="#3488FA" cx="148.7" cy="28" r="28"/>
				<circle fill="#3488FA" cx="269.3" cy="130" r="28"/>
				<circle fill="#3488FA" cx="28" cy="130" r="28"/>
			</g>
		</g>
		<g id="Name_3_">
			<g id="Tall_copy_8">
			</g>
			<g id="Wide_copy_8">
				<g id="SOUNDSTR_15_">
					<path fill="#041B30" d="M382.9,157.3c2.3,3.4,5.2,6,8.8,7.6c3.6,1.6,7.3,2.5,11.1,2.5c2.1,0,4.3-0.3,6.5-1c2.2-0.7,4.2-1.7,6-3
						c1.8-1.3,3.3-3,4.4-4.9c1.1-1.9,1.7-4.2,1.7-6.8c0-3.6-1.1-6.4-3.4-8.3c-2.3-1.9-5.1-3.5-8.5-4.8c-3.4-1.3-7.1-2.5-11.1-3.7
						c-4-1.2-7.7-2.8-11.1-5c-3.4-2.1-6.3-5-8.5-8.5c-2.3-3.6-3.4-8.4-3.4-14.5c0-2.7,0.6-5.7,1.8-8.7c1.2-3.1,3.1-5.9,5.6-8.5
						c2.6-2.6,5.9-4.7,9.9-6.4c4-1.7,8.9-2.6,14.5-2.6c5.1,0,10,0.7,14.7,2.1c4.7,1.4,8.8,4.3,12.3,8.6l-10.3,9.4
						c-1.6-2.5-3.8-4.5-6.8-6c-2.9-1.5-6.2-2.3-9.9-2.3c-3.5,0-6.5,0.5-8.8,1.4c-2.3,0.9-4.2,2.1-5.6,3.6c-1.4,1.5-2.4,3-3,4.7
						c-0.6,1.7-0.9,3.2-0.9,4.6c0,4,1.1,7,3.4,9.1c2.3,2.1,5.1,3.8,8.5,5.2c3.4,1.3,7.1,2.5,11.1,3.6c4,1.1,7.7,2.5,11.1,4.4
						c3.4,1.9,6.2,4.5,8.5,7.7c2.3,3.2,3.4,7.7,3.4,13.3c0,4.5-0.9,8.6-2.6,12.2c-1.7,3.6-4,6.7-7,9.1c-2.9,2.5-6.4,4.4-10.3,5.7
						c-4,1.3-8.2,2-12.7,2c-6,0-11.7-1.1-17.1-3.2c-5.4-2.1-9.7-5.4-12.9-9.8L382.9,157.3z"/>
					<path fill="#041B30" d="M511.4,179.3c-7.2,0-13.7-1.3-19.7-3.8c-6-2.5-11.2-6-15.4-10.4c-4.3-4.4-7.6-9.6-10.1-15.6
						c-2.4-6-3.6-12.5-3.6-19.5c0-7,1.2-13.5,3.6-19.5c2.4-6,5.8-11.2,10.1-15.6c4.3-4.4,9.4-7.9,15.4-10.4c6-2.5,12.6-3.8,19.7-3.8
						c7.2,0,13.7,1.3,19.7,3.8c6,2.5,11.2,6,15.4,10.4c4.3,4.4,7.6,9.6,10.1,15.6c2.4,6,3.6,12.5,3.6,19.5c0,7-1.2,13.5-3.6,19.5
						c-2.4,6-5.8,11.2-10.1,15.6c-4.3,4.4-9.4,7.9-15.4,10.4C525.1,178,518.6,179.3,511.4,179.3z M511.4,167.4c5.4,0,10.2-1,14.6-3
						c4.3-2,8-4.7,11.1-8c3.1-3.4,5.5-7.3,7.2-11.9c1.7-4.5,2.5-9.4,2.5-14.5c0-5.1-0.8-10-2.5-14.5c-1.7-4.5-4.1-8.5-7.2-11.9
						c-3.1-3.4-6.8-6-11.1-8s-9.2-3-14.6-3c-5.4,0-10.2,1-14.6,3c-4.3,2-8,4.7-11.1,8c-3.1,3.4-5.5,7.3-7.2,11.9
						c-1.7,4.6-2.5,9.4-2.5,14.5c0,5.1,0.8,10,2.5,14.5c1.7,4.6,4.1,8.5,7.2,11.9c3.1,3.4,6.8,6,11.1,8
						C501.2,166.4,506,167.4,511.4,167.4z"/>
					<path fill="#041B30" d="M604.2,83.1v57.5c0,2.9,0.4,5.9,1.2,9.1c0.8,3.1,2.1,6,4,8.7c1.9,2.7,4.3,4.8,7.3,6.5
						c3,1.7,6.7,2.5,11.1,2.5c4.4,0,8.1-0.8,11.1-2.5c3-1.7,5.4-3.8,7.3-6.5c1.9-2.7,3.2-5.5,4-8.7c0.8-3.1,1.2-6.2,1.2-9.1V83.1
						h12.7v59.5c0,5.5-0.9,10.4-2.8,14.9c-1.9,4.5-4.4,8.3-7.7,11.6c-3.3,3.3-7.1,5.8-11.5,7.6c-4.4,1.8-9.2,2.7-14.3,2.7
						c-5.1,0-9.9-0.9-14.3-2.7c-4.4-1.8-8.3-4.3-11.5-7.6c-3.3-3.3-5.8-7.1-7.7-11.6c-1.9-4.5-2.8-9.4-2.8-14.9V83.1H604.2z"/>
					<path fill="#041B30" d="M701,83.1h16.7l51.7,77.1h0.3V83.1h12.7v93.8h-16.2L714,99.8h-0.3v77.1H701V83.1z"/>
					<path fill="#041B30" d="M819,83.1h32.7c6.6,0,12.4,0.8,17.4,2.3c5,1.5,9.3,3.5,13,6c3.7,2.5,6.7,5.4,9.1,8.7
						c2.4,3.3,4.4,6.6,5.8,10.1c1.4,3.4,2.4,6.9,3,10.3c0.6,3.4,0.9,6.6,0.9,9.5c0,6-1.1,11.8-3.3,17.4c-2.2,5.6-5.5,10.6-9.8,15
						c-4.3,4.4-9.7,7.9-16.1,10.5c-6.4,2.6-13.8,4-22.2,4H819V83.1z M831.7,165h16c5.4,0,10.5-0.7,15.3-2.2c4.8-1.5,9-3.6,12.7-6.6
						c3.6-2.9,6.5-6.6,8.6-10.9c2.1-4.4,3.2-9.5,3.2-15.3c0-3-0.5-6.5-1.5-10.5c-1-4-2.8-7.8-5.5-11.5c-2.7-3.6-6.4-6.7-11.2-9.2
						c-4.8-2.5-11-3.8-18.6-3.8h-19.1V165z"/>
					<path fill="#041B30" d="M936.7,157.3c2.3,3.4,5.2,6,8.8,7.6c3.6,1.6,7.3,2.5,11.1,2.5c2.1,0,4.3-0.3,6.5-1c2.2-0.7,4.2-1.7,6-3
						c1.8-1.3,3.3-3,4.4-4.9c1.1-1.9,1.7-4.2,1.7-6.8c0-3.6-1.1-6.4-3.4-8.3c-2.3-1.9-5.1-3.5-8.5-4.8c-3.4-1.3-7.1-2.5-11.1-3.7
						c-4-1.2-7.7-2.8-11.1-5c-3.4-2.1-6.3-5-8.5-8.5c-2.3-3.6-3.4-8.4-3.4-14.5c0-2.7,0.6-5.7,1.8-8.7c1.2-3.1,3.1-5.9,5.6-8.5
						c2.6-2.6,5.9-4.7,9.9-6.4c4-1.7,8.9-2.6,14.5-2.6c5.1,0,10,0.7,14.7,2.1c4.7,1.4,8.8,4.3,12.3,8.6l-10.3,9.4
						c-1.6-2.5-3.8-4.5-6.8-6c-2.9-1.5-6.2-2.3-9.9-2.3c-3.5,0-6.5,0.5-8.8,1.4c-2.3,0.9-4.2,2.1-5.6,3.6c-1.4,1.5-2.4,3-3,4.7
						c-0.6,1.7-0.9,3.2-0.9,4.6c0,4,1.1,7,3.4,9.1s5.1,3.8,8.5,5.2c3.4,1.3,7.1,2.5,11.1,3.6c4,1.1,7.7,2.5,11.1,4.4
						c3.4,1.9,6.2,4.5,8.5,7.7c2.3,3.2,3.4,7.7,3.4,13.3c0,4.5-0.9,8.6-2.6,12.2c-1.7,3.6-4,6.7-7,9.1c-2.9,2.5-6.4,4.4-10.3,5.7
						c-4,1.3-8.2,2-12.7,2c-6,0-11.7-1.1-17.1-3.2c-5.4-2.1-9.7-5.4-12.9-9.8L936.7,157.3z"/>
					<path fill="#041B30" d="M1041.7,95h-30.2V83.1h73.2V95h-30.2v81.9h-12.7V95z"/>
					<path fill="#041B30" d="M1112.8,83.1h33c6,0,11,0.8,14.8,2.5c3.9,1.6,7,3.7,9.2,6.2c2.3,2.5,3.8,5.3,4.7,8.5
						c0.9,3.1,1.3,6.2,1.3,9.1c0,3-0.5,5.9-1.6,8.7c-1.1,2.8-2.6,5.3-4.6,7.6c-2,2.3-4.4,4.2-7.3,5.7c-2.9,1.5-6.1,2.5-9.6,2.8
						l26.6,42.8h-15.9l-23.9-41.3h-14.2v41.3h-12.7V83.1z M1125.5,124.4h16.7c2.5,0,4.9-0.2,7.4-0.6c2.4-0.4,4.6-1.1,6.5-2.2
						c1.9-1.1,3.4-2.6,4.6-4.6c1.1-2,1.7-4.6,1.7-7.8c0-3.2-0.6-5.8-1.7-7.8s-2.7-3.5-4.6-4.6c-1.9-1.1-4.1-1.8-6.5-2.2
						c-2.4-0.4-4.9-0.6-7.4-0.6h-16.7V124.4z"/>
				</g>
			</g>
		</g>
	</g>
</g>
</svg>
