<svg xmlns="http://www.w3.org/2000/svg" xmlns:xlink="http://www.w3.org/1999/xlink" preserveAspectRatio="xMidYMid" width="33" height="33" viewBox="0 0 33 33">
  <defs>
    <style>
      .cls-1 {
        fill: #f2f6f8;
      }

      .cls-2 {
        fill: #8f9aa3;
        fill-rule: evenodd;
      }
    </style>
  </defs>
  <g>
    <rect width="33" height="33" rx="6" ry="6" class="cls-1"/>
    <path d="M27.046,33.000 L5.958,33.000 C2.673,33.000 0.000,30.328 0.000,27.043 L0.000,5.957 C0.000,2.672 2.673,0.000 5.958,0.000 L27.075,0.000 C28.674,0.000 30.173,0.625 31.296,1.758 C32.412,2.884 33.018,4.377 33.003,5.960 L33.003,27.043 C33.003,30.328 30.331,33.000 27.046,33.000 ZM31.617,27.367 L31.617,5.957 C31.617,3.437 29.566,1.386 27.046,1.386 L5.958,1.386 C3.437,1.386 1.386,3.437 1.386,5.957 L1.386,27.072 C1.386,29.593 3.437,31.643 5.958,31.643 L27.075,31.643 C29.497,31.643 31.485,29.750 31.637,27.367 L31.617,27.367 ZM27.075,16.544 L25.129,16.544 L25.129,21.793 C25.129,22.161 24.818,22.472 24.450,22.472 C24.082,22.472 23.772,22.161 23.772,21.793 L23.772,16.544 L21.825,16.544 C20.720,16.544 19.820,15.644 19.820,14.539 L19.820,13.212 C19.820,12.106 20.720,11.207 21.825,11.207 L23.772,11.207 L23.772,5.957 C23.772,5.589 24.082,5.279 24.450,5.279 C24.818,5.279 25.129,5.589 25.129,5.957 L25.129,11.207 L27.075,11.207 C28.181,11.207 29.080,12.106 29.080,13.212 L29.080,14.539 C29.080,15.644 28.181,16.544 27.075,16.544 ZM27.665,13.212 C27.665,12.876 27.381,12.593 27.046,12.593 L21.796,12.593 C21.460,12.593 21.176,12.876 21.176,13.212 L21.176,14.539 C21.176,14.875 21.460,15.158 21.796,15.158 L27.075,15.158 C27.346,15.158 27.584,14.973 27.665,14.724 L27.665,13.212 ZM19.171,11.266 L17.224,11.266 L17.224,21.793 C17.224,22.161 16.914,22.472 16.546,22.472 C16.178,22.472 15.868,22.161 15.868,21.793 L15.868,11.266 L13.921,11.266 C12.815,11.266 11.915,10.366 11.915,9.260 L11.915,7.933 C11.915,6.827 12.815,5.928 13.921,5.928 L15.868,5.928 C15.884,5.573 16.188,5.279 16.546,5.279 C16.904,5.279 17.208,5.573 17.224,5.928 L19.171,5.928 C20.277,5.928 21.176,6.827 21.176,7.933 L21.176,9.260 C21.176,10.366 20.277,11.266 19.171,11.266 ZM19.790,7.933 C19.790,7.597 19.506,7.314 19.171,7.314 L13.892,7.314 C13.556,7.314 13.272,7.597 13.272,7.933 L13.272,9.260 C13.272,9.596 13.556,9.879 13.892,9.879 L19.171,9.879 C19.506,9.879 19.790,9.596 19.790,9.260 L19.790,7.933 ZM13.243,15.837 L13.243,17.163 C13.243,18.269 12.343,19.169 11.237,19.169 L9.291,19.169 L9.291,21.793 C9.291,22.161 8.980,22.472 8.612,22.472 C8.244,22.472 7.934,22.161 7.934,21.793 L7.934,19.198 L5.987,19.198 C4.881,19.198 3.982,18.299 3.982,17.193 L3.982,15.866 C3.982,14.760 4.881,13.861 5.987,13.861 L7.934,13.861 L7.934,5.957 C7.934,5.589 8.244,5.279 8.612,5.279 C8.980,5.279 9.291,5.589 9.291,5.957 L9.291,13.861 L11.237,13.861 C12.343,13.861 13.243,14.747 13.243,15.837 ZM11.857,15.837 C11.857,15.501 11.573,15.217 11.237,15.217 L5.958,15.217 C5.622,15.217 5.338,15.501 5.338,15.837 L5.338,17.163 C5.338,17.499 5.622,17.783 5.958,17.783 L11.237,17.783 C11.573,17.783 11.857,17.499 11.857,17.163 L11.857,15.837 ZM8.612,24.389 C10.076,24.389 11.267,25.579 11.267,27.043 C11.267,28.506 10.076,29.697 8.612,29.697 C7.149,29.697 5.958,28.506 5.958,27.043 C5.958,25.579 7.149,24.389 8.612,24.389 ZM8.612,28.340 C9.304,28.340 9.886,27.754 9.910,27.033 C9.910,26.315 9.340,25.745 8.612,25.745 C7.885,25.745 7.314,26.315 7.314,27.043 C7.314,27.770 7.885,28.340 8.612,28.340 ZM16.516,24.389 C17.980,24.389 19.171,25.579 19.171,27.043 C19.171,28.506 17.980,29.697 16.516,29.697 C15.053,29.697 13.862,28.506 13.862,27.043 C13.862,25.579 15.053,24.389 16.516,24.389 ZM16.516,28.340 C17.244,28.340 17.814,27.770 17.814,27.043 C17.814,26.315 17.244,25.745 16.516,25.745 C15.789,25.745 15.219,26.315 15.219,27.043 C15.219,27.770 15.789,28.340 16.516,28.340 ZM24.421,24.389 C25.153,24.389 25.834,24.673 26.339,25.189 C26.830,25.691 27.091,26.352 27.075,27.049 C27.075,28.506 25.884,29.697 24.421,29.697 C22.957,29.697 21.766,28.506 21.766,27.043 C21.766,25.579 22.957,24.389 24.421,24.389 ZM23.123,27.043 C23.123,27.770 23.693,28.340 24.421,28.340 C25.148,28.340 25.718,27.770 25.718,27.043 C25.718,26.315 25.148,25.745 24.421,25.745 C23.693,25.745 23.123,26.315 23.123,27.043 Z" class="cls-2"/>
  </g>
</svg>
