<?xml version="1.0" encoding="utf-8"?>
<!-- Generator: Adobe Illustrator 17.1.0, SVG Export Plug-In . SVG Version: 6.00 Build 0)  -->
<!DOCTYPE svg PUBLIC "-//W3C//DTD SVG 1.1//EN" "http://www.w3.org/Graphics/SVG/1.1/DTD/svg11.dtd">
<svg version="1.1" xmlns="http://www.w3.org/2000/svg" xmlns:xlink="http://www.w3.org/1999/xlink" x="0px" y="0px"
	 viewBox="0 0 62.4 62.4" enable-background="new 0 0 62.4 62.4" xml:space="preserve">
<g id="v1" display="none">
	<linearGradient id="SVGID_1_" gradientUnits="userSpaceOnUse" x1="9.1503" y1="53.2122" x2="53.212" y2="9.1504">
		<stop  offset="0" style="stop-color:#0D0D0D"/>
		<stop  offset="1" style="stop-color:#333333"/>
	</linearGradient>
	<path fill-rule="evenodd" clip-rule="evenodd" fill="url(#SVGID_1_)" d="M31.2,62.4c17.2,0,31.2-14,31.2-31.2S48.4,0,31.2,0
		S0,14,0,31.2S14,62.4,31.2,62.4z"/>
	<linearGradient id="SVGID_2_" gradientUnits="userSpaceOnUse" x1="9.1503" y1="53.2122" x2="53.212" y2="9.1504">
		<stop  offset="0" style="stop-color:#203447"/>
		<stop  offset="1" style="stop-color:#3C4E5E"/>
	</linearGradient>
	<path display="inline" fill-rule="evenodd" clip-rule="evenodd" fill="url(#SVGID_2_)" d="M31.2,62.4c17.2,0,31.2-14,31.2-31.2
		S48.4,0,31.2,0S0,14,0,31.2S14,62.4,31.2,62.4z"/>
	<g>
		
			<rect x="19.9" y="26.8" transform="matrix(0.7071 0.7071 -0.7071 0.7071 47.7471 -19.0397)" display="inline" fill-rule="evenodd" clip-rule="evenodd" fill="#041B30" width="53.9" height="42.6"/>
		
			<rect x="15.8" y="20.7" transform="matrix(0.7071 0.7071 -0.7071 0.7071 42.1422 -17.9287)" display="inline" fill-rule="evenodd" clip-rule="evenodd" fill="#041B30" width="53.9" height="42.4"/>
	</g>
	<linearGradient id="SVGID_3_" gradientUnits="userSpaceOnUse" x1="28.3002" y1="28.5714" x2="53.0744" y2="53.3455">
		<stop  offset="0.1411" style="stop-color:#000000"/>
		<stop  offset="1" style="stop-color:#000000;stop-opacity:0"/>
	</linearGradient>
	<path display="inline" opacity="0.4" fill-rule="evenodd" clip-rule="evenodd" fill="url(#SVGID_3_)" d="M62.4,31.5L45.6,14.8l-1,1
		L42.9,14L12.8,44.1L31,62.4c0.1,0,0.1,0,0.2,0C48.2,62.4,62.2,48.5,62.4,31.5z"/>
	<path fill-rule="evenodd" clip-rule="evenodd" fill="#E4772B" d="M62.3,32.6c-0.7,16.6-14.4,29.8-31.1,29.8c-0.7,0-1.4,0-2.1-0.1
		L12,45.1l38.5-24.5L62.3,32.6z"/>
	<linearGradient id="SVGID_4_" gradientUnits="userSpaceOnUse" x1="11.9617" y1="21.1892" x2="50.4102" y2="21.1892">
		<stop  offset="0" style="stop-color:#FFC837"/>
		<stop  offset="1" style="stop-color:#FFDF3F"/>
	</linearGradient>
	<path display="inline" fill="url(#SVGID_4_)" d="M49,20.2L32.1,7c-0.5-0.4-1.2-0.4-1.8,0L13.4,20.2c-0.9,0.6-1.4,1.6-1.4,2.6v1.5
		v11.2h38.4V24.4v-1.5C50.4,21.8,49.9,20.8,49,20.2z"/>
	<linearGradient id="SVGID_5_" gradientUnits="userSpaceOnUse" x1="16.7678" y1="25.9952" x2="45.6041" y2="25.9952">
		<stop  offset="0.2918" style="stop-color:#FFFFFF"/>
		<stop  offset="1" style="stop-color:#D9D9D9"/>
	</linearGradient>
	<path display="inline" fill="url(#SVGID_5_)" d="M42.4,45.2H20c-1.8,0-3.2-1.4-3.2-3.2V10c0-1.8,1.4-3.2,3.2-3.2h17.6l8,8V42
		C45.6,43.8,44.2,45.2,42.4,45.2z"/>
	<linearGradient id="SVGID_6_" gradientUnits="userSpaceOnUse" x1="11.9617" y1="34.8063" x2="50.4102" y2="34.8063">
		<stop  offset="0" style="stop-color:#FF8008"/>
		<stop  offset="1" style="stop-color:#FFC837"/>
	</linearGradient>
	<path display="inline" fill="url(#SVGID_6_)" d="M30.4,35.1L12,24.4V42c0,1.8,1.4,3.2,3.2,3.2h32c1.8,0,3.2-1.4,3.2-3.2V24.4
		L32,35.1C31.5,35.4,30.9,35.4,30.4,35.1z"/>
	<linearGradient id="SVGID_7_" gradientUnits="userSpaceOnUse" x1="11.9617" y1="37.2094" x2="50.4102" y2="37.2094">
		<stop  offset="0" style="stop-color:#FF6300"/>
		<stop  offset="1" style="stop-color:#FF8737"/>
	</linearGradient>
	<path display="inline" fill="url(#SVGID_7_)" d="M12,40.4V42c0,1.8,1.4,3.2,3.2,3.2h32c1.8,0,3.2-1.4,3.2-3.2v-1.6L31.2,29.2
		L12,40.4z"/>
	<polygon display="inline" fill="#CED7DA" points="41.6,10.8 38.5,13.8 45.6,21.2 45.6,14.8 	"/>
	<linearGradient id="SVGID_8_" gradientUnits="userSpaceOnUse" x1="37.594" y1="10.776" x2="45.6041" y2="10.776">
		<stop  offset="0" style="stop-color:#C7CCD1"/>
		<stop  offset="1" style="stop-color:#8F9AA3"/>
	</linearGradient>
	<path display="inline" fill="url(#SVGID_8_)" d="M37.6,6.8v4.8c0,0.9,0.3,1.6,0.9,2.2c0.6,0.6,1.4,1,2.3,1h4.8L37.6,6.8z"/>
	<rect x="20" y="14.8" display="inline" fill="#586775" width="16" height="1.6"/>
	<rect x="20" y="18" display="inline" fill="#586775" width="19.2" height="1.6"/>
	<rect x="20" y="21.2" display="inline" fill="#586775" width="12.8" height="1.6"/>
</g>
<g id="v2">
	<linearGradient id="SVGID_9_" gradientUnits="userSpaceOnUse" x1="9.1503" y1="53.2122" x2="53.212" y2="9.1504">
		<stop  offset="0" style="stop-color:#0D0D0D"/>
		<stop  offset="1" style="stop-color:#333333"/>
	</linearGradient>
	<path display="none" fill-rule="evenodd" clip-rule="evenodd" fill="url(#SVGID_9_)" d="M31.2,62.4c17.2,0,31.2-14,31.2-31.2
		S48.4,0,31.2,0S0,14,0,31.2S14,62.4,31.2,62.4z"/>
	<linearGradient id="SVGID_10_" gradientUnits="userSpaceOnUse" x1="9.1503" y1="53.2122" x2="53.212" y2="9.1504">
		<stop  offset="0" style="stop-color:#203447"/>
		<stop  offset="1" style="stop-color:#3C4E5E"/>
	</linearGradient>
	<path fill-rule="evenodd" clip-rule="evenodd" fill="url(#SVGID_10_)" d="M31.2,62.4c17.2,0,31.2-14,31.2-31.2S48.4,0,31.2,0
		S0,14,0,31.2S14,62.4,31.2,62.4z"/>
	<g display="none">
		
			<rect x="25" y="39.1" transform="matrix(0.7071 0.7071 -0.7071 0.7071 59.7078 -20.0323)" display="inline" fill-rule="evenodd" clip-rule="evenodd" fill="#041B30" width="58" height="45.8"/>
		
			<rect x="26" y="34.8" transform="matrix(0.7071 0.7071 -0.7071 0.7071 55.9011 -19.7584)" display="inline" fill-rule="evenodd" clip-rule="evenodd" fill="#041B30" width="51.7" height="45.7"/>
	</g>
	<linearGradient id="SVGID_11_" gradientUnits="userSpaceOnUse" x1="32.944" y1="39.9028" x2="49.7301" y2="56.6889">
		<stop  offset="0.1411" style="stop-color:#000000"/>
		<stop  offset="1" style="stop-color:#000000;stop-opacity:0"/>
	</linearGradient>
	<path opacity="0.4" fill-rule="evenodd" clip-rule="evenodd" fill="url(#SVGID_11_)" d="M49.7,23.2L17.4,55.5l1.1,1.1l-1.2,1.2
		l2.4,2.4c3.5,1.4,7.4,2.2,11.4,2.2c15.7,0,28.7-11.7,30.9-26.8L49.7,23.2z"/>
	<g>
		<defs>
			<path id="SVGID_12_" d="M31.2,62.4c17.2,0,31.2-14,31.2-31.2S48.4,0,31.2,0S0,14,0,31.2S14,62.4,31.2,62.4z"/>
		</defs>
		<clipPath id="SVGID_13_">
			<use xlink:href="#SVGID_12_"  overflow="visible"/>
		</clipPath>
		<g id="Mail" clip-path="url(#SVGID_13_)">
			<linearGradient id="SVGID_14_" gradientUnits="userSpaceOnUse" x1="6.5216" y1="31.3907" x2="55.8409" y2="31.3907">
				<stop  offset="0" style="stop-color:#FFC837"/>
				<stop  offset="1" style="stop-color:#FFDF3F"/>
			</linearGradient>
			<path fill="url(#SVGID_14_)" d="M54.1,30.2L32.3,13.2c-0.7-0.5-1.6-0.5-2.3,0L8.3,30.2c-1.1,0.8-1.8,2-1.8,3.4v1.9v14.4h49.3
				V35.5v-1.9C55.8,32.2,55.2,30.9,54.1,30.2z"/>
			<linearGradient id="SVGID_15_" gradientUnits="userSpaceOnUse" x1="12.6865" y1="37.5556" x2="49.676" y2="37.5556">
				<stop  offset="0.2918" style="stop-color:#FFFFFF"/>
				<stop  offset="1" style="stop-color:#D9D9D9"/>
			</linearGradient>
			<path fill="url(#SVGID_15_)" d="M45.6,62.2H16.8c-2.3,0-4.1-1.8-4.1-4.1V17c0-2.3,1.8-4.1,4.1-4.1h22.6l10.3,10.3v34.9
				C49.7,60.4,47.8,62.2,45.6,62.2z"/>
			<linearGradient id="SVGID_16_" gradientUnits="userSpaceOnUse" x1="6.5216" y1="48.8579" x2="55.8409" y2="48.8579">
				<stop  offset="0" style="stop-color:#FF8008"/>
				<stop  offset="1" style="stop-color:#FFC837"/>
			</linearGradient>
			<path fill="url(#SVGID_16_)" d="M30.1,49.3L6.5,35.5v22.6c0,2.3,1.8,4.1,4.1,4.1h41.1c2.3,0,4.1-1.8,4.1-4.1V35.5L32.2,49.3
				C31.6,49.7,30.8,49.7,30.1,49.3z"/>
			<linearGradient id="SVGID_17_" gradientUnits="userSpaceOnUse" x1="6.5216" y1="51.9404" x2="55.8409" y2="51.9404">
				<stop  offset="0" style="stop-color:#FF6300"/>
				<stop  offset="1" style="stop-color:#FF8737"/>
			</linearGradient>
			<path fill="url(#SVGID_17_)" d="M6.5,56.1v2.1c0,2.3,1.8,4.1,4.1,4.1h41.1c2.3,0,4.1-1.8,4.1-4.1v-2.1L31.2,41.7L6.5,56.1z"/>
			<polygon fill="#CED7DA" points="44.5,18 40.6,21.9 49.7,31.4 49.7,23.2 			"/>
			<linearGradient id="SVGID_18_" gradientUnits="userSpaceOnUse" x1="39.4011" y1="18.0334" x2="49.676" y2="18.0334">
				<stop  offset="0" style="stop-color:#C7CCD1"/>
				<stop  offset="1" style="stop-color:#8F9AA3"/>
			</linearGradient>
			<path fill="url(#SVGID_18_)" d="M39.4,12.9v6.2c0,1.1,0.4,2.1,1.2,2.8c0.7,0.8,1.8,1.3,3,1.3h6.2L39.4,12.9z"/>
			<rect x="16.8" y="23.2" fill="#586775" width="20.5" height="2.1"/>
			<rect x="16.8" y="27.3" fill="#586775" width="24.7" height="2.1"/>
			<rect x="16.8" y="31.4" fill="#586775" width="16.4" height="2.1"/>
		</g>
	</g>
</g>
</svg>
