<?xml version="1.0" encoding="utf-8"?>
<!-- Generator: Adobe Illustrator 17.1.0, SVG Export Plug-In . SVG Version: 6.00 Build 0)  -->
<!DOCTYPE svg PUBLIC "-//W3C//DTD SVG 1.1//EN" "http://www.w3.org/Graphics/SVG/1.1/DTD/svg11.dtd">
<svg version="1.1" id="Ebene_1" xmlns="http://www.w3.org/2000/svg" xmlns:xlink="http://www.w3.org/1999/xlink" x="0px" y="0px"
	 viewBox="0 0 98 98" enable-background="new 0 0 98 98" xml:space="preserve">
<g>
	<g>
		<path fill="#FFFFFF" d="M50,56.4c8.3,0,15-8.5,15-19s-6.7-19-15-19s-15,8.5-15,19S41.7,56.4,50,56.4z M50,22.4c6,0,11,6.9,11,15
			s-5,15-11,15s-11-6.9-11-15S44,22.4,50,22.4z"/>
		<path fill="#FFFFFF" d="M22.1,59.8l-4,12c-0.2,0.6-0.1,1.3,0.3,1.8c0.4,0.5,1,0.8,1.6,0.8h60c0.6,0,1.2-0.3,1.6-0.8
			c0.4-0.5,0.5-1.2,0.3-1.8l-4-12c-0.2-0.6-0.7-1.1-1.3-1.3l-14-4c-0.5-0.1-1-0.1-1.4,0.1L50,60.2l-11.1-5.6c-0.4-0.2-1-0.3-1.4-0.1
			l-14,4C22.8,58.7,22.3,59.2,22.1,59.8z M37.8,58.6l11.3,5.7c0.6,0.3,1.2,0.3,1.8,0l11.3-5.7L74.4,62l2.8,8.4H22.8l2.8-8.4
			L37.8,58.6z"/>
	</g>
</g>
</svg>
