<?xml version="1.0" encoding="utf-8"?>
<!-- Generator: Adobe Illustrator 17.1.0, SVG Export Plug-In . SVG Version: 6.00 Build 0)  -->
<!DOCTYPE svg PUBLIC "-//W3C//DTD SVG 1.1//EN" "http://www.w3.org/Graphics/SVG/1.1/DTD/svg11.dtd">
<svg version="1.1" xmlns="http://www.w3.org/2000/svg" xmlns:xlink="http://www.w3.org/1999/xlink" x="0px" y="0px"
	 viewBox="0 0 62.4 62.4" enable-background="new 0 0 62.4 62.4" xml:space="preserve">
<g id="Circle">
	<linearGradient id="SVGID_1_" gradientUnits="userSpaceOnUse" x1="9.1504" y1="53.2122" x2="53.2122" y2="9.1505">
		<stop  offset="0" style="stop-color:#9733EE"/>
		<stop  offset="1" style="stop-color:#FF6287"/>
	</linearGradient>
	<path fill-rule="evenodd" clip-rule="evenodd" fill="url(#SVGID_1_)" d="M31.2,62.4c17.2,0,31.2-14,31.2-31.2S48.4,0,31.2,0
		C14,0,0,14,0,31.2S14,62.4,31.2,62.4z"/>
</g>
<g id="Shadow_Build" display="none">
	<g display="inline">

			<rect x="25.7" y="23" transform="matrix(0.7071 0.7071 -0.7071 0.7071 45.3427 -18.0796)" fill-rule="evenodd" clip-rule="evenodd" fill="#041B30" width="37.6" height="45.4"/>

			<rect x="17.2" y="25.5" transform="matrix(0.7071 0.7071 -0.7071 0.7071 41.1301 -16.9606)" fill-rule="evenodd" clip-rule="evenodd" fill="#041B30" width="47.7" height="31.3"/>
		<polygon fill-rule="evenodd" clip-rule="evenodd" fill="#041B30" points="55.9,60 15,19.2 19.7,16.3 59.6,56.3 		"/>
	</g>
</g>
<g id="Final_Shadow">
	<linearGradient id="SVGID_2_" gradientUnits="userSpaceOnUse" x1="16.515" y1="17.7133" x2="52.6112" y2="53.8095">
		<stop  offset="0.1411" style="stop-color:#6411BC"/>
		<stop  offset="1" style="stop-color:#6411BC;stop-opacity:0"/>
	</linearGradient>
	<path fill-rule="evenodd" clip-rule="evenodd" fill="url(#SVGID_2_)" d="M62.4,31.5L47.2,16.3l-4.4,4.4l-7.5-7.5l-9.3,9.3l-6.2-6.2
		L15,19.2l7.1,7.1l-9.1,9.1l7.5,7.5l-5.8,5.2L29,62.3c0.7,0.1,1.5,0.1,2.2,0.1C48.3,62.4,62.2,48.5,62.4,31.5z"/>
</g>
<g id="Venue">
	<linearGradient id="SVGID_3_" gradientUnits="userSpaceOnUse" x1="31.1281" y1="45.7947" x2="31.1281" y2="18.3816">
		<stop  offset="0.7011" style="stop-color:#FFFFFF"/>
		<stop  offset="1" style="stop-color:#D9D9D9"/>
	</linearGradient>
	<rect x="15.8" y="18.4" fill="url(#SVGID_3_)" width="30.6" height="27.4"/>
	<linearGradient id="SVGID_4_" gradientUnits="userSpaceOnUse" x1="31.1283" y1="48.1147" x2="31.1283" y2="45.7947">
		<stop  offset="0.6428" style="stop-color:#FFFFFF"/>
		<stop  offset="1" style="stop-color:#D9D9D9"/>
	</linearGradient>
	<rect x="14.8" y="45.8" fill="url(#SVGID_4_)" width="32.6" height="2.3"/>
	<linearGradient id="SVGID_5_" gradientUnits="userSpaceOnUse" x1="15.0236" y1="18.7385" x2="47.233" y2="18.7385">
		<stop  offset="0.6428" style="stop-color:#FFFFFF"/>
		<stop  offset="1" style="stop-color:#FFFFFF"/>
	</linearGradient>
	<rect x="15" y="18.3" fill="url(#SVGID_5_)" width="32.2" height="0.9"/>
	<rect x="28" y="28.5" fill="#DD2476" width="6.2" height="6.9"/>
	<linearGradient id="SVGID_6_" gradientUnits="userSpaceOnUse" x1="28.1181" y1="31.9432" x2="13.0945" y2="31.9432">
		<stop  offset="0" style="stop-color:#DD2476"/>
		<stop  offset="1" style="stop-color:#FF8008"/>
	</linearGradient>
	<rect x="13.1" y="28.5" fill="url(#SVGID_6_)" width="15" height="6.9"/>
	<linearGradient id="SVGID_7_" gradientUnits="userSpaceOnUse" x1="13.0945" y1="31.9433" x2="28.1181" y2="31.9433">
		<stop  offset="0" style="stop-color:#FFFFFF"/>
		<stop  offset="0.5" style="stop-color:#FEFEFE"/>
		<stop  offset="1" style="stop-color:#D9D9D9"/>
	</linearGradient>
	<rect x="13.1" y="29.6" fill="url(#SVGID_7_)" width="15" height="4.7"/>
	<linearGradient id="SVGID_8_" gradientUnits="userSpaceOnUse" x1="34.1149" y1="31.9432" x2="49.1385" y2="31.9432">
		<stop  offset="0" style="stop-color:#DD2476"/>
		<stop  offset="1" style="stop-color:#FF8008"/>
	</linearGradient>
	<rect x="34.1" y="28.5" fill="url(#SVGID_8_)" width="15" height="6.9"/>
	<linearGradient id="SVGID_9_" gradientUnits="userSpaceOnUse" x1="49.1385" y1="31.9433" x2="34.1149" y2="31.9433">
		<stop  offset="0.5" style="stop-color:#FFFFFF"/>
		<stop  offset="1" style="stop-color:#D9D9D9"/>
	</linearGradient>
	<rect x="34.1" y="29.6" fill="url(#SVGID_9_)" width="15" height="4.7"/>
	<linearGradient id="SVGID_10_" gradientUnits="userSpaceOnUse" x1="28.2864" y1="20.2669" x2="33.9666" y2="14.5867">
		<stop  offset="0" style="stop-color:#7FBDFF"/>
		<stop  offset="1" style="stop-color:#15A0FF"/>
	</linearGradient>
	<path fill="url(#SVGID_10_)" d="M31,13.8h0.3c2.5,0,4.6,2.1,4.6,4.6v0h-9.5v0C26.4,15.8,28.4,13.8,31,13.8z"/>
	<linearGradient id="SVGID_11_" gradientUnits="userSpaceOnUse" x1="31.159" y1="18.414" x2="34.4452" y2="15.1278">
		<stop  offset="0" style="stop-color:#7FBDFF"/>
		<stop  offset="1" style="stop-color:#15A0FF"/>
	</linearGradient>
	<path fill="url(#SVGID_11_)" d="M31.1,13.8h0.2c2.5,0,4.5,2,4.5,4.6v0h-4.7V13.8z"/>
	<linearGradient id="SVGID_12_" gradientUnits="userSpaceOnUse" x1="30.2762" y1="45.8101" x2="37.6366" y2="38.4497">
		<stop  offset="0" style="stop-color:#7FBDFF"/>
		<stop  offset="1" style="stop-color:#15A0FF"/>
	</linearGradient>
	<rect x="31.5" y="37.2" fill="url(#SVGID_12_)" width="4.8" height="9.9"/>
	<linearGradient id="SVGID_13_" gradientUnits="userSpaceOnUse" x1="24.6778" y1="45.7907" x2="31.9994" y2="38.4691">
		<stop  offset="0" style="stop-color:#7FBDFF"/>
		<stop  offset="1" style="stop-color:#15A0FF"/>
	</linearGradient>
	<rect x="26" y="37.2" fill="url(#SVGID_13_)" width="4.8" height="9.9"/>
	<linearGradient id="SVGID_14_" gradientUnits="userSpaceOnUse" x1="20.4796" y1="42.8657" x2="25.2535" y2="38.0918">
		<stop  offset="0" style="stop-color:#7FBDFF"/>
		<stop  offset="1" style="stop-color:#15A0FF"/>
	</linearGradient>
	<rect x="21.4" y="37.2" fill="url(#SVGID_14_)" width="3" height="6.6"/>
	<linearGradient id="SVGID_15_" gradientUnits="userSpaceOnUse" x1="37.003" y1="42.8657" x2="41.7769" y2="38.0918">
		<stop  offset="0" style="stop-color:#7FBDFF"/>
		<stop  offset="1" style="stop-color:#15A0FF"/>
	</linearGradient>
	<rect x="37.9" y="37.2" fill="url(#SVGID_15_)" width="3" height="6.6"/>
	<linearGradient id="SVGID_16_" gradientUnits="userSpaceOnUse" x1="31.1281" y1="37.1877" x2="31.1281" y2="47.0721">
		<stop  offset="0.6428" style="stop-color:#FFFFFF"/>
		<stop  offset="1" style="stop-color:#D9D9D9"/>
	</linearGradient>
	<rect x="30.7" y="37.2" fill="url(#SVGID_16_)" width="0.8" height="9.9"/>
	<linearGradient id="SVGID_17_" gradientUnits="userSpaceOnUse" x1="31.1281" y1="45.7947" x2="31.1281" y2="47.6933">
		<stop  offset="0" style="stop-color:#BFDCFF"/>
		<stop  offset="1" style="stop-color:#AAD3FF"/>
	</linearGradient>
	<polygon fill-rule="evenodd" clip-rule="evenodd" fill="url(#SVGID_17_)" points="15.8,45.8 25.9,45.8 25.9,46.7 36.4,46.7
		36.4,45.8 46.4,45.8 46.4,46.8 36.9,46.8 36.9,47.7 25.5,47.7 25.5,46.8 15.8,46.8 	"/>
	<linearGradient id="SVGID_18_" gradientUnits="userSpaceOnUse" x1="31.1283" y1="18.3816" x2="31.1283" y2="11.9341">
		<stop  offset="0" style="stop-color:#FFFFFF"/>
		<stop  offset="1" style="stop-color:#D9D9D9"/>
	</linearGradient>
	<path fill="url(#SVGID_18_)" d="M42.6,16.3v0.5h-5c-0.7-2.8-3.2-4.9-6.2-4.9h-0.4c-3,0-5.6,2.1-6.2,4.9h-5v-0.5H15v2h4.7h6.7
		c0-2.3,1.8-4.2,4-4.5v4.5h1.5v-4.5c2.2,0.3,3.9,2.2,3.9,4.5h6.8h4.7v-2H42.6z"/>
	<g opacity="0.5">
		<polygon fill-rule="evenodd" clip-rule="evenodd" fill="#FFFFFF" points="21.4,38 22.2,37.2 22.5,37.2 21.4,38.3 		"/>
		<polygon fill-rule="evenodd" clip-rule="evenodd" fill="#FFFFFF" points="21.4,38.7 22.9,37.2 23.2,37.2 21.4,39 		"/>
	</g>
	<g opacity="0.5">
		<polygon fill-rule="evenodd" clip-rule="evenodd" fill="#FFFFFF" points="37.9,38 38.7,37.2 39,37.2 37.9,38.3 		"/>
		<polygon fill-rule="evenodd" clip-rule="evenodd" fill="#FFFFFF" points="37.9,38.7 39.4,37.2 39.7,37.2 37.9,39 		"/>
	</g>
	<g opacity="0.5">
		<polygon fill-rule="evenodd" clip-rule="evenodd" fill="#FFFFFF" points="31.5,39 33.4,37.2 34.1,37.2 31.5,39.7 		"/>
		<polygon fill-rule="evenodd" clip-rule="evenodd" fill="#FFFFFF" points="31.5,40.5 34.9,37.2 35.6,37.2 31.5,41.2 		"/>
	</g>
	<g opacity="0.5">
		<polygon fill-rule="evenodd" clip-rule="evenodd" fill="#FFFFFF" points="26,39 27.8,37.2 28.5,37.2 26,39.7 		"/>
		<polygon fill-rule="evenodd" clip-rule="evenodd" fill="#FFFFFF" points="26,40.5 29.3,37.2 30,37.2 26,41.2 		"/>
	</g>
	<g>
		<linearGradient id="SVGID_19_" gradientUnits="userSpaceOnUse" x1="31.3446" y1="27.9663" x2="36.8853" y2="22.4257">
			<stop  offset="0" style="stop-color:#7FBDFF"/>
			<stop  offset="1" style="stop-color:#15A0FF"/>
		</linearGradient>
		<path fill-rule="evenodd" clip-rule="evenodd" fill="url(#SVGID_19_)" d="M31.9,28.5h4.5v-5.6c0-1.2-1-2.3-2.3-2.3
			c-1.2,0-2.3,1-2.3,2.3V28.5z"/>
		<path opacity="0.5" fill-rule="evenodd" clip-rule="evenodd" fill="#FFFFFF" d="M31.9,28.5L31.9,28.5l4.5-5.8
			c-0.1-1-0.8-1.8-1.7-2.1l-2.8,3.7V28.5L31.9,28.5z M32.5,28.5l3.8-5v1.2l-2.9,3.7H32.5z"/>
	</g>
	<g>
		<linearGradient id="SVGID_20_" gradientUnits="userSpaceOnUse" x1="37.3964" y1="27.9663" x2="42.9371" y2="22.4257">
			<stop  offset="0" style="stop-color:#7FBDFF"/>
			<stop  offset="1" style="stop-color:#15A0FF"/>
		</linearGradient>
		<path fill-rule="evenodd" clip-rule="evenodd" fill="url(#SVGID_20_)" d="M37.9,28.5h4.5v-5.6c0-1.2-1-2.3-2.3-2.3
			c-1.2,0-2.3,1-2.3,2.3V28.5z"/>
		<path opacity="0.5" fill-rule="evenodd" clip-rule="evenodd" fill="#FFFFFF" d="M37.9,28.5L37.9,28.5l4.5-5.8
			c-0.1-1-0.8-1.8-1.7-2.1l-2.8,3.7V28.5L37.9,28.5z M38.6,28.5l3.8-5v1.2l-2.9,3.7H38.6z"/>
	</g>
	<g>
		<linearGradient id="SVGID_21_" gradientUnits="userSpaceOnUse" x1="25.3477" y1="27.9663" x2="30.8884" y2="22.4257">
			<stop  offset="0" style="stop-color:#7FBDFF"/>
			<stop  offset="1" style="stop-color:#15A0FF"/>
		</linearGradient>
		<path fill-rule="evenodd" clip-rule="evenodd" fill="url(#SVGID_21_)" d="M25.9,28.5h4.5v-5.6c0-1.2-1-2.3-2.3-2.3
			c-1.2,0-2.3,1-2.3,2.3V28.5z"/>
		<path opacity="0.5" fill-rule="evenodd" clip-rule="evenodd" fill="#FFFFFF" d="M25.9,28.5L25.9,28.5l4.5-5.8
			c-0.1-1-0.8-1.8-1.7-2.1l-2.8,3.7V28.5L25.9,28.5z M26.5,28.5l3.8-5v1.2l-2.9,3.7H26.5z"/>
	</g>
	<g>
		<linearGradient id="SVGID_22_" gradientUnits="userSpaceOnUse" x1="19.3194" y1="27.9663" x2="24.8601" y2="22.4257">
			<stop  offset="0" style="stop-color:#7FBDFF"/>
			<stop  offset="1" style="stop-color:#15A0FF"/>
		</linearGradient>
		<path fill-rule="evenodd" clip-rule="evenodd" fill="url(#SVGID_22_)" d="M19.8,28.5h4.5v-5.6c0-1.2-1-2.3-2.3-2.3
			c-1.2,0-2.3,1-2.3,2.3V28.5z"/>
		<path opacity="0.5" fill-rule="evenodd" clip-rule="evenodd" fill="#FFFFFF" d="M19.8,28.5L19.8,28.5l4.5-5.8
			c-0.1-1-0.8-1.8-1.7-2.1l-2.8,3.7V28.5L19.8,28.5z M20.5,28.5l3.8-5v1.2l-2.9,3.7H20.5z"/>
	</g>
</g>
</svg>
