<?xml version="1.0" encoding="utf-8"?>
<!-- Generator: Adobe Illustrator 17.1.0, SVG Export Plug-In . SVG Version: 6.00 Build 0)  -->
<!DOCTYPE svg PUBLIC "-//W3C//DTD SVG 1.1//EN" "http://www.w3.org/Graphics/SVG/1.1/DTD/svg11.dtd">
<svg version="1.1" id="Business" xmlns="http://www.w3.org/2000/svg" xmlns:xlink="http://www.w3.org/1999/xlink" x="0px" y="0px"
	 viewBox="0 0 98 98" enable-background="new 0 0 98 98" xml:space="preserve">
<g>
	<path fill="#FFFFFF" d="M21.6,72.4l8,8C30,80.8,30.5,81,31,81h6c0.5,0,1-0.2,1.4-0.6L59,59.8l3.2,3.2l-6.6,6.6
		c-0.8,0.8-0.8,2,0,2.8c0.8,0.8,2,0.8,2.8,0l8-8c0.8-0.8,0.8-2,0-2.8l-6-6c-0.8-0.8-2-0.8-2.8,0L36.2,77h-4.3l-6-6l1.2-1.2l2.6,2.6
		C30,72.8,30.5,73,31,73c0.5,0,1-0.2,1.4-0.6l25.9-25.9c1.2,0.3,2.4,0.5,3.7,0.5c8.3,0,15-6.7,15-15s-6.7-15-15-15
		c-8.3,0-15,6.7-15,15c0,1.3,0.2,2.5,0.5,3.7L21.6,61.6c-0.8,0.8-0.8,2,0,2.8l2.6,2.6l-2.6,2.6C20.8,70.4,20.8,71.6,21.6,72.4z
		 M62,21c6.1,0,11,4.9,11,11s-4.9,11-11,11c-6.1,0-11-4.9-11-11S55.9,21,62,21z M54.3,44.9L49,50.2L43.8,45l5.3-5.3
		C50.4,41.8,52.2,43.6,54.3,44.9z M41,47.8l5.2,5.2L31,68.2L25.8,63L41,47.8z"/>
</g>
</svg>
