<svg xmlns="http://www.w3.org/2000/svg" xmlns:xlink="http://www.w3.org/1999/xlink" preserveAspectRatio="xMidYMid" width="36.375" height="42.47" viewBox="0 0 36.375 42.47">
  <defs>
    <style>
      .cls-1 {
        fill: #dd2476;
        fill-rule: evenodd;
      }
    </style>
  </defs>
  <path d="M36.382,1.316 C36.382,1.087 36.322,0.856 36.200,0.650 C35.959,0.240 35.515,-0.011 35.035,-0.011 L1.359,-0.011 C0.879,-0.011 0.436,0.240 0.194,0.650 C0.073,0.856 0.012,1.085 0.012,1.316 L0.012,41.142 C0.012,41.876 0.615,42.470 1.359,42.470 L11.462,42.470 C12.205,42.470 12.809,41.876 12.809,41.142 C12.809,39.202 12.738,36.812 12.482,34.505 L23.912,34.505 C23.657,36.812 23.585,39.202 23.585,41.142 C23.585,41.876 24.188,42.470 24.933,42.470 L35.035,42.470 C35.779,42.470 36.382,41.876 36.382,41.142 L36.382,1.316 ZM28.342,28.531 L33.688,28.531 L33.688,39.815 L26.297,39.815 C26.427,34.279 27.341,29.110 28.342,28.531 ZM33.688,25.876 L28.413,25.876 C27.050,24.993 24.705,17.190 23.118,8.361 C27.433,7.835 31.178,6.520 33.688,4.667 L33.688,25.876 ZM31.916,2.644 C29.308,4.486 24.694,5.963 18.871,5.963 C13.308,5.963 7.738,4.588 4.643,2.644 L31.916,2.644 ZM13.307,8.188 C11.721,17.087 9.354,24.986 7.981,25.876 L2.706,25.876 L2.706,4.525 C5.339,6.345 9.285,7.583 13.307,8.188 ZM2.706,28.531 L8.053,28.531 C9.054,29.110 9.966,34.279 10.098,39.815 L2.706,39.815 L2.706,28.531 ZM10.383,27.206 C11.456,25.808 12.650,23.017 14.031,17.568 C14.961,13.903 15.670,10.207 15.982,8.496 C16.273,8.519 16.562,8.541 16.850,8.557 L16.850,31.850 L12.087,31.850 C11.720,29.959 11.178,28.295 10.383,27.206 ZM19.544,31.850 L19.544,8.607 C19.840,8.602 20.135,8.593 20.427,8.580 C20.747,10.326 21.447,13.960 22.362,17.568 C23.745,23.017 24.938,25.808 26.011,27.206 C25.217,28.295 24.675,29.959 24.308,31.850 L19.544,31.850 Z" class="cls-1"/>
</svg>
