<svg xmlns="http://www.w3.org/2000/svg" width="63.844" height="63.844" viewBox="0 0 63.844 63.844">
  <defs>
    <style>
      .cls-1 {
        fill: #00c6ff;
        fill-rule: evenodd;
      }
    </style>
  </defs>
  <path id="verify_icon.svg" class="cls-1" d="M991.246,252.747a1.994,1.994,0,0,0-2.254-.4l-59.844,27.929a1.994,1.994,0,0,0,.018,3.623l21.261,9.666,9.666,21.263A1.99,1.99,0,0,0,961.9,316h0.01a2,2,0,0,0,1.808-1.151L991.643,255A2,2,0,0,0,991.246,252.747Zm-10.827,8.007L951.5,289.674l-16.742-7.611Zm-18.487,48.483-7.61-16.742,28.917-28.92Z" transform="translate(-928 -252.156)"/>
</svg>
