<?xml version="1.0" encoding="utf-8"?>
<!-- Generator: Adobe Illustrator 17.1.0, SVG Export Plug-In . SVG Version: 6.00 Build 0)  -->
<!DOCTYPE svg PUBLIC "-//W3C//DTD SVG 1.1//EN" "http://www.w3.org/Graphics/SVG/1.1/DTD/svg11.dtd">
<svg version="1.1" xmlns="http://www.w3.org/2000/svg" xmlns:xlink="http://www.w3.org/1999/xlink" x="0px" y="0px"
	 viewBox="0 0 37.4 258.2" enable-background="new 0 0 37.4 258.2" xml:space="preserve">
<g id="XLR_Outputs" display="none">
	<g display="inline">
		<g>
			<path fill="#414143" d="M24.9,5.8C24.9,5.7,24.9,5.7,24.9,5.8l0-3.8c0-0.7-0.6-1.3-1.3-1.3h-9.8c-0.7,0-1.3,0.6-1.3,1.3v3.7
				c0,0,0,0,0,0c-7,2.5-12,9.2-12,17.1c0,10,8.1,18.2,18.2,18.2c10,0,18.2-8.1,18.2-18.2C36.9,15,31.9,8.3,24.9,5.8z"/>
			<path fill="#807F84" d="M20.5,12l-0.3,0.9c-0.1,0.2-0.3,0.4-0.5,0.4H17c-0.2,0-0.4-0.2-0.5-0.4l-0.2-0.8
				c-4.9,1.1-8.5,5.5-8.5,10.7c0,6.1,4.9,11,11,11s11-4.9,11-11C29.7,17.4,25.7,12.8,20.5,12z"/>
			<g>
				<g>
					<circle fill="#414043" cx="18.7" cy="28.3" r="1.9"/>
					<circle fill="#414043" cx="24.5" cy="22.5" r="1.9"/>
					<circle fill="#414043" cx="13" cy="22.5" r="1.9"/>
				</g>
				<path fill="#414043" d="M18.7,18c-2.6,0-4.8,2.1-4.8,4.8c0,2.6,2.1,4.8,4.8,4.8s4.8-2.1,4.8-4.8C23.5,20.2,21.3,18,18.7,18z"/>
			</g>
			<g>
				<path fill="#807F84" d="M18.7,39.3c-9.1,0-16.5-7.4-16.5-16.5c0-5.7,3.1-11.2,8-14.1l1.4,2.3C7.5,13.5,5,18.1,5,22.9
					c0,7.6,6.2,13.8,13.8,13.8c7.6,0,13.8-6.2,13.8-13.8c0-4.8-2.6-9.3-6.7-11.8l1.4-2.3c5,3,8,8.4,8,14.1
					C35.2,31.9,27.8,39.3,18.7,39.3z"/>
			</g>
			<path fill="#C8C9CB" d="M23.5,7H14c-0.8,0-1.4-0.6-1.4-1.4V2.1c0-0.8,0.6-1.4,1.4-1.4h9.6c0.8,0,1.4,0.6,1.4,1.4v3.5
				C24.9,6.4,24.3,7,23.5,7z"/>
		</g>
		<g>
			<rect x="13.2" y="176.2" fill="#1C75BD" width="11" height="81.5"/>
			<path fill="#6D6E72" d="M3.1,64v60.2c0,4.1,0.4,8.2,1.1,12.3l6.6,37.9c0.2,1.1,1.1,1.9,2.3,1.9h11.3c1.1,0,2.1-0.8,2.3-1.9
				l6.6-37.9c0.7-4,1.1-8.1,1.1-12.3V64c0-0.8-0.6-1.4-1.4-1.4H4.6C3.8,62.5,3.1,63.2,3.1,64z"/>
			<g>
				<path fill="#616366" d="M33,139.2H4.4c-0.2,0-0.4-0.2-0.4-0.4v-1.1c0-0.2,0.2-0.4,0.4-0.4H33c0.2,0,0.4,0.2,0.4,0.4v1.1
					C33.5,139,33.3,139.2,33,139.2z"/>
				<path fill="#616366" d="M32.4,144.2H5.1c-0.2,0-0.4-0.2-0.4-0.4v-1.1c0-0.2,0.2-0.4,0.4-0.4h27.3c0.2,0,0.4,0.2,0.4,0.4v1.1
					C32.8,144,32.6,144.2,32.4,144.2z"/>
				<path fill="#616366" d="M31.7,149.1H5.8c-0.2,0-0.4-0.2-0.4-0.4v-1.1c0-0.2,0.2-0.4,0.4-0.4h25.9c0.2,0,0.4,0.2,0.4,0.4v1.1
					C32.1,148.9,31.9,149.1,31.7,149.1z"/>
				<path fill="#616366" d="M31,154H6.4c-0.2,0-0.4-0.2-0.4-0.4v-1.1c0-0.2,0.2-0.4,0.4-0.4H31c0.2,0,0.4,0.2,0.4,0.4v1.1
					C31.5,153.8,31.3,154,31,154z"/>
				<path fill="#616366" d="M30.3,158.9H7.1c-0.2,0-0.4-0.2-0.4-0.4v-1.1c0-0.2,0.2-0.4,0.4-0.4h23.2c0.2,0,0.4,0.2,0.4,0.4v1.1
					C30.8,158.7,30.6,158.9,30.3,158.9z"/>
				<path fill="#616366" d="M29.7,163.9H7.8c-0.2,0-0.4-0.2-0.4-0.4v-1.1c0-0.2,0.2-0.4,0.4-0.4h21.9c0.2,0,0.4,0.2,0.4,0.4v1.1
					C30.1,163.7,29.9,163.9,29.7,163.9z"/>
				<path fill="#616366" d="M29,168.8H8.5c-0.2,0-0.4-0.2-0.4-0.4v-1.1c0-0.2,0.2-0.4,0.4-0.4H29c0.2,0,0.4,0.2,0.4,0.4v1.1
					C29.4,168.6,29.3,168.8,29,168.8z"/>
				<path fill="#616366" d="M28.3,173.7H9.1c-0.2,0-0.4-0.2-0.4-0.4v-1.1c0-0.2,0.2-0.4,0.4-0.4h19.2c0.2,0,0.4,0.2,0.4,0.4v1.1
					C28.8,173.5,28.6,173.7,28.3,173.7z"/>
			</g>
			<path fill="#93A4AB" d="M33.8,132.7c0.3-2.8,0.5-5.7,0.5-8.6V64c0-0.8-0.6-1.4-1.4-1.4H4.6c-0.8,0-1.4,0.6-1.4,1.4v60.2
				c0,2.9,0.2,5.7,0.5,8.6H33.8z"/>
			<path fill="#D2D3D5" d="M20.6,81.2h-3.8c-0.5,0-0.9-0.4-0.9-0.9V66.2c0-0.5,0.4-0.9,0.9-0.9h3.8c0.5,0,0.9,0.4,0.9,0.9v14.1
				C21.5,80.9,21.1,81.2,20.6,81.2z"/>
			<rect x="16" y="68.9" fill="#F2F2F3" width="5.5" height="8.8"/>
		</g>
	</g>
</g>
<g id="XLR_Outputs_copy">
	<path fill="none" stroke="#000000" stroke-miterlimit="10" d="M24.9,5.8C24.9,5.7,24.9,5.7,24.9,5.8l0-3.8c0-0.7-0.6-1.3-1.3-1.3
		h-9.8c-0.7,0-1.3,0.6-1.3,1.3v3.7c0,0,0,0,0,0c-7,2.5-12,9.2-12,17.1c0,10,8.1,18.2,18.2,18.2c10,0,18.2-8.1,18.2-18.2
		C36.9,15,31.9,8.3,24.9,5.8z"/>
	<path fill="none" stroke="#000000" stroke-miterlimit="10" d="M20.5,12l-0.3,0.9c-0.1,0.2-0.3,0.4-0.5,0.4H17
		c-0.2,0-0.4-0.2-0.5-0.4l-0.2-0.8c-4.9,1.1-8.5,5.5-8.5,10.7c0,6.1,4.9,11,11,11s11-4.9,11-11C29.7,17.4,25.7,12.8,20.5,12z"/>
	<path d="M24.5,20.6c-0.5,0-1,0.2-1.3,0.5c-0.7-1.8-2.4-3.1-4.5-3.1c-2,0-3.8,1.3-4.4,3.1c-0.3-0.3-0.8-0.5-1.2-0.5
		c-1,0-1.9,0.9-1.9,1.9c0,1,0.9,1.9,1.9,1.9c0.4,0,0.8-0.1,1.1-0.4c0.4,1.5,1.5,2.7,3,3.2c-0.2,0.3-0.3,0.6-0.3,1
		c0,1,0.9,1.9,1.9,1.9c1,0,1.9-0.9,1.9-1.9c0-0.4-0.1-0.7-0.3-1c1.5-0.5,2.6-1.8,3-3.3c0.3,0.3,0.7,0.4,1.2,0.4c1,0,1.9-0.9,1.9-1.9
		C26.4,21.5,25.5,20.6,24.5,20.6z"/>
	<g>
		<path fill="none" stroke="#000000" stroke-miterlimit="10" d="M18.7,39.3c-9.1,0-16.5-7.4-16.5-16.5c0-5.7,3.1-11.2,8-14.1
			l1.4,2.3C7.5,13.5,5,18.1,5,22.9c0,7.6,6.2,13.8,13.8,13.8c7.6,0,13.8-6.2,13.8-13.8c0-4.8-2.6-9.3-6.7-11.8l1.4-2.3
			c5,3,8,8.4,8,14.1C35.2,31.9,27.8,39.3,18.7,39.3z"/>
	</g>
	<path fill="none" stroke="#000000" stroke-miterlimit="10" d="M23.5,7H14c-0.8,0-1.4-0.6-1.4-1.4V2.1c0-0.8,0.6-1.4,1.4-1.4h9.6
		c0.8,0,1.4,0.6,1.4,1.4v3.5C24.9,6.4,24.3,7,23.5,7z"/>
	<g>
		<rect x="13.2" y="176.2" fill="#1C75BD" stroke="#000000" stroke-miterlimit="10" width="11" height="81.5"/>
		<path fill="#6D6E72" stroke="#000000" stroke-miterlimit="10" d="M3.1,64v60.2c0,4.1,0.4,8.2,1.1,12.3l6.6,37.9
			c0.2,1.1,1.1,1.9,2.3,1.9h11.3c1.1,0,2.1-0.8,2.3-1.9l6.6-37.9c0.7-4,1.1-8.1,1.1-12.3V64c0-0.8-0.6-1.4-1.4-1.4H4.6
			C3.8,62.5,3.1,63.2,3.1,64z"/>
		<g>
			<path fill="#616366" stroke="#000000" stroke-miterlimit="10" d="M33,139.2H4.4c-0.2,0-0.4-0.2-0.4-0.4v-1.1
				c0-0.2,0.2-0.4,0.4-0.4H33c0.2,0,0.4,0.2,0.4,0.4v1.1C33.5,139,33.3,139.2,33,139.2z"/>
			<path fill="#616366" stroke="#000000" stroke-miterlimit="10" d="M32.4,144.2H5.1c-0.2,0-0.4-0.2-0.4-0.4v-1.1
				c0-0.2,0.2-0.4,0.4-0.4h27.3c0.2,0,0.4,0.2,0.4,0.4v1.1C32.8,144,32.6,144.2,32.4,144.2z"/>
			<path fill="#616366" stroke="#000000" stroke-miterlimit="10" d="M31.7,149.1H5.8c-0.2,0-0.4-0.2-0.4-0.4v-1.1
				c0-0.2,0.2-0.4,0.4-0.4h25.9c0.2,0,0.4,0.2,0.4,0.4v1.1C32.1,148.9,31.9,149.1,31.7,149.1z"/>
			<path fill="#616366" stroke="#000000" stroke-miterlimit="10" d="M31,154H6.4c-0.2,0-0.4-0.2-0.4-0.4v-1.1c0-0.2,0.2-0.4,0.4-0.4
				H31c0.2,0,0.4,0.2,0.4,0.4v1.1C31.5,153.8,31.3,154,31,154z"/>
			<path fill="#616366" stroke="#000000" stroke-miterlimit="10" d="M30.3,158.9H7.1c-0.2,0-0.4-0.2-0.4-0.4v-1.1
				c0-0.2,0.2-0.4,0.4-0.4h23.2c0.2,0,0.4,0.2,0.4,0.4v1.1C30.8,158.7,30.6,158.9,30.3,158.9z"/>
			<path fill="#616366" stroke="#000000" stroke-miterlimit="10" d="M29.7,163.9H7.8c-0.2,0-0.4-0.2-0.4-0.4v-1.1
				c0-0.2,0.2-0.4,0.4-0.4h21.9c0.2,0,0.4,0.2,0.4,0.4v1.1C30.1,163.7,29.9,163.9,29.7,163.9z"/>
			<path fill="#616366" stroke="#000000" stroke-miterlimit="10" d="M29,168.8H8.5c-0.2,0-0.4-0.2-0.4-0.4v-1.1
				c0-0.2,0.2-0.4,0.4-0.4H29c0.2,0,0.4,0.2,0.4,0.4v1.1C29.4,168.6,29.3,168.8,29,168.8z"/>
			<path fill="#616366" stroke="#000000" stroke-miterlimit="10" d="M28.3,173.7H9.1c-0.2,0-0.4-0.2-0.4-0.4v-1.1
				c0-0.2,0.2-0.4,0.4-0.4h19.2c0.2,0,0.4,0.2,0.4,0.4v1.1C28.8,173.5,28.6,173.7,28.3,173.7z"/>
		</g>
		<path fill="#93A4AB" stroke="#000000" stroke-miterlimit="10" d="M33.8,132.7c0.3-2.8,0.5-5.7,0.5-8.6V64c0-0.8-0.6-1.4-1.4-1.4
			H4.6c-0.8,0-1.4,0.6-1.4,1.4v60.2c0,2.9,0.2,5.7,0.5,8.6H33.8z"/>
		<path fill="#D2D3D5" stroke="#000000" stroke-miterlimit="10" d="M20.6,81.2h-3.8c-0.5,0-0.9-0.4-0.9-0.9V66.2
			c0-0.5,0.4-0.9,0.9-0.9h3.8c0.5,0,0.9,0.4,0.9,0.9v14.1C21.5,80.9,21.1,81.2,20.6,81.2z"/>
		<rect x="16" y="68.9" fill="#F2F2F3" stroke="#000000" stroke-miterlimit="10" width="5.5" height="8.8"/>
	</g>
</g>
</svg>
