<?xml version="1.0" encoding="utf-8"?>
<!-- Generator: Adobe Illustrator 17.1.0, SVG Export Plug-In . SVG Version: 6.00 Build 0)  -->
<!DOCTYPE svg PUBLIC "-//W3C//DTD SVG 1.1//EN" "http://www.w3.org/Graphics/SVG/1.1/DTD/svg11.dtd">
<svg version="1.1" xmlns="http://www.w3.org/2000/svg" xmlns:xlink="http://www.w3.org/1999/xlink" x="0px" y="0px"
	 viewBox="0 0 38.4 196.8" enable-background="new 0 0 38.4 196.8" xml:space="preserve">
<g id="XLR_Cables" display="none">
	<g display="inline">
		<g>
			<circle fill="#414143" cx="19.2" cy="19.3" r="18.4"/>
			<circle fill="#807F84" cx="19.2" cy="19.3" r="16.7"/>
			<path fill="#414143" d="M22.1,6.4l-0.2-0.6c-0.1-0.2-0.3-0.3-0.5-0.3h-4.1c-0.2,0-0.4,0.1-0.5,0.3l-0.2,0.5
				C10.5,7.5,5.9,12.9,5.9,19.4c0,7.4,6,13.3,13.3,13.3s13.3-6,13.3-13.3C32.6,13,28.1,7.7,22.1,6.4z"/>
			<g>
				<circle fill="#BBBDBE" cx="19.2" cy="25" r="1.9"/>
				<circle fill="#BBBDBE" cx="25" cy="19.3" r="1.9"/>
				<circle fill="#BBBDBE" cx="13.5" cy="19.3" r="1.9"/>
			</g>
		</g>
		<g>
			<rect x="12.4" y="196.2" fill="#1C75BD" width="11" height="60"/>
			<path fill="#6D6E72" d="M2.3,83.9v60.2c0,4.1,0.4,8.2,1.1,12.3l6.6,37.9c0.2,1.1,1.1,1.9,2.3,1.9h11.3c1.1,0,2.1-0.8,2.3-1.9
				l6.6-37.9c0.7-4,1.1-8.1,1.1-12.3V83.9c0-0.8-0.6-1.4-1.4-1.4H3.8C3,82.5,2.3,83.1,2.3,83.9z"/>
			<path fill="#93A4AB" d="M33,152.7c0.3-2.8,0.5-5.7,0.5-8.6V83.9c0-0.8-0.6-1.4-1.4-1.4H3.8c-0.8,0-1.4,0.6-1.4,1.4v60.2
				c0,2.9,0.2,5.7,0.5,8.6H33z"/>
			<path fill="#616366" d="M32.2,159.2H3.6c-0.2,0-0.4-0.2-0.4-0.4v-1.1c0-0.2,0.2-0.4,0.4-0.4h28.6c0.2,0,0.4,0.2,0.4,0.4v1.1
				C32.7,159,32.5,159.2,32.2,159.2z"/>
			<path fill="#616366" d="M31.6,164.1H4.3c-0.2,0-0.4-0.2-0.4-0.4v-1.1c0-0.2,0.2-0.4,0.4-0.4h27.3c0.2,0,0.4,0.2,0.4,0.4v1.1
				C32,163.9,31.8,164.1,31.6,164.1z"/>
			<path fill="#616366" d="M30.9,169.1H5c-0.2,0-0.4-0.2-0.4-0.4v-1.1c0-0.2,0.2-0.4,0.4-0.4h25.9c0.2,0,0.4,0.2,0.4,0.4v1.1
				C31.3,168.9,31.1,169.1,30.9,169.1z"/>
			<path fill="#616366" d="M30.2,174H5.6c-0.2,0-0.4-0.2-0.4-0.4v-1.1c0-0.2,0.2-0.4,0.4-0.4h24.6c0.2,0,0.4,0.2,0.4,0.4v1.1
				C30.7,173.8,30.5,174,30.2,174z"/>
			<path fill="#616366" d="M29.6,178.9H6.3c-0.2,0-0.4-0.2-0.4-0.4v-1.1c0-0.2,0.2-0.4,0.4-0.4h23.2c0.2,0,0.4,0.2,0.4,0.4v1.1
				C30,178.7,29.8,178.9,29.6,178.9z"/>
			<path fill="#616366" d="M28.9,183.8H7c-0.2,0-0.4-0.2-0.4-0.4v-1.1c0-0.2,0.2-0.4,0.4-0.4h21.9c0.2,0,0.4,0.2,0.4,0.4v1.1
				C29.3,183.6,29.1,183.8,28.9,183.8z"/>
			<path fill="#616366" d="M28.2,188.8H7.7c-0.2,0-0.4-0.2-0.4-0.4v-1.1c0-0.2,0.2-0.4,0.4-0.4h20.6c0.2,0,0.4,0.2,0.4,0.4v1.1
				C28.7,188.6,28.5,188.8,28.2,188.8z"/>
			<path fill="#616366" d="M27.5,193.7H8.3c-0.2,0-0.4-0.2-0.4-0.4v-1.1c0-0.2,0.2-0.4,0.4-0.4h19.2c0.2,0,0.4,0.2,0.4,0.4v1.1
				C28,193.5,27.8,193.7,27.5,193.7z"/>
			<path fill="#BDBFC0" d="M30.8,68.2h1.1c0.2,0,0.3,0.2,0.3,0.3v4.3l1.6,7.3c0,0.2-0.1,0.4-0.3,0.4h-2.8V68.2z"/>
			<path fill="#E6E7E9" d="M6.7,61h22.4c0.9,0,1.6,0.7,1.6,1.6v19.9H5.1V62.6C5.1,61.7,5.8,61,6.7,61z"/>
			<path fill="#BDBFC0" d="M35.2,100.5c-0.1,0.4-0.5,0.7-1,0.7h-0.6V85.4h0.6c0.4,0,0.8,0.3,1,0.7l0.9,2.6c0.1,0.2,0.1,0.4,0,0.6
				L35,93c-0.1,0.2-0.1,0.4,0,0.6l1.1,3.7c0.1,0.2,0.1,0.4,0,0.6L35.2,100.5z"/>
		</g>
	</g>
</g>
<g id="XLR_Cables_copy">
	<g>
		<circle fill="none" stroke="#000000" stroke-miterlimit="10" cx="19.2" cy="19.3" r="18.4"/>
		<circle fill="none" stroke="#000000" stroke-miterlimit="10" cx="19.2" cy="19.3" r="16.7"/>
		<path d="M22.1,6.4l-0.2-0.6c-0.1-0.2-0.3-0.3-0.5-0.3h-4.1c-0.2,0-0.4,0.1-0.5,0.3l-0.2,0.5C10.5,7.5,5.9,12.9,5.9,19.4
			c0,7.4,6,13.3,13.3,13.3s13.3-6,13.3-13.3C32.6,13,28.1,7.7,22.1,6.4z"/>
		<g>
			<circle fill="#FFFFFF" cx="19.2" cy="25" r="1.9"/>
			<circle fill="#FFFFFF" cx="25" cy="19.3" r="1.9"/>
			<circle fill="#FFFFFF" cx="13.5" cy="19.3" r="1.9"/>
		</g>
	</g>
	<g>
		<path fill="#6D6E72" stroke="#000000" stroke-miterlimit="10" d="M3.6,83.9v60.2c0,4.1,0.4,8.2,1.1,12.3l6.6,37.9
			c0.2,1.1,1.1,1.9,2.3,1.9h11.3c1.1,0,2.1-0.8,2.3-1.9l6.6-37.9c0.7-4,1.1-8.1,1.1-12.3V83.9c0-0.8-0.6-1.4-1.4-1.4H5
			C4.2,82.5,3.6,83.1,3.6,83.9z"/>
		<path fill="#93A4AB" stroke="#000000" stroke-miterlimit="10" d="M34.2,152.7c0.3-2.8,0.5-5.7,0.5-8.6V83.9c0-0.8-0.6-1.4-1.4-1.4
			H5c-0.8,0-1.4,0.6-1.4,1.4v60.2c0,2.9,0.2,5.7,0.5,8.6H34.2z"/>
		<path fill="#616366" stroke="#000000" stroke-miterlimit="10" d="M33.5,159.2H4.9c-0.2,0-0.4-0.2-0.4-0.4v-1.1
			c0-0.2,0.2-0.4,0.4-0.4h28.6c0.2,0,0.4,0.2,0.4,0.4v1.1C33.9,159,33.7,159.2,33.5,159.2z"/>
		<path fill="#616366" stroke="#000000" stroke-miterlimit="10" d="M32.8,164.1H5.5c-0.2,0-0.4-0.2-0.4-0.4v-1.1
			c0-0.2,0.2-0.4,0.4-0.4h27.3c0.2,0,0.4,0.2,0.4,0.4v1.1C33.2,163.9,33,164.1,32.8,164.1z"/>
		<path fill="#616366" stroke="#000000" stroke-miterlimit="10" d="M32.1,169.1H6.2c-0.2,0-0.4-0.2-0.4-0.4v-1.1
			c0-0.2,0.2-0.4,0.4-0.4h25.9c0.2,0,0.4,0.2,0.4,0.4v1.1C32.6,168.9,32.4,169.1,32.1,169.1z"/>
		<path fill="#616366" stroke="#000000" stroke-miterlimit="10" d="M31.5,174H6.9c-0.2,0-0.4-0.2-0.4-0.4v-1.1
			c0-0.2,0.2-0.4,0.4-0.4h24.6c0.2,0,0.4,0.2,0.4,0.4v1.1C31.9,173.8,31.7,174,31.5,174z"/>
		<path fill="#616366" stroke="#000000" stroke-miterlimit="10" d="M30.8,178.9H7.5c-0.2,0-0.4-0.2-0.4-0.4v-1.1
			c0-0.2,0.2-0.4,0.4-0.4h23.2c0.2,0,0.4,0.2,0.4,0.4v1.1C31.2,178.7,31,178.9,30.8,178.9z"/>
		<path fill="#616366" stroke="#000000" stroke-miterlimit="10" d="M30.1,183.8H8.2c-0.2,0-0.4-0.2-0.4-0.4v-1.1
			c0-0.2,0.2-0.4,0.4-0.4h21.9c0.2,0,0.4,0.2,0.4,0.4v1.1C30.6,183.6,30.4,183.8,30.1,183.8z"/>
		<path fill="#616366" stroke="#000000" stroke-miterlimit="10" d="M29.4,188.8H8.9c-0.2,0-0.4-0.2-0.4-0.4v-1.1
			c0-0.2,0.2-0.4,0.4-0.4h20.6c0.2,0,0.4,0.2,0.4,0.4v1.1C29.9,188.6,29.7,188.8,29.4,188.8z"/>
		<path fill="#616366" stroke="#000000" stroke-miterlimit="10" d="M28.8,193.7H9.6c-0.2,0-0.4-0.2-0.4-0.4v-1.1
			c0-0.2,0.2-0.4,0.4-0.4h19.2c0.2,0,0.4,0.2,0.4,0.4v1.1C29.2,193.5,29,193.7,28.8,193.7z"/>
		<path fill="#BDBFC0" stroke="#000000" stroke-miterlimit="10" d="M32,68.2h1.1c0.2,0,0.3,0.2,0.3,0.3v4.3l1.6,7.3
			c0,0.2-0.1,0.4-0.3,0.4H32V68.2z"/>
		<path fill="#E6E7E9" stroke="#000000" stroke-miterlimit="10" d="M7.9,61h22.4c0.9,0,1.6,0.7,1.6,1.6v19.9H6.4V62.6
			C6.4,61.7,7.1,61,7.9,61z"/>
		<path fill="#BDBFC0" stroke="#000000" stroke-miterlimit="10" d="M36.4,100.5c-0.1,0.4-0.5,0.7-1,0.7h-0.6V85.4h0.6
			c0.4,0,0.8,0.3,1,0.7l0.9,2.6c0.1,0.2,0.1,0.4,0,0.6L36.2,93c-0.1,0.2-0.1,0.4,0,0.6l1.1,3.7c0.1,0.2,0.1,0.4,0,0.6L36.4,100.5z"
			/>
	</g>
</g>
</svg>
