<?xml version="1.0" encoding="utf-8"?>
<!-- Generator: Adobe Illustrator 17.1.0, SVG Export Plug-In . SVG Version: 6.00 Build 0)  -->
<!DOCTYPE svg PUBLIC "-//W3C//DTD SVG 1.1//EN" "http://www.w3.org/Graphics/SVG/1.1/DTD/svg11.dtd">
<svg version="1.1" xmlns="http://www.w3.org/2000/svg" xmlns:xlink="http://www.w3.org/1999/xlink" x="0px" y="0px"
	 viewBox="0 0 37.9 256.3" enable-background="new 0 0 37.9 256.3" xml:space="preserve">
<g id="XLR_Cables" display="none">
	<g display="inline">
		<g>
			<circle fill="#414143" cx="19" cy="19" r="18.4"/>
			<circle fill="#807F84" cx="19" cy="19" r="16.7"/>
			<path fill="#414143" d="M21.8,6.1l-0.2-0.6c-0.1-0.2-0.3-0.3-0.5-0.3h-4.1c-0.2,0-0.4,0.1-0.5,0.3L16.4,6
				C10.3,7.2,5.6,12.6,5.6,19.1c0,7.4,6,13.3,13.3,13.3s13.3-6,13.3-13.3C32.3,12.7,27.8,7.4,21.8,6.1z"/>
			<g>
				<circle fill="#BBBDBE" cx="18.9" cy="24.7" r="1.9"/>
				<circle fill="#BBBDBE" cx="24.7" cy="19" r="1.9"/>
				<circle fill="#BBBDBE" cx="13.2" cy="19" r="1.9"/>
			</g>
		</g>
		<g>
			<rect x="12.2" y="195.9" fill="#1C75BD" width="11" height="60"/>
			<path fill="#6D6E72" d="M2.1,83.6v60.2c0,4.1,0.4,8.2,1.1,12.3L9.8,194c0.2,1.1,1.1,1.9,2.3,1.9h11.3c1.1,0,2.1-0.8,2.3-1.9
				l6.6-37.9c0.7-4,1.1-8.1,1.1-12.3V83.6c0-0.8-0.6-1.4-1.4-1.4H3.5C2.7,82.2,2.1,82.9,2.1,83.6z"/>
			<path fill="#93A4AB" d="M32.7,152.4c0.3-2.8,0.5-5.7,0.5-8.6V83.6c0-0.8-0.6-1.4-1.4-1.4H3.5c-0.8,0-1.4,0.6-1.4,1.4v60.2
				c0,2.9,0.2,5.7,0.5,8.6H32.7z"/>
			<path fill="#616366" d="M32,158.9H3.4c-0.2,0-0.4-0.2-0.4-0.4v-1.1c0-0.2,0.2-0.4,0.4-0.4H32c0.2,0,0.4,0.2,0.4,0.4v1.1
				C32.4,158.7,32.2,158.9,32,158.9z"/>
			<path fill="#616366" d="M31.3,163.9H4c-0.2,0-0.4-0.2-0.4-0.4v-1.1c0-0.2,0.2-0.4,0.4-0.4h27.3c0.2,0,0.4,0.2,0.4,0.4v1.1
				C31.7,163.7,31.5,163.9,31.3,163.9z"/>
			<path fill="#616366" d="M30.6,168.8H4.7c-0.2,0-0.4-0.2-0.4-0.4l0-1.1c0-0.2,0.2-0.4,0.4-0.4h25.9c0.2,0,0.4,0.2,0.4,0.4v1.1
				C31.1,168.6,30.9,168.8,30.6,168.8z"/>
			<path fill="#616366" d="M30,173.7H5.4c-0.2,0-0.4-0.2-0.4-0.4v-1.1c0-0.2,0.2-0.4,0.4-0.4H30c0.2,0,0.4,0.2,0.4,0.4v1.1
				C30.4,173.5,30.2,173.7,30,173.7z"/>
			<path fill="#616366" d="M29.3,178.6H6.1c-0.2,0-0.4-0.2-0.4-0.4v-1.1c0-0.2,0.2-0.4,0.4-0.4h23.2c0.2,0,0.4,0.2,0.4,0.4v1.1
				C29.7,178.4,29.5,178.6,29.3,178.6z"/>
			<path fill="#616366" d="M28.6,183.5H6.7c-0.2,0-0.4-0.2-0.4-0.4V182c0-0.2,0.2-0.4,0.4-0.4h21.9c0.2,0,0.4,0.2,0.4,0.4v1.1
				C29.1,183.4,28.9,183.5,28.6,183.5z"/>
			<path fill="#616366" d="M28,188.5H7.4c-0.2,0-0.4-0.2-0.4-0.4v-1.1c0-0.2,0.2-0.4,0.4-0.4H28c0.2,0,0.4,0.2,0.4,0.4v1.1
				C28.4,188.3,28.2,188.5,28,188.5z"/>
			<path fill="#616366" d="M27.3,193.4H8.1c-0.2,0-0.4-0.2-0.4-0.4v-1.1c0-0.2,0.2-0.4,0.4-0.4h19.2c0.2,0,0.4,0.2,0.4,0.4v1.1
				C27.7,193.2,27.5,193.4,27.3,193.4z"/>
			<path fill="#BDBFC0" d="M30.5,67.9h1.1c0.2,0,0.3,0.2,0.3,0.3v4.3l1.6,7.3c0,0.2-0.1,0.4-0.3,0.4h-2.8V67.9z"/>
			<path fill="#E6E7E9" d="M6.5,60.7h22.4c0.9,0,1.6,0.7,1.6,1.6v19.9H4.9V62.3C4.9,61.4,5.6,60.7,6.5,60.7z"/>
			<path fill="#BDBFC0" d="M34.9,100.2c-0.1,0.4-0.5,0.7-1,0.7h-0.6V85.1h0.6c0.4,0,0.8,0.3,1,0.7l0.9,2.6c0.1,0.2,0.1,0.4,0,0.6
				l-1.1,3.7c-0.1,0.2-0.1,0.4,0,0.6l1.1,3.7c0.1,0.2,0.1,0.4,0,0.6L34.9,100.2z"/>
		</g>
	</g>
</g>
<g id="XLR_Cables_copy">
	<circle fill="none" stroke="#000000" stroke-miterlimit="10" cx="19" cy="19" r="18.4"/>
	<circle fill="none" stroke="#000000" stroke-miterlimit="10" cx="19" cy="19" r="16.7"/>
	<path d="M21.8,6.1l-0.2-0.6c-0.1-0.2-0.3-0.3-0.5-0.3h-4.1c-0.2,0-0.4,0.1-0.5,0.3L16.4,6C10.3,7.2,5.6,12.6,5.6,19.1
		c0,7.4,6,13.3,13.3,13.3s13.3-6,13.3-13.3C32.3,12.7,27.8,7.4,21.8,6.1z"/>
	<g>
		<circle fill="#FFFFFF" cx="18.9" cy="24.7" r="1.9"/>
		<circle fill="#FFFFFF" cx="24.7" cy="19" r="1.9"/>
		<circle fill="#FFFFFF" cx="13.2" cy="19" r="1.9"/>
	</g>
	<g>
		<rect x="12.2" y="195.9" fill="#1C75BD" stroke="#000000" stroke-miterlimit="10" width="11" height="60"/>
		<path fill="#6D6E72" stroke="#000000" stroke-miterlimit="10" d="M2.1,83.6v60.2c0,4.1,0.4,8.2,1.1,12.3L9.8,194
			c0.2,1.1,1.1,1.9,2.3,1.9h11.3c1.1,0,2.1-0.8,2.3-1.9l6.6-37.9c0.7-4,1.1-8.1,1.1-12.3V83.6c0-0.8-0.6-1.4-1.4-1.4H3.5
			C2.7,82.2,2.1,82.9,2.1,83.6z"/>
		<path fill="#93A4AB" stroke="#000000" stroke-miterlimit="10" d="M32.7,152.4c0.3-2.8,0.5-5.7,0.5-8.6V83.6c0-0.8-0.6-1.4-1.4-1.4
			H3.5c-0.8,0-1.4,0.6-1.4,1.4v60.2c0,2.9,0.2,5.7,0.5,8.6H32.7z"/>
		<path fill="#616366" stroke="#000000" stroke-miterlimit="10" d="M32,158.9H3.4c-0.2,0-0.4-0.2-0.4-0.4v-1.1
			c0-0.2,0.2-0.4,0.4-0.4H32c0.2,0,0.4,0.2,0.4,0.4v1.1C32.4,158.7,32.2,158.9,32,158.9z"/>
		<path fill="#616366" stroke="#000000" stroke-miterlimit="10" d="M31.3,163.9H4c-0.2,0-0.4-0.2-0.4-0.4v-1.1
			c0-0.2,0.2-0.4,0.4-0.4h27.3c0.2,0,0.4,0.2,0.4,0.4v1.1C31.7,163.7,31.5,163.9,31.3,163.9z"/>
		<path fill="#616366" stroke="#000000" stroke-miterlimit="10" d="M30.6,168.8H4.7c-0.2,0-0.4-0.2-0.4-0.4l0-1.1
			c0-0.2,0.2-0.4,0.4-0.4h25.9c0.2,0,0.4,0.2,0.4,0.4v1.1C31.1,168.6,30.9,168.8,30.6,168.8z"/>
		<path fill="#616366" stroke="#000000" stroke-miterlimit="10" d="M30,173.7H5.4c-0.2,0-0.4-0.2-0.4-0.4v-1.1
			c0-0.2,0.2-0.4,0.4-0.4H30c0.2,0,0.4,0.2,0.4,0.4v1.1C30.4,173.5,30.2,173.7,30,173.7z"/>
		<path fill="#616366" stroke="#000000" stroke-miterlimit="10" d="M29.3,178.6H6.1c-0.2,0-0.4-0.2-0.4-0.4v-1.1
			c0-0.2,0.2-0.4,0.4-0.4h23.2c0.2,0,0.4,0.2,0.4,0.4v1.1C29.7,178.4,29.5,178.6,29.3,178.6z"/>
		<path fill="#616366" stroke="#000000" stroke-miterlimit="10" d="M28.6,183.5H6.7c-0.2,0-0.4-0.2-0.4-0.4V182
			c0-0.2,0.2-0.4,0.4-0.4h21.9c0.2,0,0.4,0.2,0.4,0.4v1.1C29.1,183.4,28.9,183.5,28.6,183.5z"/>
		<path fill="#616366" stroke="#000000" stroke-miterlimit="10" d="M28,188.5H7.4c-0.2,0-0.4-0.2-0.4-0.4v-1.1
			c0-0.2,0.2-0.4,0.4-0.4H28c0.2,0,0.4,0.2,0.4,0.4v1.1C28.4,188.3,28.2,188.5,28,188.5z"/>
		<path fill="#616366" stroke="#000000" stroke-miterlimit="10" d="M27.3,193.4H8.1c-0.2,0-0.4-0.2-0.4-0.4v-1.1
			c0-0.2,0.2-0.4,0.4-0.4h19.2c0.2,0,0.4,0.2,0.4,0.4v1.1C27.7,193.2,27.5,193.4,27.3,193.4z"/>
		<path fill="#BDBFC0" stroke="#000000" stroke-miterlimit="10" d="M30.5,67.9h1.1c0.2,0,0.3,0.2,0.3,0.3v4.3l1.6,7.3
			c0,0.2-0.1,0.4-0.3,0.4h-2.8V67.9z"/>
		<path fill="#E6E7E9" stroke="#000000" stroke-miterlimit="10" d="M6.5,60.7h22.4c0.9,0,1.6,0.7,1.6,1.6v19.9H4.9V62.3
			C4.9,61.4,5.6,60.7,6.5,60.7z"/>
		<path fill="#BDBFC0" stroke="#000000" stroke-miterlimit="10" d="M34.9,100.2c-0.1,0.4-0.5,0.7-1,0.7h-0.6V85.1h0.6
			c0.4,0,0.8,0.3,1,0.7l0.9,2.6c0.1,0.2,0.1,0.4,0,0.6l-1.1,3.7c-0.1,0.2-0.1,0.4,0,0.6l1.1,3.7c0.1,0.2,0.1,0.4,0,0.6L34.9,100.2z"
			/>
	</g>
</g>
</svg>
