<?xml version="1.0" encoding="utf-8"?>
<!-- Generator: Adobe Illustrator 17.1.0, SVG Export Plug-In . SVG Version: 6.00 Build 0)  -->
<!DOCTYPE svg PUBLIC "-//W3C//DTD SVG 1.1//EN" "http://www.w3.org/Graphics/SVG/1.1/DTD/svg11.dtd">
<svg version="1.1" xmlns="http://www.w3.org/2000/svg" xmlns:xlink="http://www.w3.org/1999/xlink" x="0px" y="0px"
	 viewBox="0 0 38.1 200.6" enable-background="new 0 0 38.1 200.6" xml:space="preserve">
<g id="XLR_Outputs" display="none">
	<path display="inline" fill="#414143" d="M25.3,8C25.3,7.9,25.3,7.9,25.3,8l0-3.8c0-0.7-0.6-1.3-1.3-1.3h-9.8
		c-0.7,0-1.3,0.6-1.3,1.3v3.7c0,0,0,0,0,0c-7,2.5-12,9.2-12,17.1c0,10,8.1,18.2,18.2,18.2c10,0,18.2-8.1,18.2-18.2
		C37.3,17.2,32.3,10.5,25.3,8z"/>
	<path display="inline" fill="#807F84" d="M20.9,14.2l-0.3,0.9c-0.1,0.2-0.3,0.4-0.5,0.4h-2.7c-0.2,0-0.4-0.2-0.5-0.4l-0.2-0.8
		c-4.9,1.1-8.5,5.5-8.5,10.7c0,6.1,4.9,11,11,11s11-4.9,11-11C30.1,19.6,26.1,15,20.9,14.2z"/>
	<g display="inline">
		<g>
			<circle fill="#414043" cx="19" cy="30.5" r="1.9"/>
			<circle fill="#414043" cx="24.8" cy="24.7" r="1.9"/>
			<circle fill="#414043" cx="13.4" cy="24.7" r="1.9"/>
		</g>
		<path fill="#414043" d="M19,20.2c-2.6,0-4.8,2.1-4.8,4.8c0,2.6,2.1,4.8,4.8,4.8s4.8-2.1,4.8-4.8C23.8,22.4,21.7,20.2,19,20.2z"/>
	</g>
	<g display="inline">
		<path fill="#807F84" d="M19.1,41.5c-9.1,0-16.5-7.4-16.5-16.5c0-5.7,3.1-11.2,8-14.1l1.4,2.3c-4.1,2.5-6.7,7-6.7,11.8
			c0,7.6,6.2,13.8,13.8,13.8c7.6,0,13.8-6.2,13.8-13.8c0-4.8-2.6-9.3-6.7-11.8l1.4-2.3c5,3,8,8.4,8,14.1
			C35.6,34.2,28.2,41.5,19.1,41.5z"/>
	</g>
	<path display="inline" fill="#C8C9CB" d="M23.9,9.2h-9.6c-0.8,0-1.4-0.6-1.4-1.4V4.3c0-0.8,0.6-1.4,1.4-1.4h9.6
		c0.8,0,1.4,0.6,1.4,1.4v3.5C25.3,8.6,24.7,9.2,23.9,9.2z"/>
	<rect x="13.6" y="178.4" display="inline" fill="#1C75BD" width="11" height="81.5"/>
	<path display="inline" fill="#6D6E72" d="M3.5,66.2v60.2c0,4.1,0.4,8.2,1.1,12.3l6.6,37.9c0.2,1.1,1.1,1.9,2.3,1.9h11.3
		c1.1,0,2.1-0.8,2.3-1.9l6.6-37.9c0.7-4,1.1-8.1,1.1-12.3V66.2c0-0.8-0.6-1.4-1.4-1.4H4.9C4.1,64.7,3.5,65.4,3.5,66.2z"/>
	<g display="inline">
		<path fill="#616366" d="M33.4,141.4H4.8c-0.2,0-0.4-0.2-0.4-0.4v-1.1c0-0.2,0.2-0.4,0.4-0.4h28.6c0.2,0,0.4,0.2,0.4,0.4v1.1
			C33.8,141.3,33.6,141.4,33.4,141.4z"/>
		<path fill="#616366" d="M32.7,146.4H5.5c-0.2,0-0.4-0.2-0.4-0.4v-1.1c0-0.2,0.2-0.4,0.4-0.4h27.3c0.2,0,0.4,0.2,0.4,0.4v1.1
			C33.2,146.2,33,146.4,32.7,146.4z"/>
		<path fill="#616366" d="M32.1,151.3H6.1c-0.2,0-0.4-0.2-0.4-0.4v-1.1c0-0.2,0.2-0.4,0.4-0.4h25.9c0.2,0,0.4,0.2,0.4,0.4v1.1
			C32.5,151.1,32.3,151.3,32.1,151.3z"/>
		<path fill="#616366" d="M31.4,156.2H6.8c-0.2,0-0.4-0.2-0.4-0.4v-1.1c0-0.2,0.2-0.4,0.4-0.4h24.6c0.2,0,0.4,0.2,0.4,0.4v1.1
			C31.8,156,31.6,156.2,31.4,156.2z"/>
		<path fill="#616366" d="M30.7,161.1H7.5c-0.2,0-0.4-0.2-0.4-0.4v-1.1c0-0.2,0.2-0.4,0.4-0.4h23.2c0.2,0,0.4,0.2,0.4,0.4v1.1
			C31.2,160.9,31,161.1,30.7,161.1z"/>
		<path fill="#616366" d="M30.1,166.1H8.2c-0.2,0-0.4-0.2-0.4-0.4v-1.1c0-0.2,0.2-0.4,0.4-0.4h21.9c0.2,0,0.4,0.2,0.4,0.4v1.1
			C30.5,165.9,30.3,166.1,30.1,166.1z"/>
		<path fill="#616366" d="M29.4,171H8.8c-0.2,0-0.4-0.2-0.4-0.4v-1.1c0-0.2,0.2-0.4,0.4-0.4h20.6c0.2,0,0.4,0.2,0.4,0.4v1.1
			C29.8,170.8,29.6,171,29.4,171z"/>
		<path fill="#616366" d="M28.7,175.9H9.5c-0.2,0-0.4-0.2-0.4-0.4v-1.1c0-0.2,0.2-0.4,0.4-0.4h19.2c0.2,0,0.4,0.2,0.4,0.4v1.1
			C29.2,175.7,29,175.9,28.7,175.9z"/>
	</g>
	<path display="inline" fill="#93A4AB" d="M34.2,134.9c0.3-2.8,0.5-5.7,0.5-8.6V66.2c0-0.8-0.6-1.4-1.4-1.4H4.9
		c-0.8,0-1.4,0.6-1.4,1.4v60.2c0,2.9,0.2,5.7,0.5,8.6H34.2z"/>
	<path display="inline" fill="#D2D3D5" d="M21,83.4h-3.8c-0.5,0-0.9-0.4-0.9-0.9V68.5c0-0.5,0.4-0.9,0.9-0.9H21
		c0.5,0,0.9,0.4,0.9,0.9v14.1C21.9,83.1,21.5,83.4,21,83.4z"/>
	<rect x="16.3" y="71.1" display="inline" fill="#F2F2F3" width="5.5" height="8.8"/>
</g>
<g id="XLR_Outputs_copy">
	<g>
		<path fill="none" stroke="#000000" stroke-miterlimit="10" d="M25.3,6.1C25.3,6,25.3,6,25.3,6.1l0-3.8C25.3,1.6,24.7,1,24,1h-9.8
			c-0.7,0-1.3,0.6-1.3,1.3V6c0,0,0,0,0,0c-7,2.5-12,9.2-12,17.1c0,10,8.1,18.2,18.2,18.2c10,0,18.2-8.1,18.2-18.2
			C37.3,15.3,32.3,8.6,25.3,6.1z"/>
		<path fill="none" stroke="#000000" stroke-miterlimit="10" d="M20.9,12.3l-0.3,0.9c-0.1,0.2-0.3,0.4-0.5,0.4h-2.7
			c-0.2,0-0.4-0.2-0.5-0.4l-0.2-0.8c-4.9,1.1-8.5,5.5-8.5,10.7c0,6.1,4.9,11,11,11s11-4.9,11-11C30.1,17.7,26.1,13.1,20.9,12.3z"/>
		<path d="M24.8,20.9c-0.5,0-1,0.2-1.3,0.5c-0.7-1.8-2.4-3.1-4.5-3.1c-2,0-3.8,1.3-4.4,3.1c-0.3-0.3-0.8-0.5-1.2-0.5
			c-1,0-1.9,0.9-1.9,1.9c0,1,0.9,1.9,1.9,1.9c0.4,0,0.8-0.1,1.1-0.4c0.4,1.5,1.5,2.7,3,3.2c-0.2,0.3-0.3,0.6-0.3,1
			c0,1,0.9,1.9,1.9,1.9c1,0,1.9-0.9,1.9-1.9c0-0.4-0.1-0.7-0.3-1c1.5-0.5,2.6-1.8,3-3.3c0.3,0.3,0.7,0.4,1.2,0.4
			c1,0,1.9-0.9,1.9-1.9C26.8,21.8,25.9,20.9,24.8,20.9z"/>
		<g>
			<path fill="none" stroke="#000000" stroke-miterlimit="10" d="M19.1,39.6c-9.1,0-16.5-7.4-16.5-16.5c0-5.7,3.1-11.2,8-14.1
				l1.4,2.3c-4.1,2.5-6.7,7-6.7,11.8c0,7.6,6.2,13.8,13.8,13.8c7.6,0,13.8-6.2,13.8-13.8c0-4.8-2.6-9.3-6.7-11.8L27.5,9
				c5,3,8,8.4,8,14.1C35.6,32.3,28.2,39.6,19.1,39.6z"/>
		</g>
		<path fill="none" stroke="#000000" stroke-miterlimit="10" d="M23.9,7.3h-9.6c-0.8,0-1.4-0.6-1.4-1.4V2.4c0-0.8,0.6-1.4,1.4-1.4
			h9.6c0.8,0,1.4,0.6,1.4,1.4v3.5C25.3,6.7,24.7,7.3,23.9,7.3z"/>
	</g>
	<g>
		<path fill="#6D6E72" stroke="#000000" stroke-miterlimit="10" d="M3.5,66.2v60.2c0,4.1,0.4,8.2,1.1,12.3l6.6,37.9
			c0.2,1.1,1.1,1.9,2.3,1.9h11.3c1.1,0,2.1-0.8,2.3-1.9l6.6-37.9c0.7-4,1.1-8.1,1.1-12.3V66.2c0-0.8-0.6-1.4-1.4-1.4H4.9
			C4.1,64.7,3.5,65.4,3.5,66.2z"/>
		<g>
			<path fill="#616366" stroke="#000000" stroke-miterlimit="10" d="M33.4,141.4H4.8c-0.2,0-0.4-0.2-0.4-0.4v-1.1
				c0-0.2,0.2-0.4,0.4-0.4h28.6c0.2,0,0.4,0.2,0.4,0.4v1.1C33.8,141.3,33.6,141.4,33.4,141.4z"/>
			<path fill="#616366" stroke="#000000" stroke-miterlimit="10" d="M32.7,146.4H5.5c-0.2,0-0.4-0.2-0.4-0.4v-1.1
				c0-0.2,0.2-0.4,0.4-0.4h27.3c0.2,0,0.4,0.2,0.4,0.4v1.1C33.2,146.2,33,146.4,32.7,146.4z"/>
			<path fill="#616366" stroke="#000000" stroke-miterlimit="10" d="M32.1,151.3H6.1c-0.2,0-0.4-0.2-0.4-0.4v-1.1
				c0-0.2,0.2-0.4,0.4-0.4h25.9c0.2,0,0.4,0.2,0.4,0.4v1.1C32.5,151.1,32.3,151.3,32.1,151.3z"/>
			<path fill="#616366" stroke="#000000" stroke-miterlimit="10" d="M31.4,156.2H6.8c-0.2,0-0.4-0.2-0.4-0.4v-1.1
				c0-0.2,0.2-0.4,0.4-0.4h24.6c0.2,0,0.4,0.2,0.4,0.4v1.1C31.8,156,31.6,156.2,31.4,156.2z"/>
			<path fill="#616366" stroke="#000000" stroke-miterlimit="10" d="M30.7,161.1H7.5c-0.2,0-0.4-0.2-0.4-0.4v-1.1
				c0-0.2,0.2-0.4,0.4-0.4h23.2c0.2,0,0.4,0.2,0.4,0.4v1.1C31.2,160.9,31,161.1,30.7,161.1z"/>
			<path fill="#616366" stroke="#000000" stroke-miterlimit="10" d="M30.1,166.1H8.2c-0.2,0-0.4-0.2-0.4-0.4v-1.1
				c0-0.2,0.2-0.4,0.4-0.4h21.9c0.2,0,0.4,0.2,0.4,0.4v1.1C30.5,165.9,30.3,166.1,30.1,166.1z"/>
			<path fill="#616366" stroke="#000000" stroke-miterlimit="10" d="M29.4,171H8.8c-0.2,0-0.4-0.2-0.4-0.4v-1.1
				c0-0.2,0.2-0.4,0.4-0.4h20.6c0.2,0,0.4,0.2,0.4,0.4v1.1C29.8,170.8,29.6,171,29.4,171z"/>
			<path fill="#616366" stroke="#000000" stroke-miterlimit="10" d="M28.7,175.9H9.5c-0.2,0-0.4-0.2-0.4-0.4v-1.1
				c0-0.2,0.2-0.4,0.4-0.4h19.2c0.2,0,0.4,0.2,0.4,0.4v1.1C29.2,175.7,29,175.9,28.7,175.9z"/>
		</g>
		<path fill="#93A4AB" stroke="#000000" stroke-miterlimit="10" d="M34.2,134.9c0.3-2.8,0.5-5.7,0.5-8.6V66.2c0-0.8-0.6-1.4-1.4-1.4
			H4.9c-0.8,0-1.4,0.6-1.4,1.4v60.2c0,2.9,0.2,5.7,0.5,8.6H34.2z"/>
		<path fill="#D2D3D5" stroke="#000000" stroke-miterlimit="10" d="M21,83.4h-3.8c-0.5,0-0.9-0.4-0.9-0.9V68.5
			c0-0.5,0.4-0.9,0.9-0.9H21c0.5,0,0.9,0.4,0.9,0.9v14.1C21.9,83.1,21.5,83.4,21,83.4z"/>
		<rect x="16.3" y="71.1" fill="#F2F2F3" stroke="#000000" stroke-miterlimit="10" width="5.5" height="8.8"/>
	</g>
	<rect x="13.6" y="178.4" fill="#1C75BD" stroke="#000000" stroke-miterlimit="10" width="11" height="21.5"/>
</g>
</svg>
