<svg xmlns="http://www.w3.org/2000/svg" xmlns:xlink="http://www.w3.org/1999/xlink" width="34" height="25.56" viewBox="0 0 34 25.56">
  <defs>
    <style>
      .cls-arrow {
        fill: #fff;
        stroke: #fff;
        stroke-width: 1px;
        fill-rule: evenodd;
        filter: url(#filter-arrow);
      }
    </style>
    <filter id="filter-arrow" x="529" y="1176.44" width="35" height="26.56" filterUnits="userSpaceOnUse">
      <feOffset result="offset" dy="2" in="SourceAlpha"/>
      <feGaussianBlur result="blur" stdDeviation="1.414"/>
      <feFlood result="flood" flood-opacity="0.17"/>
      <feComposite result="composite" operator="in" in2="blur"/>
      <feBlend result="blend" in="SourceGraphic"/>
    </filter>
  </defs>
  <g transform="translate(-529.5 -1176.94)" style="fill: #fff; filter: url(#filter-arrow)">
    <path id="Forma_Arrow" class="cls-arrow" d="M551.048,1177.74a1.048,1.048,0,0,0-1.468,0,1.009,1.009,0,0,0,0,1.43l7.44,7.31H532.47a1.014,1.014,0,0,0-1.027,1.01,1.031,1.031,0,0,0,1.027,1.03h24.55l-7.44,7.29a1.033,1.033,0,0,0,0,1.45,1.048,1.048,0,0,0,1.468,0l9.2-9.05a0.973,0.973,0,0,0,0-1.42Z" style="stroke: inherit; filter: none; fill: inherit"/>
  </g>
  <use transform="translate(-529.5 -1176.94)" xlink:href="#Forma_Arrow" style="stroke: #fff; filter: none; fill: none"/>
</svg>
