<svg xmlns="http://www.w3.org/2000/svg" xmlns:xlink="http://www.w3.org/1999/xlink" width="63" height="52" viewBox="0 0 63 52">
  <defs>
    <style>
      .cls-sound {
        fill: #fff;
        fill-rule: evenodd;
        filter: url(#filter-sound);
      }
    </style>
    <filter id="filter-sound" x="447" y="1708" width="63" height="52" filterUnits="userSpaceOnUse">
      <feOffset result="offset" dy="2" in="SourceAlpha"/>
      <feGaussianBlur result="blur" stdDeviation="2"/>
      <feFlood result="flood" flood-opacity="0.27"/>
      <feComposite result="composite" operator="in" in2="blur"/>
      <feBlend result="blend" in="SourceGraphic"/>
    </filter>
  </defs>
  <path class="cls-sound" d="M482.446,1750.93a2.415,2.415,0,0,1-.787,2.48,2.364,2.364,0,0,1-.941.49,2.407,2.407,0,0,1-1.647-.13l-15.716-7.16-6.857,1.84a2.432,2.432,0,0,1-2.982-1.71l-2.5-9.32a2.438,2.438,0,0,1,1.728-2.98l6.857-1.83,10.033-14.06a2.449,2.449,0,0,1,2.42-.98,2.4,2.4,0,0,1,1.921,1.75l8.47,31.61h0Zm8.07-6.08a1.039,1.039,0,0,1-.168.05,2.44,2.44,0,0,1-1.849-.24l-0.4-.23a2.412,2.412,0,0,1-1.044-2.99,14.025,14.025,0,0,0-4.832-16.58,2.406,2.406,0,0,1-.677-3.17l0.231-.4a2.4,2.4,0,0,1,1.6-1.16,2.458,2.458,0,0,1,1.934.4,19.32,19.32,0,0,1,6.671,22.93A2.45,2.45,0,0,1,490.516,1744.85Zm11.674,4.62a2.455,2.455,0,0,1-1.479,1.29l-0.1.03a2.484,2.484,0,0,1-1.849-.24l-0.392-.23a2.4,2.4,0,0,1-.984-3.12,25.7,25.7,0,0,0-9.148-32.48,2.415,2.415,0,0,1-.765-3.23l0.227-.39a2.369,2.369,0,0,1,1.551-1.15,2.414,2.414,0,0,1,1.9.33A30.96,30.96,0,0,1,502.19,1749.47Z" transform="translate(-447 -1708)"/>
</svg>
