<svg xmlns="http://www.w3.org/2000/svg" xmlns:xlink="http://www.w3.org/1999/xlink" width="66" height="64.06" viewBox="0 0 66 64.06">
  <defs>
    <style>
      .cls-star {
        fill: #fff;
        fill-rule: evenodd;
        filter: url(#filter-star);
      }
    </style>
    <filter id="filter-star" x="805" y="4084.94" width="66" height="64.06" filterUnits="userSpaceOnUse">
      <feOffset result="offset" dy="2" in="SourceAlpha"/>
      <feGaussianBlur result="blur" stdDeviation="1.414"/>
      <feFlood result="flood" flood-opacity="0.17"/>
      <feComposite result="composite" operator="in" in2="blur"/>
      <feBlend result="blend" in="SourceGraphic"/>
    </filter>
  </defs>
  <path class="cls-star" d="M866.262,4105.4l-17.352-1.64a3,3,0,0,1-2.486-1.85l-6.215-15.12a2.973,2.973,0,0,0-5.519,0l-6.165,15.12a2.939,2.939,0,0,1-2.486,1.85l-17.353,1.64a3.015,3.015,0,0,0-1.69,5.24l13.076,11.53a2.981,2.981,0,0,1,.945,2.94l-3.928,16.16a3.005,3.005,0,0,0,4.425,3.3l14.469-8.53a2.994,2.994,0,0,1,3.033,0l14.468,8.53a3,3,0,0,0,4.425-3.3l-3.878-16.16a2.985,2.985,0,0,1,.945-2.94l13.076-11.53A3.051,3.051,0,0,0,866.262,4105.4Z" transform="translate(-805 -4084.94)"/>
</svg>
