<svg xmlns="http://www.w3.org/2000/svg" width="28.75" height="28.75" viewBox="0 0 28.75 28.75">
  <defs>
    <style>
      .cls-tooltip {
        fill: #448ccb;
        stroke: #448ccb;
        stroke-width: 1px;
        fill-rule: evenodd;
      }
    </style>
  </defs>
  <path class="cls-tooltip" d="M697.168,785.312a1,1,0,0,0-1,1v0.665a1,1,0,0,0,1.993,0v-0.665A1,1,0,0,0,697.168,785.312Zm0.332,8.071A13.883,13.883,0,1,0,683.617,779.5,13.9,13.9,0,0,0,697.5,793.383Zm0-25.773a11.89,11.89,0,1,1-11.89,11.89A11.9,11.9,0,0,1,697.5,767.61Zm-4.318,9.4h0a0.971,0.971,0,0,0,1-.963,4.064,4.064,0,0,1,.416-1.578,2.715,2.715,0,0,1,2.673-1.494,3.14,3.14,0,0,1,2.607.979,2.349,2.349,0,0,1,.333,2.06,6.635,6.635,0,0,1-1.91,2.657c-1,1.029-2.043,2.075-2.043,3.487a1,1,0,0,0,1.993,0c0-.6.714-1.329,1.478-2.093a8.161,8.161,0,0,0,2.408-3.553,4.271,4.271,0,0,0-.681-3.77,4.945,4.945,0,0,0-4.168-1.76,4.611,4.611,0,0,0-4.451,2.59,6.118,6.118,0,0,0-.631,2.475A0.968,0.968,0,0,0,693.182,777.009Z" transform="translate(-683.125 -765.125)"/>
</svg>
